M48
; DRILL file {KiCad 5.1.7-a382d34a8~88~ubuntu20.04.1} date Sat Mar 20 14:17:01 2021
; FORMAT={-:-/ absolute / inch / decimal}
; #@! TF.CreationDate,2021-03-20T14:17:01+01:00
; #@! TF.GenerationSoftware,Kicad,Pcbnew,5.1.7-a382d34a8~88~ubuntu20.04.1
; #@! TF.FileFunction,Plated,1,2,PTH
FMAT,2
INCH
T1C0.0157
T2C0.0300
T3C0.0320
T4C0.0394
T5C0.0512
T6C0.0591
T7C0.1260
%
G90
G05
T1
X1.3475Y-3.34
X1.3479Y-4.1259
X1.3489Y-2.5507
X1.3489Y-3.2819
X1.3975Y-3.505
X1.5175Y-4.2642
X1.5225Y-2.715
X1.5644Y-4.1259
X1.5654Y-2.5507
X1.6575Y-2.545
X1.6575Y-3.3325
X1.68Y-4.125
X2.1357Y-3.2824
X2.1357Y-3.3376
X2.1362Y-4.1254
X2.1367Y-2.5507
X2.18Y-3.51
X2.3005Y-4.2642
X2.3075Y-2.7175
X2.3528Y-4.1254
X2.3533Y-2.5507
X2.4475Y-2.55
X2.4475Y-3.3375
X2.46Y-4.125
X2.535Y-1.56
X2.9226Y-3.2824
X2.9226Y-3.3376
X2.9226Y-4.1254
X2.9236Y-2.5507
X2.967Y-3.5025
X3.0875Y-2.7175
X3.093Y-4.2625
X3.1391Y-4.1254
X3.14Y-4.07
X3.1401Y-2.5507
X3.2325Y-2.5475
X3.2375Y-3.3325
X3.5213Y-3.7512
X3.675Y-3.5975
X3.7099Y-3.2824
X3.7099Y-3.3376
X3.7104Y-2.5497
X3.7325Y-3.725
X3.7595Y-3.5025
X3.8805Y-2.7175
X3.9265Y-3.2824
X3.927Y-2.5497
X3.9275Y-2.4925
X4.07Y-3.495
X4.1425Y-3.83
X4.1725Y-3.7425
T2
X3.985Y-1.104
X3.985Y-1.204
X3.985Y-1.304
X3.985Y-1.404
X3.985Y-1.504
X3.985Y-1.604
X3.985Y-1.704
X1.335Y-0.905
X1.335Y-1.905
X1.435Y-0.905
X1.435Y-1.905
X1.535Y-0.905
X1.535Y-1.905
X1.635Y-0.905
X1.635Y-1.905
X1.735Y-0.905
X1.735Y-1.905
X1.835Y-0.905
X1.835Y-1.905
X1.935Y-0.905
X1.935Y-1.905
X2.035Y-0.905
X2.035Y-1.905
X2.135Y-0.905
X2.135Y-1.905
X2.235Y-0.905
X2.235Y-1.905
X2.335Y-0.905
X2.335Y-1.905
X2.435Y-0.905
X2.435Y-1.905
X2.535Y-0.905
X2.535Y-1.905
X2.635Y-0.905
X2.635Y-1.905
X2.735Y-0.905
X2.735Y-1.905
T3
X1.97Y-2.4243
X1.97Y-2.6605
X2.755Y-3.2118
X2.755Y-3.448
X1.9675Y-3.9994
X1.9675Y-4.2356
X1.1825Y-3.2118
X1.1825Y-3.448
X1.18Y-3.9994
X1.18Y-4.2356
X3.5425Y-3.2118
X3.5425Y-3.448
X1.9675Y-3.2118
X1.9675Y-3.448
X1.21Y-1.1204
X1.21Y-1.7197
X1.31Y-1.1204
X1.31Y-1.7197
X1.41Y-1.1204
X1.41Y-1.7197
X1.51Y-1.1204
X1.51Y-1.7197
X1.61Y-1.1204
X1.61Y-1.7197
X1.71Y-1.1204
X1.71Y-1.7197
X1.81Y-1.1204
X1.81Y-1.7197
X1.91Y-1.1204
X1.91Y-1.7197
X2.01Y-1.1204
X2.01Y-1.7197
X2.11Y-1.1204
X2.11Y-1.7197
X2.21Y-1.1204
X2.21Y-1.7197
X2.31Y-1.1204
X2.31Y-1.7197
X2.755Y-3.9993
X2.755Y-4.2355
X2.7575Y-2.4244
X2.7575Y-2.6606
X3.5425Y-2.4243
X3.5425Y-2.6605
X1.1825Y-2.4225
X1.1825Y-2.6587
T4
X3.7593Y-3.9777
X3.8289Y-3.9081
X3.8985Y-3.8385
X4.163Y-4.3814
X4.3022Y-4.2422
T5
X4.215Y-1.117
X4.215Y-1.373
X3.9945Y-1.91
X4.2505Y-1.91
X4.215Y-1.5045
X4.215Y-1.7605
T7
X4.408Y-3.582
X3.504Y-4.448
X1.024Y-0.945
X4.148Y-0.954
X1.024Y-4.174
X1.024Y-2.718
T6
G00X3.8637Y-4.2547
M15
G01X3.8999Y-4.2909
M16
G05
G00X4.1755Y-3.9429
M15
G01X4.2117Y-3.9791
M16
G05
T0
M30
