%TF.GenerationSoftware,KiCad,Pcbnew,5.1.7-a382d34a8~88~ubuntu20.04.1*%
%TF.CreationDate,2021-05-04T18:18:29+02:00*%
%TF.ProjectId,WiFiDuck32,57694669-4475-4636-9b33-322e6b696361,2*%
%TF.SameCoordinates,Original*%
%TF.FileFunction,Legend,Bot*%
%TF.FilePolarity,Positive*%
%FSLAX46Y46*%
G04 Gerber Fmt 4.6, Leading zero omitted, Abs format (unit mm)*
G04 Created by KiCad (PCBNEW 5.1.7-a382d34a8~88~ubuntu20.04.1) date 2021-05-04 18:18:29*
%MOMM*%
%LPD*%
G01*
G04 APERTURE LIST*
%ADD10C,0.300000*%
%ADD11C,0.010000*%
%ADD12C,0.150000*%
%ADD13C,0.120000*%
%ADD14C,0.800000*%
%ADD15C,1.000000*%
G04 APERTURE END LIST*
D10*
X92804928Y-43956928D02*
X92733500Y-43885500D01*
X92590642Y-43814071D01*
X92233500Y-43814071D01*
X92090642Y-43885500D01*
X92019214Y-43956928D01*
X91947785Y-44099785D01*
X91947785Y-44242642D01*
X92019214Y-44456928D01*
X92876357Y-45314071D01*
X91947785Y-45314071D01*
X91019214Y-43814071D02*
X90876357Y-43814071D01*
X90733500Y-43885500D01*
X90662071Y-43956928D01*
X90590642Y-44099785D01*
X90519214Y-44385500D01*
X90519214Y-44742642D01*
X90590642Y-45028357D01*
X90662071Y-45171214D01*
X90733500Y-45242642D01*
X90876357Y-45314071D01*
X91019214Y-45314071D01*
X91162071Y-45242642D01*
X91233500Y-45171214D01*
X91304928Y-45028357D01*
X91376357Y-44742642D01*
X91376357Y-44385500D01*
X91304928Y-44099785D01*
X91233500Y-43956928D01*
X91162071Y-43885500D01*
X91019214Y-43814071D01*
X89947785Y-43956928D02*
X89876357Y-43885500D01*
X89733500Y-43814071D01*
X89376357Y-43814071D01*
X89233500Y-43885500D01*
X89162071Y-43956928D01*
X89090642Y-44099785D01*
X89090642Y-44242642D01*
X89162071Y-44456928D01*
X90019214Y-45314071D01*
X89090642Y-45314071D01*
X87662071Y-45314071D02*
X88519214Y-45314071D01*
X88090642Y-45314071D02*
X88090642Y-43814071D01*
X88233500Y-44028357D01*
X88376357Y-44171214D01*
X88519214Y-44242642D01*
X99054928Y-46364071D02*
X99054928Y-47435500D01*
X99126357Y-47649785D01*
X99269214Y-47792642D01*
X99483500Y-47864071D01*
X99626357Y-47864071D01*
X97697785Y-46864071D02*
X97697785Y-47864071D01*
X98340642Y-46864071D02*
X98340642Y-47649785D01*
X98269214Y-47792642D01*
X98126357Y-47864071D01*
X97912071Y-47864071D01*
X97769214Y-47792642D01*
X97697785Y-47721214D01*
X96412071Y-47792642D02*
X96554928Y-47864071D01*
X96840642Y-47864071D01*
X96983500Y-47792642D01*
X97054928Y-47649785D01*
X97054928Y-47078357D01*
X96983500Y-46935500D01*
X96840642Y-46864071D01*
X96554928Y-46864071D01*
X96412071Y-46935500D01*
X96340642Y-47078357D01*
X96340642Y-47221214D01*
X97054928Y-47364071D01*
X95697785Y-47864071D02*
X95697785Y-46864071D01*
X95697785Y-47149785D02*
X95626357Y-47006928D01*
X95554928Y-46935500D01*
X95412071Y-46864071D01*
X95269214Y-46864071D01*
X94126357Y-46864071D02*
X94126357Y-48078357D01*
X94197785Y-48221214D01*
X94269214Y-48292642D01*
X94412071Y-48364071D01*
X94626357Y-48364071D01*
X94769214Y-48292642D01*
X94126357Y-47792642D02*
X94269214Y-47864071D01*
X94554928Y-47864071D01*
X94697785Y-47792642D01*
X94769214Y-47721214D01*
X94840642Y-47578357D01*
X94840642Y-47149785D01*
X94769214Y-47006928D01*
X94697785Y-46935500D01*
X94554928Y-46864071D01*
X94269214Y-46864071D01*
X94126357Y-46935500D01*
X92840642Y-47792642D02*
X92983500Y-47864071D01*
X93269214Y-47864071D01*
X93412071Y-47792642D01*
X93483500Y-47649785D01*
X93483500Y-47078357D01*
X93412071Y-46935500D01*
X93269214Y-46864071D01*
X92983500Y-46864071D01*
X92840642Y-46935500D01*
X92769214Y-47078357D01*
X92769214Y-47221214D01*
X93483500Y-47364071D01*
X92126357Y-46864071D02*
X92126357Y-47864071D01*
X92126357Y-47006928D02*
X92054928Y-46935500D01*
X91912071Y-46864071D01*
X91697785Y-46864071D01*
X91554928Y-46935500D01*
X91483500Y-47078357D01*
X91483500Y-47864071D01*
X89697785Y-47792642D02*
X89483500Y-47864071D01*
X89126357Y-47864071D01*
X88983500Y-47792642D01*
X88912071Y-47721214D01*
X88840642Y-47578357D01*
X88840642Y-47435500D01*
X88912071Y-47292642D01*
X88983500Y-47221214D01*
X89126357Y-47149785D01*
X89412071Y-47078357D01*
X89554928Y-47006928D01*
X89626357Y-46935500D01*
X89697785Y-46792642D01*
X89697785Y-46649785D01*
X89626357Y-46506928D01*
X89554928Y-46435500D01*
X89412071Y-46364071D01*
X89054928Y-46364071D01*
X88840642Y-46435500D01*
X88197785Y-47864071D02*
X88197785Y-46364071D01*
X88054928Y-47292642D02*
X87626357Y-47864071D01*
X87626357Y-46864071D02*
X88197785Y-47435500D01*
X86983500Y-47864071D02*
X86983500Y-46864071D01*
X86983500Y-47149785D02*
X86912071Y-47006928D01*
X86840642Y-46935500D01*
X86697785Y-46864071D01*
X86554928Y-46864071D01*
X85840642Y-47864071D02*
X85983500Y-47792642D01*
X86054928Y-47721214D01*
X86126357Y-47578357D01*
X86126357Y-47149785D01*
X86054928Y-47006928D01*
X85983500Y-46935500D01*
X85840642Y-46864071D01*
X85626357Y-46864071D01*
X85483500Y-46935500D01*
X85412071Y-47006928D01*
X85340642Y-47149785D01*
X85340642Y-47578357D01*
X85412071Y-47721214D01*
X85483500Y-47792642D01*
X85626357Y-47864071D01*
X85840642Y-47864071D01*
X84912071Y-46864071D02*
X84340642Y-46864071D01*
X84697785Y-46364071D02*
X84697785Y-47649785D01*
X84626357Y-47792642D01*
X84483500Y-47864071D01*
X84340642Y-47864071D01*
X83983500Y-46864071D02*
X83197785Y-46864071D01*
X83983500Y-47864071D01*
X83197785Y-47864071D01*
X82626357Y-47864071D02*
X82626357Y-46364071D01*
X82483500Y-47292642D02*
X82054928Y-47864071D01*
X82054928Y-46864071D02*
X82626357Y-47435500D01*
X81554928Y-46864071D02*
X81197785Y-47864071D01*
X80840642Y-46864071D02*
X81197785Y-47864071D01*
X81340642Y-48221214D01*
X81412071Y-48292642D01*
X81554928Y-48364071D01*
X99655714Y-51415071D02*
X99655714Y-49915071D01*
X99012857Y-51415071D02*
X99012857Y-50629357D01*
X99084285Y-50486500D01*
X99227142Y-50415071D01*
X99441428Y-50415071D01*
X99584285Y-50486500D01*
X99655714Y-50557928D01*
X98512857Y-50415071D02*
X97941428Y-50415071D01*
X98298571Y-49915071D02*
X98298571Y-51200785D01*
X98227142Y-51343642D01*
X98084285Y-51415071D01*
X97941428Y-51415071D01*
X97655714Y-50415071D02*
X97084285Y-50415071D01*
X97441428Y-49915071D02*
X97441428Y-51200785D01*
X97370000Y-51343642D01*
X97227142Y-51415071D01*
X97084285Y-51415071D01*
X96584285Y-50415071D02*
X96584285Y-51915071D01*
X96584285Y-50486500D02*
X96441428Y-50415071D01*
X96155714Y-50415071D01*
X96012857Y-50486500D01*
X95941428Y-50557928D01*
X95869999Y-50700785D01*
X95869999Y-51129357D01*
X95941428Y-51272214D01*
X96012857Y-51343642D01*
X96155714Y-51415071D01*
X96441428Y-51415071D01*
X96584285Y-51343642D01*
X95298571Y-51343642D02*
X95155714Y-51415071D01*
X94869999Y-51415071D01*
X94727142Y-51343642D01*
X94655714Y-51200785D01*
X94655714Y-51129357D01*
X94727142Y-50986500D01*
X94869999Y-50915071D01*
X95084285Y-50915071D01*
X95227142Y-50843642D01*
X95298571Y-50700785D01*
X95298571Y-50629357D01*
X95227142Y-50486500D01*
X95084285Y-50415071D01*
X94869999Y-50415071D01*
X94727142Y-50486500D01*
X94012857Y-51272214D02*
X93941428Y-51343642D01*
X94012857Y-51415071D01*
X94084285Y-51343642D01*
X94012857Y-51272214D01*
X94012857Y-51415071D01*
X94012857Y-50486500D02*
X93941428Y-50557928D01*
X94012857Y-50629357D01*
X94084285Y-50557928D01*
X94012857Y-50486500D01*
X94012857Y-50629357D01*
X92227142Y-49843642D02*
X93512857Y-51772214D01*
X90655714Y-49843642D02*
X91941428Y-51772214D01*
X89512857Y-50415071D02*
X89512857Y-51629357D01*
X89584285Y-51772214D01*
X89655714Y-51843642D01*
X89798571Y-51915071D01*
X90012857Y-51915071D01*
X90155714Y-51843642D01*
X89512857Y-51343642D02*
X89655714Y-51415071D01*
X89941428Y-51415071D01*
X90084285Y-51343642D01*
X90155714Y-51272214D01*
X90227142Y-51129357D01*
X90227142Y-50700785D01*
X90155714Y-50557928D01*
X90084285Y-50486500D01*
X89941428Y-50415071D01*
X89655714Y-50415071D01*
X89512857Y-50486500D01*
X88798571Y-51415071D02*
X88798571Y-50415071D01*
X88798571Y-49915071D02*
X88869999Y-49986500D01*
X88798571Y-50057928D01*
X88727142Y-49986500D01*
X88798571Y-49915071D01*
X88798571Y-50057928D01*
X88298571Y-50415071D02*
X87727142Y-50415071D01*
X88084285Y-49915071D02*
X88084285Y-51200785D01*
X88012857Y-51343642D01*
X87869999Y-51415071D01*
X87727142Y-51415071D01*
X87227142Y-51415071D02*
X87227142Y-49915071D01*
X86584285Y-51415071D02*
X86584285Y-50629357D01*
X86655714Y-50486500D01*
X86798571Y-50415071D01*
X87012857Y-50415071D01*
X87155714Y-50486500D01*
X87227142Y-50557928D01*
X85227142Y-50415071D02*
X85227142Y-51415071D01*
X85869999Y-50415071D02*
X85869999Y-51200785D01*
X85798571Y-51343642D01*
X85655714Y-51415071D01*
X85441428Y-51415071D01*
X85298571Y-51343642D01*
X85227142Y-51272214D01*
X84512857Y-51415071D02*
X84512857Y-49915071D01*
X84512857Y-50486500D02*
X84369999Y-50415071D01*
X84084285Y-50415071D01*
X83941428Y-50486500D01*
X83869999Y-50557928D01*
X83798571Y-50700785D01*
X83798571Y-51129357D01*
X83869999Y-51272214D01*
X83941428Y-51343642D01*
X84084285Y-51415071D01*
X84369999Y-51415071D01*
X84512857Y-51343642D01*
X83155714Y-51272214D02*
X83084285Y-51343642D01*
X83155714Y-51415071D01*
X83227142Y-51343642D01*
X83155714Y-51272214D01*
X83155714Y-51415071D01*
X81798571Y-51343642D02*
X81941428Y-51415071D01*
X82227142Y-51415071D01*
X82369999Y-51343642D01*
X82441428Y-51272214D01*
X82512857Y-51129357D01*
X82512857Y-50700785D01*
X82441428Y-50557928D01*
X82369999Y-50486500D01*
X82227142Y-50415071D01*
X81941428Y-50415071D01*
X81798571Y-50486500D01*
X80941428Y-51415071D02*
X81084285Y-51343642D01*
X81155714Y-51272214D01*
X81227142Y-51129357D01*
X81227142Y-50700785D01*
X81155714Y-50557928D01*
X81084285Y-50486500D01*
X80941428Y-50415071D01*
X80727142Y-50415071D01*
X80584285Y-50486500D01*
X80512857Y-50557928D01*
X80441428Y-50700785D01*
X80441428Y-51129357D01*
X80512857Y-51272214D01*
X80584285Y-51343642D01*
X80727142Y-51415071D01*
X80941428Y-51415071D01*
X79798571Y-51415071D02*
X79798571Y-50415071D01*
X79798571Y-50557928D02*
X79727142Y-50486500D01*
X79584285Y-50415071D01*
X79369999Y-50415071D01*
X79227142Y-50486500D01*
X79155714Y-50629357D01*
X79155714Y-51415071D01*
X79155714Y-50629357D02*
X79084285Y-50486500D01*
X78941428Y-50415071D01*
X78727142Y-50415071D01*
X78584285Y-50486500D01*
X78512857Y-50629357D01*
X78512857Y-51415071D01*
X76727142Y-49843642D02*
X78012857Y-51772214D01*
X75798571Y-49915071D02*
X75798571Y-50986500D01*
X75869999Y-51200785D01*
X76012857Y-51343642D01*
X76227142Y-51415071D01*
X76369999Y-51415071D01*
X74869999Y-51415071D02*
X75012857Y-51343642D01*
X75084285Y-51272214D01*
X75155714Y-51129357D01*
X75155714Y-50700785D01*
X75084285Y-50557928D01*
X75012857Y-50486500D01*
X74869999Y-50415071D01*
X74655714Y-50415071D01*
X74512857Y-50486500D01*
X74441428Y-50557928D01*
X74369999Y-50700785D01*
X74369999Y-51129357D01*
X74441428Y-51272214D01*
X74512857Y-51343642D01*
X74655714Y-51415071D01*
X74869999Y-51415071D01*
X73727142Y-51415071D02*
X73727142Y-50415071D01*
X73727142Y-50700785D02*
X73655714Y-50557928D01*
X73584285Y-50486500D01*
X73441428Y-50415071D01*
X73298571Y-50415071D01*
X72155714Y-50415071D02*
X72155714Y-51629357D01*
X72227142Y-51772214D01*
X72298571Y-51843642D01*
X72441428Y-51915071D01*
X72655714Y-51915071D01*
X72798571Y-51843642D01*
X72155714Y-51343642D02*
X72298571Y-51415071D01*
X72584285Y-51415071D01*
X72727142Y-51343642D01*
X72798571Y-51272214D01*
X72869999Y-51129357D01*
X72869999Y-50700785D01*
X72798571Y-50557928D01*
X72727142Y-50486500D01*
X72584285Y-50415071D01*
X72298571Y-50415071D01*
X72155714Y-50486500D01*
X70869999Y-51343642D02*
X71012857Y-51415071D01*
X71298571Y-51415071D01*
X71441428Y-51343642D01*
X71512857Y-51200785D01*
X71512857Y-50629357D01*
X71441428Y-50486500D01*
X71298571Y-50415071D01*
X71012857Y-50415071D01*
X70869999Y-50486500D01*
X70798571Y-50629357D01*
X70798571Y-50772214D01*
X71512857Y-50915071D01*
X70155714Y-50415071D02*
X70155714Y-51415071D01*
X70155714Y-50557928D02*
X70084285Y-50486500D01*
X69941428Y-50415071D01*
X69727142Y-50415071D01*
X69584285Y-50486500D01*
X69512857Y-50629357D01*
X69512857Y-51415071D01*
X68798571Y-50843642D02*
X67655714Y-50843642D01*
X67155714Y-49915071D02*
X66655714Y-51415071D01*
X66155714Y-49915071D01*
X65655714Y-51415071D02*
X65655714Y-50415071D01*
X65655714Y-49915071D02*
X65727142Y-49986500D01*
X65655714Y-50057928D01*
X65584285Y-49986500D01*
X65655714Y-49915071D01*
X65655714Y-50057928D01*
X64941428Y-51415071D02*
X64941428Y-49915071D01*
X64798571Y-50843642D02*
X64369999Y-51415071D01*
X64369999Y-50415071D02*
X64941428Y-50986500D01*
X63727142Y-51415071D02*
X63727142Y-50415071D01*
X63727142Y-49915071D02*
X63798571Y-49986500D01*
X63727142Y-50057928D01*
X63655714Y-49986500D01*
X63727142Y-49915071D01*
X63727142Y-50057928D01*
X63012857Y-50415071D02*
X63012857Y-51415071D01*
X63012857Y-50557928D02*
X62941428Y-50486500D01*
X62798571Y-50415071D01*
X62584285Y-50415071D01*
X62441428Y-50486500D01*
X62369999Y-50629357D01*
X62369999Y-51415071D01*
X61012857Y-50415071D02*
X61012857Y-51629357D01*
X61084285Y-51772214D01*
X61155714Y-51843642D01*
X61298571Y-51915071D01*
X61512857Y-51915071D01*
X61655714Y-51843642D01*
X61012857Y-51343642D02*
X61155714Y-51415071D01*
X61441428Y-51415071D01*
X61584285Y-51343642D01*
X61655714Y-51272214D01*
X61727142Y-51129357D01*
X61727142Y-50700785D01*
X61655714Y-50557928D01*
X61584285Y-50486500D01*
X61441428Y-50415071D01*
X61155714Y-50415071D01*
X61012857Y-50486500D01*
X59512857Y-49986500D02*
X59655714Y-49915071D01*
X59869999Y-49915071D01*
X60084285Y-49986500D01*
X60227142Y-50129357D01*
X60298571Y-50272214D01*
X60369999Y-50557928D01*
X60369999Y-50772214D01*
X60298571Y-51057928D01*
X60227142Y-51200785D01*
X60084285Y-51343642D01*
X59869999Y-51415071D01*
X59727142Y-51415071D01*
X59512857Y-51343642D01*
X59441428Y-51272214D01*
X59441428Y-50772214D01*
X59727142Y-50772214D01*
X58584285Y-51415071D02*
X58727142Y-51343642D01*
X58798571Y-51272214D01*
X58869999Y-51129357D01*
X58869999Y-50700785D01*
X58798571Y-50557928D01*
X58727142Y-50486500D01*
X58584285Y-50415071D01*
X58369999Y-50415071D01*
X58227142Y-50486500D01*
X58155714Y-50557928D01*
X58084285Y-50700785D01*
X58084285Y-51129357D01*
X58155714Y-51272214D01*
X58227142Y-51343642D01*
X58369999Y-51415071D01*
X58584285Y-51415071D01*
X56798571Y-51415071D02*
X56798571Y-49915071D01*
X56798571Y-51343642D02*
X56941428Y-51415071D01*
X57227142Y-51415071D01*
X57369999Y-51343642D01*
X57441428Y-51272214D01*
X57512857Y-51129357D01*
X57512857Y-50700785D01*
X57441428Y-50557928D01*
X57369999Y-50486500D01*
X57227142Y-50415071D01*
X56941428Y-50415071D01*
X56798571Y-50486500D01*
X55012857Y-49843642D02*
X56298571Y-51772214D01*
X54655714Y-49915071D02*
X54298571Y-51415071D01*
X54012857Y-50343642D01*
X53727142Y-51415071D01*
X53369999Y-49915071D01*
X52798571Y-51415071D02*
X52798571Y-50415071D01*
X52798571Y-49915071D02*
X52869999Y-49986500D01*
X52798571Y-50057928D01*
X52727142Y-49986500D01*
X52798571Y-49915071D01*
X52798571Y-50057928D01*
X51584285Y-50629357D02*
X52084285Y-50629357D01*
X52084285Y-51415071D02*
X52084285Y-49915071D01*
X51369999Y-49915071D01*
X50798571Y-51415071D02*
X50798571Y-50415071D01*
X50798571Y-49915071D02*
X50869999Y-49986500D01*
X50798571Y-50057928D01*
X50727142Y-49986500D01*
X50798571Y-49915071D01*
X50798571Y-50057928D01*
X50084285Y-51415071D02*
X50084285Y-49915071D01*
X49727142Y-49915071D01*
X49512857Y-49986500D01*
X49369999Y-50129357D01*
X49298571Y-50272214D01*
X49227142Y-50557928D01*
X49227142Y-50772214D01*
X49298571Y-51057928D01*
X49369999Y-51200785D01*
X49512857Y-51343642D01*
X49727142Y-51415071D01*
X50084285Y-51415071D01*
X47941428Y-50415071D02*
X47941428Y-51415071D01*
X48584285Y-50415071D02*
X48584285Y-51200785D01*
X48512857Y-51343642D01*
X48369999Y-51415071D01*
X48155714Y-51415071D01*
X48012857Y-51343642D01*
X47941428Y-51272214D01*
X46584285Y-51343642D02*
X46727142Y-51415071D01*
X47012857Y-51415071D01*
X47155714Y-51343642D01*
X47227142Y-51272214D01*
X47298571Y-51129357D01*
X47298571Y-50700785D01*
X47227142Y-50557928D01*
X47155714Y-50486500D01*
X47012857Y-50415071D01*
X46727142Y-50415071D01*
X46584285Y-50486500D01*
X45941428Y-51415071D02*
X45941428Y-49915071D01*
X45798571Y-50843642D02*
X45369999Y-51415071D01*
X45369999Y-50415071D02*
X45941428Y-50986500D01*
X44869999Y-49915071D02*
X43941428Y-49915071D01*
X44441428Y-50486500D01*
X44227142Y-50486500D01*
X44084285Y-50557928D01*
X44012857Y-50629357D01*
X43941428Y-50772214D01*
X43941428Y-51129357D01*
X44012857Y-51272214D01*
X44084285Y-51343642D01*
X44227142Y-51415071D01*
X44655714Y-51415071D01*
X44798571Y-51343642D01*
X44869999Y-51272214D01*
X43369999Y-50057928D02*
X43298571Y-49986500D01*
X43155714Y-49915071D01*
X42798571Y-49915071D01*
X42655714Y-49986500D01*
X42584285Y-50057928D01*
X42512857Y-50200785D01*
X42512857Y-50343642D01*
X42584285Y-50557928D01*
X43441428Y-51415071D01*
X42512857Y-51415071D01*
D11*
%TO.C,REF\u002A\u002A*%
G36*
X89325986Y-28298498D02*
G01*
X89167994Y-28299363D01*
X89053653Y-28301705D01*
X88975593Y-28306262D01*
X88926446Y-28313770D01*
X88898841Y-28324966D01*
X88885408Y-28340588D01*
X88878779Y-28361373D01*
X88878135Y-28364063D01*
X88868065Y-28412613D01*
X88849425Y-28508405D01*
X88824155Y-28641243D01*
X88794193Y-28800931D01*
X88761478Y-28977274D01*
X88760336Y-28983467D01*
X88727567Y-29156282D01*
X88696907Y-29308969D01*
X88670336Y-29432371D01*
X88649833Y-29517331D01*
X88637374Y-29554690D01*
X88636780Y-29555352D01*
X88600081Y-29573595D01*
X88524414Y-29603997D01*
X88426122Y-29639993D01*
X88425575Y-29640185D01*
X88301767Y-29686722D01*
X88155804Y-29746004D01*
X88018219Y-29805609D01*
X88011707Y-29808556D01*
X87787610Y-29910265D01*
X87291381Y-29571397D01*
X87139154Y-29468092D01*
X87001259Y-29375737D01*
X86885685Y-29299584D01*
X86800421Y-29244885D01*
X86753456Y-29216893D01*
X86748996Y-29214817D01*
X86714866Y-29224060D01*
X86651119Y-29268656D01*
X86555269Y-29350709D01*
X86424831Y-29472321D01*
X86291672Y-29601705D01*
X86163306Y-29729202D01*
X86048419Y-29845546D01*
X85953927Y-29943552D01*
X85886747Y-30016036D01*
X85853794Y-30055813D01*
X85852568Y-30057861D01*
X85848926Y-30085156D01*
X85862650Y-30129734D01*
X85897131Y-30197612D01*
X85955761Y-30294811D01*
X86041930Y-30427351D01*
X86156800Y-30597976D01*
X86258746Y-30748155D01*
X86349877Y-30882850D01*
X86424927Y-30994240D01*
X86478631Y-31074505D01*
X86505720Y-31115825D01*
X86507426Y-31118630D01*
X86504118Y-31158221D01*
X86479047Y-31235169D01*
X86437202Y-31334932D01*
X86422288Y-31366791D01*
X86357214Y-31508726D01*
X86287788Y-31669773D01*
X86231391Y-31809121D01*
X86190753Y-31912544D01*
X86158474Y-31991142D01*
X86139822Y-32032220D01*
X86137503Y-32035385D01*
X86103197Y-32040628D01*
X86022331Y-32054994D01*
X85905657Y-32076437D01*
X85763925Y-32102913D01*
X85607890Y-32132377D01*
X85448302Y-32162783D01*
X85295915Y-32192088D01*
X85161479Y-32218245D01*
X85055748Y-32239210D01*
X84989474Y-32252939D01*
X84973218Y-32256820D01*
X84956427Y-32266400D01*
X84943751Y-32288036D01*
X84934622Y-32329031D01*
X84928469Y-32396689D01*
X84924720Y-32498312D01*
X84922808Y-32641203D01*
X84922160Y-32832665D01*
X84922126Y-32911145D01*
X84922126Y-33549406D01*
X85075402Y-33579660D01*
X85160678Y-33596064D01*
X85287930Y-33620009D01*
X85441685Y-33648607D01*
X85606466Y-33678967D01*
X85652011Y-33687306D01*
X85804068Y-33716870D01*
X85936532Y-33745942D01*
X86038286Y-33771829D01*
X86098212Y-33791837D01*
X86108195Y-33797801D01*
X86132707Y-33840034D01*
X86167852Y-33921870D01*
X86206827Y-34027183D01*
X86214558Y-34049868D01*
X86265640Y-34190518D01*
X86329046Y-34349214D01*
X86391096Y-34491725D01*
X86391402Y-34492386D01*
X86494733Y-34715940D01*
X85815039Y-35715732D01*
X86251379Y-36152800D01*
X86383351Y-36282881D01*
X86503721Y-36397548D01*
X86605727Y-36490681D01*
X86682609Y-36556158D01*
X86727607Y-36587857D01*
X86734062Y-36589868D01*
X86771960Y-36574029D01*
X86849292Y-36529996D01*
X86957611Y-36462990D01*
X87088468Y-36378234D01*
X87229948Y-36283316D01*
X87373539Y-36186498D01*
X87501565Y-36102251D01*
X87605895Y-36035758D01*
X87678400Y-35992202D01*
X87710842Y-35976764D01*
X87750424Y-35989828D01*
X87825481Y-36024250D01*
X87920532Y-36072880D01*
X87930608Y-36078285D01*
X88058609Y-36142480D01*
X88146382Y-36173963D01*
X88200972Y-36174298D01*
X88229425Y-36145048D01*
X88229590Y-36144638D01*
X88243812Y-36109998D01*
X88277731Y-36027769D01*
X88328716Y-35904314D01*
X88394138Y-35745998D01*
X88471366Y-35559186D01*
X88557771Y-35350242D01*
X88641449Y-35147946D01*
X88733412Y-34924700D01*
X88817850Y-34717892D01*
X88892231Y-34533862D01*
X88954026Y-34378951D01*
X89000703Y-34259496D01*
X89029732Y-34181839D01*
X89038678Y-34152856D01*
X89016244Y-34119610D01*
X88957561Y-34066623D01*
X88879311Y-34008204D01*
X88656466Y-33823452D01*
X88482282Y-33611682D01*
X88358846Y-33377356D01*
X88288246Y-33124934D01*
X88272569Y-32858877D01*
X88283964Y-32736075D01*
X88346050Y-32481293D01*
X88452977Y-32256301D01*
X88598111Y-32063317D01*
X88774822Y-31904561D01*
X88976478Y-31782250D01*
X89196446Y-31698605D01*
X89428094Y-31655844D01*
X89664791Y-31656187D01*
X89899905Y-31701852D01*
X90126804Y-31795059D01*
X90338856Y-31938027D01*
X90427364Y-32018883D01*
X90597111Y-32226507D01*
X90715301Y-32453395D01*
X90782722Y-32692933D01*
X90800160Y-32938507D01*
X90768402Y-33183503D01*
X90688235Y-33421308D01*
X90560445Y-33645307D01*
X90385820Y-33848887D01*
X90190688Y-34008204D01*
X90109409Y-34069102D01*
X90051991Y-34121515D01*
X90031322Y-34152906D01*
X90042144Y-34187139D01*
X90072923Y-34268919D01*
X90121126Y-34391907D01*
X90184222Y-34549763D01*
X90259678Y-34736149D01*
X90344962Y-34944726D01*
X90428781Y-35147996D01*
X90521255Y-35371433D01*
X90606911Y-35578484D01*
X90683118Y-35762786D01*
X90747247Y-35917975D01*
X90796668Y-36037688D01*
X90828752Y-36115561D01*
X90840641Y-36144638D01*
X90868726Y-36174177D01*
X90923051Y-36174091D01*
X91010605Y-36142826D01*
X91138381Y-36078829D01*
X91139392Y-36078285D01*
X91235598Y-36028621D01*
X91313369Y-35992445D01*
X91357223Y-35976908D01*
X91359158Y-35976764D01*
X91392171Y-35992524D01*
X91465054Y-36036350D01*
X91569678Y-36103057D01*
X91697910Y-36187464D01*
X91840052Y-36283316D01*
X91984767Y-36380367D01*
X92115196Y-36464770D01*
X92222890Y-36531301D01*
X92299402Y-36574738D01*
X92335938Y-36589868D01*
X92369582Y-36569982D01*
X92437224Y-36514403D01*
X92532107Y-36429254D01*
X92647470Y-36320653D01*
X92776555Y-36194721D01*
X92818771Y-36152649D01*
X93255261Y-35715431D01*
X92923023Y-35227840D01*
X92822054Y-35078105D01*
X92733438Y-34943720D01*
X92662146Y-34832469D01*
X92613150Y-34752139D01*
X92591422Y-34710514D01*
X92590785Y-34707553D01*
X92602240Y-34668318D01*
X92633051Y-34589395D01*
X92677884Y-34484009D01*
X92709353Y-34413454D01*
X92768192Y-34278376D01*
X92823604Y-34141909D01*
X92866564Y-34026603D01*
X92878234Y-33991477D01*
X92911389Y-33897674D01*
X92943799Y-33825194D01*
X92961601Y-33797801D01*
X93000886Y-33781036D01*
X93086626Y-33757270D01*
X93207697Y-33729197D01*
X93352973Y-33699509D01*
X93417988Y-33687306D01*
X93583087Y-33656968D01*
X93741448Y-33627593D01*
X93877596Y-33602069D01*
X93976057Y-33583285D01*
X93994598Y-33579660D01*
X94147873Y-33549406D01*
X94147873Y-32911145D01*
X94147529Y-32701270D01*
X94146116Y-32542480D01*
X94143064Y-32427473D01*
X94137803Y-32348946D01*
X94129763Y-32299596D01*
X94118373Y-32272119D01*
X94103063Y-32259213D01*
X94096782Y-32256820D01*
X94058896Y-32248333D01*
X93975195Y-32231400D01*
X93856433Y-32208066D01*
X93713361Y-32180375D01*
X93556732Y-32150373D01*
X93397297Y-32120104D01*
X93245809Y-32091615D01*
X93113019Y-32066949D01*
X93009681Y-32048151D01*
X92946545Y-32037267D01*
X92932497Y-32035385D01*
X92919770Y-32010204D01*
X92891600Y-31943122D01*
X92853252Y-31846833D01*
X92838609Y-31809121D01*
X92779548Y-31663421D01*
X92710000Y-31502451D01*
X92647712Y-31366791D01*
X92601879Y-31263061D01*
X92571387Y-31177826D01*
X92561208Y-31125626D01*
X92562831Y-31118630D01*
X92584343Y-31085602D01*
X92633465Y-31012143D01*
X92704923Y-30906077D01*
X92793445Y-30775226D01*
X92893759Y-30627412D01*
X92913594Y-30598234D01*
X93029988Y-30425363D01*
X93115548Y-30293726D01*
X93173684Y-30197261D01*
X93207808Y-30129908D01*
X93221331Y-30085606D01*
X93217664Y-30058294D01*
X93217570Y-30058120D01*
X93188707Y-30022246D01*
X93124867Y-29952891D01*
X93032969Y-29857245D01*
X92919933Y-29742499D01*
X92792679Y-29615841D01*
X92778328Y-29601705D01*
X92617957Y-29446403D01*
X92494195Y-29332370D01*
X92404555Y-29257502D01*
X92346552Y-29219696D01*
X92321004Y-29214817D01*
X92283718Y-29236103D01*
X92206343Y-29285273D01*
X92096867Y-29357075D01*
X91963280Y-29446255D01*
X91813570Y-29547563D01*
X91778618Y-29571397D01*
X91282390Y-29910265D01*
X91058293Y-29808556D01*
X90922011Y-29749283D01*
X90775724Y-29689670D01*
X90649965Y-29642140D01*
X90644425Y-29640185D01*
X90546057Y-29604177D01*
X90470229Y-29573729D01*
X90433282Y-29555405D01*
X90433220Y-29555352D01*
X90421496Y-29522229D01*
X90401568Y-29440767D01*
X90375413Y-29320125D01*
X90345010Y-29169459D01*
X90312337Y-28997928D01*
X90309664Y-28983467D01*
X90276890Y-28806735D01*
X90246802Y-28646310D01*
X90221339Y-28512388D01*
X90202441Y-28415163D01*
X90192047Y-28364832D01*
X90191865Y-28364063D01*
X90185539Y-28342653D01*
X90173239Y-28326488D01*
X90147594Y-28314831D01*
X90101235Y-28306945D01*
X90026792Y-28302093D01*
X89916895Y-28299539D01*
X89764175Y-28298545D01*
X89561262Y-28298374D01*
X89535000Y-28298374D01*
X89325986Y-28298498D01*
G37*
X89325986Y-28298498D02*
X89167994Y-28299363D01*
X89053653Y-28301705D01*
X88975593Y-28306262D01*
X88926446Y-28313770D01*
X88898841Y-28324966D01*
X88885408Y-28340588D01*
X88878779Y-28361373D01*
X88878135Y-28364063D01*
X88868065Y-28412613D01*
X88849425Y-28508405D01*
X88824155Y-28641243D01*
X88794193Y-28800931D01*
X88761478Y-28977274D01*
X88760336Y-28983467D01*
X88727567Y-29156282D01*
X88696907Y-29308969D01*
X88670336Y-29432371D01*
X88649833Y-29517331D01*
X88637374Y-29554690D01*
X88636780Y-29555352D01*
X88600081Y-29573595D01*
X88524414Y-29603997D01*
X88426122Y-29639993D01*
X88425575Y-29640185D01*
X88301767Y-29686722D01*
X88155804Y-29746004D01*
X88018219Y-29805609D01*
X88011707Y-29808556D01*
X87787610Y-29910265D01*
X87291381Y-29571397D01*
X87139154Y-29468092D01*
X87001259Y-29375737D01*
X86885685Y-29299584D01*
X86800421Y-29244885D01*
X86753456Y-29216893D01*
X86748996Y-29214817D01*
X86714866Y-29224060D01*
X86651119Y-29268656D01*
X86555269Y-29350709D01*
X86424831Y-29472321D01*
X86291672Y-29601705D01*
X86163306Y-29729202D01*
X86048419Y-29845546D01*
X85953927Y-29943552D01*
X85886747Y-30016036D01*
X85853794Y-30055813D01*
X85852568Y-30057861D01*
X85848926Y-30085156D01*
X85862650Y-30129734D01*
X85897131Y-30197612D01*
X85955761Y-30294811D01*
X86041930Y-30427351D01*
X86156800Y-30597976D01*
X86258746Y-30748155D01*
X86349877Y-30882850D01*
X86424927Y-30994240D01*
X86478631Y-31074505D01*
X86505720Y-31115825D01*
X86507426Y-31118630D01*
X86504118Y-31158221D01*
X86479047Y-31235169D01*
X86437202Y-31334932D01*
X86422288Y-31366791D01*
X86357214Y-31508726D01*
X86287788Y-31669773D01*
X86231391Y-31809121D01*
X86190753Y-31912544D01*
X86158474Y-31991142D01*
X86139822Y-32032220D01*
X86137503Y-32035385D01*
X86103197Y-32040628D01*
X86022331Y-32054994D01*
X85905657Y-32076437D01*
X85763925Y-32102913D01*
X85607890Y-32132377D01*
X85448302Y-32162783D01*
X85295915Y-32192088D01*
X85161479Y-32218245D01*
X85055748Y-32239210D01*
X84989474Y-32252939D01*
X84973218Y-32256820D01*
X84956427Y-32266400D01*
X84943751Y-32288036D01*
X84934622Y-32329031D01*
X84928469Y-32396689D01*
X84924720Y-32498312D01*
X84922808Y-32641203D01*
X84922160Y-32832665D01*
X84922126Y-32911145D01*
X84922126Y-33549406D01*
X85075402Y-33579660D01*
X85160678Y-33596064D01*
X85287930Y-33620009D01*
X85441685Y-33648607D01*
X85606466Y-33678967D01*
X85652011Y-33687306D01*
X85804068Y-33716870D01*
X85936532Y-33745942D01*
X86038286Y-33771829D01*
X86098212Y-33791837D01*
X86108195Y-33797801D01*
X86132707Y-33840034D01*
X86167852Y-33921870D01*
X86206827Y-34027183D01*
X86214558Y-34049868D01*
X86265640Y-34190518D01*
X86329046Y-34349214D01*
X86391096Y-34491725D01*
X86391402Y-34492386D01*
X86494733Y-34715940D01*
X85815039Y-35715732D01*
X86251379Y-36152800D01*
X86383351Y-36282881D01*
X86503721Y-36397548D01*
X86605727Y-36490681D01*
X86682609Y-36556158D01*
X86727607Y-36587857D01*
X86734062Y-36589868D01*
X86771960Y-36574029D01*
X86849292Y-36529996D01*
X86957611Y-36462990D01*
X87088468Y-36378234D01*
X87229948Y-36283316D01*
X87373539Y-36186498D01*
X87501565Y-36102251D01*
X87605895Y-36035758D01*
X87678400Y-35992202D01*
X87710842Y-35976764D01*
X87750424Y-35989828D01*
X87825481Y-36024250D01*
X87920532Y-36072880D01*
X87930608Y-36078285D01*
X88058609Y-36142480D01*
X88146382Y-36173963D01*
X88200972Y-36174298D01*
X88229425Y-36145048D01*
X88229590Y-36144638D01*
X88243812Y-36109998D01*
X88277731Y-36027769D01*
X88328716Y-35904314D01*
X88394138Y-35745998D01*
X88471366Y-35559186D01*
X88557771Y-35350242D01*
X88641449Y-35147946D01*
X88733412Y-34924700D01*
X88817850Y-34717892D01*
X88892231Y-34533862D01*
X88954026Y-34378951D01*
X89000703Y-34259496D01*
X89029732Y-34181839D01*
X89038678Y-34152856D01*
X89016244Y-34119610D01*
X88957561Y-34066623D01*
X88879311Y-34008204D01*
X88656466Y-33823452D01*
X88482282Y-33611682D01*
X88358846Y-33377356D01*
X88288246Y-33124934D01*
X88272569Y-32858877D01*
X88283964Y-32736075D01*
X88346050Y-32481293D01*
X88452977Y-32256301D01*
X88598111Y-32063317D01*
X88774822Y-31904561D01*
X88976478Y-31782250D01*
X89196446Y-31698605D01*
X89428094Y-31655844D01*
X89664791Y-31656187D01*
X89899905Y-31701852D01*
X90126804Y-31795059D01*
X90338856Y-31938027D01*
X90427364Y-32018883D01*
X90597111Y-32226507D01*
X90715301Y-32453395D01*
X90782722Y-32692933D01*
X90800160Y-32938507D01*
X90768402Y-33183503D01*
X90688235Y-33421308D01*
X90560445Y-33645307D01*
X90385820Y-33848887D01*
X90190688Y-34008204D01*
X90109409Y-34069102D01*
X90051991Y-34121515D01*
X90031322Y-34152906D01*
X90042144Y-34187139D01*
X90072923Y-34268919D01*
X90121126Y-34391907D01*
X90184222Y-34549763D01*
X90259678Y-34736149D01*
X90344962Y-34944726D01*
X90428781Y-35147996D01*
X90521255Y-35371433D01*
X90606911Y-35578484D01*
X90683118Y-35762786D01*
X90747247Y-35917975D01*
X90796668Y-36037688D01*
X90828752Y-36115561D01*
X90840641Y-36144638D01*
X90868726Y-36174177D01*
X90923051Y-36174091D01*
X91010605Y-36142826D01*
X91138381Y-36078829D01*
X91139392Y-36078285D01*
X91235598Y-36028621D01*
X91313369Y-35992445D01*
X91357223Y-35976908D01*
X91359158Y-35976764D01*
X91392171Y-35992524D01*
X91465054Y-36036350D01*
X91569678Y-36103057D01*
X91697910Y-36187464D01*
X91840052Y-36283316D01*
X91984767Y-36380367D01*
X92115196Y-36464770D01*
X92222890Y-36531301D01*
X92299402Y-36574738D01*
X92335938Y-36589868D01*
X92369582Y-36569982D01*
X92437224Y-36514403D01*
X92532107Y-36429254D01*
X92647470Y-36320653D01*
X92776555Y-36194721D01*
X92818771Y-36152649D01*
X93255261Y-35715431D01*
X92923023Y-35227840D01*
X92822054Y-35078105D01*
X92733438Y-34943720D01*
X92662146Y-34832469D01*
X92613150Y-34752139D01*
X92591422Y-34710514D01*
X92590785Y-34707553D01*
X92602240Y-34668318D01*
X92633051Y-34589395D01*
X92677884Y-34484009D01*
X92709353Y-34413454D01*
X92768192Y-34278376D01*
X92823604Y-34141909D01*
X92866564Y-34026603D01*
X92878234Y-33991477D01*
X92911389Y-33897674D01*
X92943799Y-33825194D01*
X92961601Y-33797801D01*
X93000886Y-33781036D01*
X93086626Y-33757270D01*
X93207697Y-33729197D01*
X93352973Y-33699509D01*
X93417988Y-33687306D01*
X93583087Y-33656968D01*
X93741448Y-33627593D01*
X93877596Y-33602069D01*
X93976057Y-33583285D01*
X93994598Y-33579660D01*
X94147873Y-33549406D01*
X94147873Y-32911145D01*
X94147529Y-32701270D01*
X94146116Y-32542480D01*
X94143064Y-32427473D01*
X94137803Y-32348946D01*
X94129763Y-32299596D01*
X94118373Y-32272119D01*
X94103063Y-32259213D01*
X94096782Y-32256820D01*
X94058896Y-32248333D01*
X93975195Y-32231400D01*
X93856433Y-32208066D01*
X93713361Y-32180375D01*
X93556732Y-32150373D01*
X93397297Y-32120104D01*
X93245809Y-32091615D01*
X93113019Y-32066949D01*
X93009681Y-32048151D01*
X92946545Y-32037267D01*
X92932497Y-32035385D01*
X92919770Y-32010204D01*
X92891600Y-31943122D01*
X92853252Y-31846833D01*
X92838609Y-31809121D01*
X92779548Y-31663421D01*
X92710000Y-31502451D01*
X92647712Y-31366791D01*
X92601879Y-31263061D01*
X92571387Y-31177826D01*
X92561208Y-31125626D01*
X92562831Y-31118630D01*
X92584343Y-31085602D01*
X92633465Y-31012143D01*
X92704923Y-30906077D01*
X92793445Y-30775226D01*
X92893759Y-30627412D01*
X92913594Y-30598234D01*
X93029988Y-30425363D01*
X93115548Y-30293726D01*
X93173684Y-30197261D01*
X93207808Y-30129908D01*
X93221331Y-30085606D01*
X93217664Y-30058294D01*
X93217570Y-30058120D01*
X93188707Y-30022246D01*
X93124867Y-29952891D01*
X93032969Y-29857245D01*
X92919933Y-29742499D01*
X92792679Y-29615841D01*
X92778328Y-29601705D01*
X92617957Y-29446403D01*
X92494195Y-29332370D01*
X92404555Y-29257502D01*
X92346552Y-29219696D01*
X92321004Y-29214817D01*
X92283718Y-29236103D01*
X92206343Y-29285273D01*
X92096867Y-29357075D01*
X91963280Y-29446255D01*
X91813570Y-29547563D01*
X91778618Y-29571397D01*
X91282390Y-29910265D01*
X91058293Y-29808556D01*
X90922011Y-29749283D01*
X90775724Y-29689670D01*
X90649965Y-29642140D01*
X90644425Y-29640185D01*
X90546057Y-29604177D01*
X90470229Y-29573729D01*
X90433282Y-29555405D01*
X90433220Y-29555352D01*
X90421496Y-29522229D01*
X90401568Y-29440767D01*
X90375413Y-29320125D01*
X90345010Y-29169459D01*
X90312337Y-28997928D01*
X90309664Y-28983467D01*
X90276890Y-28806735D01*
X90246802Y-28646310D01*
X90221339Y-28512388D01*
X90202441Y-28415163D01*
X90192047Y-28364832D01*
X90191865Y-28364063D01*
X90185539Y-28342653D01*
X90173239Y-28326488D01*
X90147594Y-28314831D01*
X90101235Y-28306945D01*
X90026792Y-28302093D01*
X89916895Y-28299539D01*
X89764175Y-28298545D01*
X89561262Y-28298374D01*
X89535000Y-28298374D01*
X89325986Y-28298498D01*
G36*
X83191561Y-37802040D02*
G01*
X83076050Y-37877534D01*
X83020336Y-37945117D01*
X82976196Y-38067755D01*
X82972691Y-38164798D01*
X82980632Y-38294556D01*
X83279885Y-38425539D01*
X83425389Y-38492458D01*
X83520463Y-38546290D01*
X83569899Y-38592916D01*
X83578489Y-38638220D01*
X83551028Y-38688082D01*
X83520747Y-38721132D01*
X83432637Y-38774133D01*
X83336804Y-38777847D01*
X83248788Y-38736541D01*
X83184131Y-38654483D01*
X83172567Y-38625508D01*
X83117175Y-38535009D01*
X83053447Y-38496440D01*
X82966034Y-38463446D01*
X82966034Y-38588534D01*
X82973762Y-38673656D01*
X83004034Y-38745438D01*
X83067482Y-38827856D01*
X83076912Y-38838566D01*
X83147487Y-38911891D01*
X83208153Y-38951242D01*
X83284050Y-38969345D01*
X83346970Y-38975274D01*
X83459513Y-38976751D01*
X83539630Y-38958035D01*
X83589610Y-38930247D01*
X83668162Y-38869141D01*
X83722537Y-38803054D01*
X83756948Y-38719941D01*
X83775612Y-38607754D01*
X83782744Y-38454446D01*
X83783313Y-38376636D01*
X83781378Y-38283353D01*
X83605101Y-38283353D01*
X83603056Y-38333396D01*
X83597961Y-38341592D01*
X83564334Y-38330458D01*
X83491970Y-38300993D01*
X83395253Y-38259101D01*
X83375027Y-38250097D01*
X83252797Y-38187942D01*
X83185453Y-38133315D01*
X83170652Y-38082149D01*
X83206053Y-38030376D01*
X83235289Y-38007500D01*
X83340784Y-37961750D01*
X83439524Y-37969308D01*
X83522188Y-38025151D01*
X83579452Y-38124253D01*
X83597812Y-38202914D01*
X83605101Y-38283353D01*
X83781378Y-38283353D01*
X83779541Y-38194851D01*
X83765641Y-38060353D01*
X83738106Y-37962416D01*
X83693428Y-37890311D01*
X83628099Y-37833313D01*
X83599617Y-37814893D01*
X83470237Y-37766922D01*
X83328588Y-37763903D01*
X83191561Y-37802040D01*
G37*
X83191561Y-37802040D02*
X83076050Y-37877534D01*
X83020336Y-37945117D01*
X82976196Y-38067755D01*
X82972691Y-38164798D01*
X82980632Y-38294556D01*
X83279885Y-38425539D01*
X83425389Y-38492458D01*
X83520463Y-38546290D01*
X83569899Y-38592916D01*
X83578489Y-38638220D01*
X83551028Y-38688082D01*
X83520747Y-38721132D01*
X83432637Y-38774133D01*
X83336804Y-38777847D01*
X83248788Y-38736541D01*
X83184131Y-38654483D01*
X83172567Y-38625508D01*
X83117175Y-38535009D01*
X83053447Y-38496440D01*
X82966034Y-38463446D01*
X82966034Y-38588534D01*
X82973762Y-38673656D01*
X83004034Y-38745438D01*
X83067482Y-38827856D01*
X83076912Y-38838566D01*
X83147487Y-38911891D01*
X83208153Y-38951242D01*
X83284050Y-38969345D01*
X83346970Y-38975274D01*
X83459513Y-38976751D01*
X83539630Y-38958035D01*
X83589610Y-38930247D01*
X83668162Y-38869141D01*
X83722537Y-38803054D01*
X83756948Y-38719941D01*
X83775612Y-38607754D01*
X83782744Y-38454446D01*
X83783313Y-38376636D01*
X83781378Y-38283353D01*
X83605101Y-38283353D01*
X83603056Y-38333396D01*
X83597961Y-38341592D01*
X83564334Y-38330458D01*
X83491970Y-38300993D01*
X83395253Y-38259101D01*
X83375027Y-38250097D01*
X83252797Y-38187942D01*
X83185453Y-38133315D01*
X83170652Y-38082149D01*
X83206053Y-38030376D01*
X83235289Y-38007500D01*
X83340784Y-37961750D01*
X83439524Y-37969308D01*
X83522188Y-38025151D01*
X83579452Y-38124253D01*
X83597812Y-38202914D01*
X83605101Y-38283353D01*
X83781378Y-38283353D01*
X83779541Y-38194851D01*
X83765641Y-38060353D01*
X83738106Y-37962416D01*
X83693428Y-37890311D01*
X83628099Y-37833313D01*
X83599617Y-37814893D01*
X83470237Y-37766922D01*
X83328588Y-37763903D01*
X83191561Y-37802040D01*
G36*
X84199310Y-37785518D02*
G01*
X84164415Y-37800769D01*
X84081123Y-37866735D01*
X84009897Y-37962118D01*
X83965847Y-38063906D01*
X83958678Y-38114087D01*
X83982715Y-38184147D01*
X84035439Y-38221217D01*
X84091969Y-38243664D01*
X84117854Y-38247800D01*
X84130458Y-38217783D01*
X84155346Y-38152461D01*
X84166265Y-38122945D01*
X84227492Y-38020848D01*
X84316139Y-37969923D01*
X84429807Y-37971489D01*
X84438226Y-37973494D01*
X84498912Y-38002267D01*
X84543526Y-38058359D01*
X84573998Y-38148663D01*
X84592256Y-38280071D01*
X84600229Y-38459474D01*
X84600977Y-38554933D01*
X84601348Y-38705413D01*
X84603777Y-38807995D01*
X84610240Y-38873172D01*
X84622712Y-38911438D01*
X84643167Y-38933285D01*
X84673581Y-38949207D01*
X84675339Y-38950009D01*
X84733909Y-38974772D01*
X84762925Y-38983891D01*
X84767384Y-38956322D01*
X84771201Y-38880120D01*
X84774101Y-38765041D01*
X84775809Y-38620841D01*
X84776149Y-38515314D01*
X84774412Y-38311113D01*
X84767618Y-38156197D01*
X84753393Y-38041524D01*
X84729362Y-37958051D01*
X84693152Y-37896736D01*
X84642388Y-37848534D01*
X84592261Y-37814893D01*
X84471725Y-37770119D01*
X84331443Y-37760021D01*
X84199310Y-37785518D01*
G37*
X84199310Y-37785518D02*
X84164415Y-37800769D01*
X84081123Y-37866735D01*
X84009897Y-37962118D01*
X83965847Y-38063906D01*
X83958678Y-38114087D01*
X83982715Y-38184147D01*
X84035439Y-38221217D01*
X84091969Y-38243664D01*
X84117854Y-38247800D01*
X84130458Y-38217783D01*
X84155346Y-38152461D01*
X84166265Y-38122945D01*
X84227492Y-38020848D01*
X84316139Y-37969923D01*
X84429807Y-37971489D01*
X84438226Y-37973494D01*
X84498912Y-38002267D01*
X84543526Y-38058359D01*
X84573998Y-38148663D01*
X84592256Y-38280071D01*
X84600229Y-38459474D01*
X84600977Y-38554933D01*
X84601348Y-38705413D01*
X84603777Y-38807995D01*
X84610240Y-38873172D01*
X84622712Y-38911438D01*
X84643167Y-38933285D01*
X84673581Y-38949207D01*
X84675339Y-38950009D01*
X84733909Y-38974772D01*
X84762925Y-38983891D01*
X84767384Y-38956322D01*
X84771201Y-38880120D01*
X84774101Y-38765041D01*
X84775809Y-38620841D01*
X84776149Y-38515314D01*
X84774412Y-38311113D01*
X84767618Y-38156197D01*
X84753393Y-38041524D01*
X84729362Y-37958051D01*
X84693152Y-37896736D01*
X84642388Y-37848534D01*
X84592261Y-37814893D01*
X84471725Y-37770119D01*
X84331443Y-37760021D01*
X84199310Y-37785518D01*
G36*
X85220594Y-37780656D02*
G01*
X85136531Y-37818893D01*
X85070550Y-37865226D01*
X85022206Y-37917032D01*
X84988828Y-37983863D01*
X84967747Y-38075269D01*
X84956293Y-38200801D01*
X84951797Y-38370008D01*
X84951322Y-38481433D01*
X84951322Y-38916127D01*
X85025684Y-38950009D01*
X85084254Y-38974772D01*
X85113270Y-38983891D01*
X85118821Y-38956757D01*
X85123225Y-38883594D01*
X85125922Y-38776763D01*
X85126494Y-38691937D01*
X85128954Y-38569387D01*
X85135588Y-38472168D01*
X85145274Y-38412634D01*
X85152968Y-38399983D01*
X85204689Y-38412902D01*
X85285883Y-38446039D01*
X85379898Y-38490961D01*
X85470083Y-38539235D01*
X85539785Y-38582428D01*
X85572352Y-38612108D01*
X85572481Y-38612429D01*
X85569680Y-38667357D01*
X85544561Y-38719792D01*
X85500459Y-38762381D01*
X85436091Y-38776626D01*
X85381079Y-38774966D01*
X85303165Y-38773745D01*
X85262268Y-38791998D01*
X85237705Y-38840226D01*
X85234608Y-38849320D01*
X85223960Y-38918098D01*
X85252435Y-38959860D01*
X85326656Y-38979763D01*
X85406832Y-38983444D01*
X85551110Y-38956158D01*
X85625797Y-38917190D01*
X85718037Y-38825648D01*
X85766957Y-38713282D01*
X85771346Y-38594551D01*
X85729999Y-38483911D01*
X85667803Y-38414580D01*
X85605706Y-38375765D01*
X85508105Y-38326625D01*
X85394368Y-38276792D01*
X85375410Y-38269177D01*
X85250479Y-38214045D01*
X85178461Y-38165454D01*
X85155300Y-38117147D01*
X85176936Y-38062870D01*
X85214080Y-38020443D01*
X85301873Y-37968202D01*
X85398470Y-37964284D01*
X85487056Y-38004541D01*
X85550814Y-38084826D01*
X85559183Y-38105540D01*
X85607904Y-38181725D01*
X85679035Y-38238285D01*
X85768793Y-38284701D01*
X85768793Y-38153084D01*
X85763510Y-38072668D01*
X85740858Y-38009286D01*
X85690633Y-37941663D01*
X85642418Y-37889576D01*
X85567446Y-37815822D01*
X85509194Y-37776202D01*
X85446628Y-37760310D01*
X85375807Y-37757684D01*
X85220594Y-37780656D01*
G37*
X85220594Y-37780656D02*
X85136531Y-37818893D01*
X85070550Y-37865226D01*
X85022206Y-37917032D01*
X84988828Y-37983863D01*
X84967747Y-38075269D01*
X84956293Y-38200801D01*
X84951797Y-38370008D01*
X84951322Y-38481433D01*
X84951322Y-38916127D01*
X85025684Y-38950009D01*
X85084254Y-38974772D01*
X85113270Y-38983891D01*
X85118821Y-38956757D01*
X85123225Y-38883594D01*
X85125922Y-38776763D01*
X85126494Y-38691937D01*
X85128954Y-38569387D01*
X85135588Y-38472168D01*
X85145274Y-38412634D01*
X85152968Y-38399983D01*
X85204689Y-38412902D01*
X85285883Y-38446039D01*
X85379898Y-38490961D01*
X85470083Y-38539235D01*
X85539785Y-38582428D01*
X85572352Y-38612108D01*
X85572481Y-38612429D01*
X85569680Y-38667357D01*
X85544561Y-38719792D01*
X85500459Y-38762381D01*
X85436091Y-38776626D01*
X85381079Y-38774966D01*
X85303165Y-38773745D01*
X85262268Y-38791998D01*
X85237705Y-38840226D01*
X85234608Y-38849320D01*
X85223960Y-38918098D01*
X85252435Y-38959860D01*
X85326656Y-38979763D01*
X85406832Y-38983444D01*
X85551110Y-38956158D01*
X85625797Y-38917190D01*
X85718037Y-38825648D01*
X85766957Y-38713282D01*
X85771346Y-38594551D01*
X85729999Y-38483911D01*
X85667803Y-38414580D01*
X85605706Y-38375765D01*
X85508105Y-38326625D01*
X85394368Y-38276792D01*
X85375410Y-38269177D01*
X85250479Y-38214045D01*
X85178461Y-38165454D01*
X85155300Y-38117147D01*
X85176936Y-38062870D01*
X85214080Y-38020443D01*
X85301873Y-37968202D01*
X85398470Y-37964284D01*
X85487056Y-38004541D01*
X85550814Y-38084826D01*
X85559183Y-38105540D01*
X85607904Y-38181725D01*
X85679035Y-38238285D01*
X85768793Y-38284701D01*
X85768793Y-38153084D01*
X85763510Y-38072668D01*
X85740858Y-38009286D01*
X85690633Y-37941663D01*
X85642418Y-37889576D01*
X85567446Y-37815822D01*
X85509194Y-37776202D01*
X85446628Y-37760310D01*
X85375807Y-37757684D01*
X85220594Y-37780656D01*
G36*
X85954876Y-37785340D02*
G01*
X85950421Y-37862153D01*
X85946929Y-37978891D01*
X85944685Y-38126321D01*
X85943965Y-38280955D01*
X85943965Y-38804227D01*
X86036355Y-38896617D01*
X86100022Y-38953547D01*
X86155911Y-38976607D01*
X86232298Y-38975147D01*
X86262620Y-38971434D01*
X86357390Y-38960626D01*
X86435778Y-38954433D01*
X86454885Y-38953861D01*
X86519301Y-38957602D01*
X86611429Y-38966994D01*
X86647150Y-38971434D01*
X86734886Y-38978301D01*
X86793847Y-38963385D01*
X86852310Y-38917335D01*
X86873415Y-38896617D01*
X86965805Y-38804227D01*
X86965805Y-37825447D01*
X86891442Y-37791566D01*
X86827410Y-37766470D01*
X86789948Y-37757684D01*
X86780343Y-37785450D01*
X86771365Y-37863030D01*
X86763614Y-37981848D01*
X86757686Y-38133328D01*
X86754827Y-38261305D01*
X86746839Y-38764925D01*
X86677152Y-38774778D01*
X86613771Y-38767889D01*
X86582714Y-38745583D01*
X86574033Y-38703879D01*
X86566622Y-38615044D01*
X86561069Y-38490334D01*
X86557964Y-38341007D01*
X86557516Y-38264161D01*
X86557069Y-37821787D01*
X86465126Y-37789735D01*
X86400051Y-37767943D01*
X86364653Y-37757781D01*
X86363632Y-37757684D01*
X86360080Y-37785309D01*
X86356177Y-37861911D01*
X86352249Y-37978079D01*
X86348624Y-38124404D01*
X86346092Y-38261305D01*
X86338103Y-38764925D01*
X86162931Y-38764925D01*
X86154893Y-38305465D01*
X86146854Y-37846005D01*
X86061457Y-37801844D01*
X85998407Y-37771519D01*
X85961090Y-37757758D01*
X85960013Y-37757684D01*
X85954876Y-37785340D01*
G37*
X85954876Y-37785340D02*
X85950421Y-37862153D01*
X85946929Y-37978891D01*
X85944685Y-38126321D01*
X85943965Y-38280955D01*
X85943965Y-38804227D01*
X86036355Y-38896617D01*
X86100022Y-38953547D01*
X86155911Y-38976607D01*
X86232298Y-38975147D01*
X86262620Y-38971434D01*
X86357390Y-38960626D01*
X86435778Y-38954433D01*
X86454885Y-38953861D01*
X86519301Y-38957602D01*
X86611429Y-38966994D01*
X86647150Y-38971434D01*
X86734886Y-38978301D01*
X86793847Y-38963385D01*
X86852310Y-38917335D01*
X86873415Y-38896617D01*
X86965805Y-38804227D01*
X86965805Y-37825447D01*
X86891442Y-37791566D01*
X86827410Y-37766470D01*
X86789948Y-37757684D01*
X86780343Y-37785450D01*
X86771365Y-37863030D01*
X86763614Y-37981848D01*
X86757686Y-38133328D01*
X86754827Y-38261305D01*
X86746839Y-38764925D01*
X86677152Y-38774778D01*
X86613771Y-38767889D01*
X86582714Y-38745583D01*
X86574033Y-38703879D01*
X86566622Y-38615044D01*
X86561069Y-38490334D01*
X86557964Y-38341007D01*
X86557516Y-38264161D01*
X86557069Y-37821787D01*
X86465126Y-37789735D01*
X86400051Y-37767943D01*
X86364653Y-37757781D01*
X86363632Y-37757684D01*
X86360080Y-37785309D01*
X86356177Y-37861911D01*
X86352249Y-37978079D01*
X86348624Y-38124404D01*
X86346092Y-38261305D01*
X86338103Y-38764925D01*
X86162931Y-38764925D01*
X86154893Y-38305465D01*
X86146854Y-37846005D01*
X86061457Y-37801844D01*
X85998407Y-37771519D01*
X85961090Y-37757758D01*
X85960013Y-37757684D01*
X85954876Y-37785340D01*
G36*
X87141086Y-37999955D02*
G01*
X87141457Y-38218161D01*
X87142892Y-38386019D01*
X87145998Y-38511570D01*
X87151378Y-38602855D01*
X87159638Y-38667915D01*
X87171384Y-38714791D01*
X87187219Y-38751524D01*
X87199210Y-38772491D01*
X87298510Y-38886194D01*
X87424412Y-38957465D01*
X87563709Y-38983038D01*
X87703195Y-38959650D01*
X87786257Y-38917619D01*
X87873455Y-38844911D01*
X87932883Y-38756112D01*
X87968739Y-38639820D01*
X87985219Y-38484635D01*
X87987553Y-38370787D01*
X87987239Y-38362606D01*
X87783276Y-38362606D01*
X87782030Y-38493157D01*
X87776322Y-38579580D01*
X87763196Y-38636118D01*
X87739694Y-38677014D01*
X87711614Y-38707862D01*
X87617312Y-38767405D01*
X87516060Y-38772492D01*
X87420364Y-38722779D01*
X87412916Y-38716043D01*
X87381126Y-38681002D01*
X87361192Y-38639311D01*
X87350400Y-38577262D01*
X87346035Y-38481144D01*
X87345345Y-38374879D01*
X87346841Y-38241380D01*
X87353036Y-38152322D01*
X87366486Y-38093793D01*
X87389749Y-38051882D01*
X87408825Y-38029623D01*
X87497437Y-37973485D01*
X87599492Y-37966735D01*
X87696905Y-38009614D01*
X87715704Y-38025532D01*
X87747707Y-38060882D01*
X87767682Y-38103002D01*
X87778407Y-38165751D01*
X87782661Y-38262987D01*
X87783276Y-38362606D01*
X87987239Y-38362606D01*
X87980496Y-38187447D01*
X87956528Y-38049695D01*
X87911452Y-37946132D01*
X87841072Y-37865356D01*
X87786257Y-37823955D01*
X87686624Y-37779228D01*
X87571145Y-37758467D01*
X87463801Y-37764025D01*
X87403736Y-37786443D01*
X87380165Y-37792823D01*
X87364523Y-37769035D01*
X87353605Y-37705288D01*
X87345345Y-37608187D01*
X87336301Y-37500041D01*
X87323739Y-37434975D01*
X87300881Y-37397768D01*
X87260949Y-37373199D01*
X87235862Y-37362319D01*
X87140977Y-37322572D01*
X87141086Y-37999955D01*
G37*
X87141086Y-37999955D02*
X87141457Y-38218161D01*
X87142892Y-38386019D01*
X87145998Y-38511570D01*
X87151378Y-38602855D01*
X87159638Y-38667915D01*
X87171384Y-38714791D01*
X87187219Y-38751524D01*
X87199210Y-38772491D01*
X87298510Y-38886194D01*
X87424412Y-38957465D01*
X87563709Y-38983038D01*
X87703195Y-38959650D01*
X87786257Y-38917619D01*
X87873455Y-38844911D01*
X87932883Y-38756112D01*
X87968739Y-38639820D01*
X87985219Y-38484635D01*
X87987553Y-38370787D01*
X87987239Y-38362606D01*
X87783276Y-38362606D01*
X87782030Y-38493157D01*
X87776322Y-38579580D01*
X87763196Y-38636118D01*
X87739694Y-38677014D01*
X87711614Y-38707862D01*
X87617312Y-38767405D01*
X87516060Y-38772492D01*
X87420364Y-38722779D01*
X87412916Y-38716043D01*
X87381126Y-38681002D01*
X87361192Y-38639311D01*
X87350400Y-38577262D01*
X87346035Y-38481144D01*
X87345345Y-38374879D01*
X87346841Y-38241380D01*
X87353036Y-38152322D01*
X87366486Y-38093793D01*
X87389749Y-38051882D01*
X87408825Y-38029623D01*
X87497437Y-37973485D01*
X87599492Y-37966735D01*
X87696905Y-38009614D01*
X87715704Y-38025532D01*
X87747707Y-38060882D01*
X87767682Y-38103002D01*
X87778407Y-38165751D01*
X87782661Y-38262987D01*
X87783276Y-38362606D01*
X87987239Y-38362606D01*
X87980496Y-38187447D01*
X87956528Y-38049695D01*
X87911452Y-37946132D01*
X87841072Y-37865356D01*
X87786257Y-37823955D01*
X87686624Y-37779228D01*
X87571145Y-37758467D01*
X87463801Y-37764025D01*
X87403736Y-37786443D01*
X87380165Y-37792823D01*
X87364523Y-37769035D01*
X87353605Y-37705288D01*
X87345345Y-37608187D01*
X87336301Y-37500041D01*
X87323739Y-37434975D01*
X87300881Y-37397768D01*
X87260949Y-37373199D01*
X87235862Y-37362319D01*
X87140977Y-37322572D01*
X87141086Y-37999955D01*
G36*
X88469057Y-37767420D02*
G01*
X88336435Y-37816359D01*
X88228990Y-37902919D01*
X88186968Y-37963852D01*
X88141157Y-38075661D01*
X88142109Y-38156506D01*
X88190192Y-38210878D01*
X88207983Y-38220124D01*
X88284796Y-38248950D01*
X88324024Y-38241565D01*
X88337311Y-38193158D01*
X88337988Y-38166420D01*
X88362314Y-38068048D01*
X88425719Y-37999234D01*
X88513846Y-37965998D01*
X88612337Y-37974361D01*
X88692398Y-38017796D01*
X88719439Y-38042572D01*
X88738606Y-38072629D01*
X88751554Y-38118065D01*
X88759936Y-38188976D01*
X88765407Y-38295460D01*
X88769622Y-38447612D01*
X88770713Y-38495787D01*
X88774693Y-38660595D01*
X88779219Y-38776588D01*
X88786005Y-38853333D01*
X88796769Y-38900393D01*
X88813227Y-38927335D01*
X88837094Y-38943723D01*
X88852374Y-38950963D01*
X88917267Y-38975720D01*
X88955466Y-38983891D01*
X88968088Y-38956603D01*
X88975792Y-38874103D01*
X88978620Y-38735441D01*
X88976614Y-38539662D01*
X88975989Y-38509465D01*
X88971579Y-38330849D01*
X88966365Y-38200423D01*
X88958945Y-38107992D01*
X88947918Y-38043358D01*
X88931883Y-37996325D01*
X88909439Y-37956696D01*
X88897698Y-37939715D01*
X88830381Y-37864580D01*
X88755090Y-37806138D01*
X88745872Y-37801036D01*
X88610867Y-37760760D01*
X88469057Y-37767420D01*
G37*
X88469057Y-37767420D02*
X88336435Y-37816359D01*
X88228990Y-37902919D01*
X88186968Y-37963852D01*
X88141157Y-38075661D01*
X88142109Y-38156506D01*
X88190192Y-38210878D01*
X88207983Y-38220124D01*
X88284796Y-38248950D01*
X88324024Y-38241565D01*
X88337311Y-38193158D01*
X88337988Y-38166420D01*
X88362314Y-38068048D01*
X88425719Y-37999234D01*
X88513846Y-37965998D01*
X88612337Y-37974361D01*
X88692398Y-38017796D01*
X88719439Y-38042572D01*
X88738606Y-38072629D01*
X88751554Y-38118065D01*
X88759936Y-38188976D01*
X88765407Y-38295460D01*
X88769622Y-38447612D01*
X88770713Y-38495787D01*
X88774693Y-38660595D01*
X88779219Y-38776588D01*
X88786005Y-38853333D01*
X88796769Y-38900393D01*
X88813227Y-38927335D01*
X88837094Y-38943723D01*
X88852374Y-38950963D01*
X88917267Y-38975720D01*
X88955466Y-38983891D01*
X88968088Y-38956603D01*
X88975792Y-38874103D01*
X88978620Y-38735441D01*
X88976614Y-38539662D01*
X88975989Y-38509465D01*
X88971579Y-38330849D01*
X88966365Y-38200423D01*
X88958945Y-38107992D01*
X88947918Y-38043358D01*
X88931883Y-37996325D01*
X88909439Y-37956696D01*
X88897698Y-37939715D01*
X88830381Y-37864580D01*
X88755090Y-37806138D01*
X88745872Y-37801036D01*
X88610867Y-37760760D01*
X88469057Y-37767420D01*
G36*
X89455056Y-37769860D02*
G01*
X89340657Y-37812342D01*
X89339348Y-37813158D01*
X89268597Y-37865230D01*
X89216364Y-37926084D01*
X89179629Y-38005387D01*
X89155366Y-38112809D01*
X89140555Y-38258017D01*
X89132171Y-38450679D01*
X89131436Y-38478128D01*
X89120880Y-38892021D01*
X89209709Y-38937956D01*
X89273982Y-38968998D01*
X89312790Y-38983706D01*
X89314585Y-38983891D01*
X89321300Y-38956750D01*
X89326635Y-38883541D01*
X89329917Y-38776581D01*
X89330632Y-38689969D01*
X89330649Y-38549662D01*
X89337063Y-38461551D01*
X89359420Y-38419525D01*
X89407268Y-38417475D01*
X89490151Y-38449290D01*
X89615287Y-38507772D01*
X89707303Y-38556345D01*
X89754629Y-38598486D01*
X89768542Y-38644416D01*
X89768563Y-38646689D01*
X89745605Y-38725811D01*
X89677630Y-38768555D01*
X89573602Y-38774746D01*
X89498670Y-38773672D01*
X89459161Y-38795253D01*
X89434522Y-38847091D01*
X89420341Y-38913132D01*
X89440777Y-38950604D01*
X89448472Y-38955967D01*
X89520917Y-38977506D01*
X89622367Y-38980555D01*
X89726843Y-38966278D01*
X89800875Y-38940188D01*
X89903228Y-38853285D01*
X89961409Y-38732316D01*
X89972931Y-38637808D01*
X89964138Y-38552562D01*
X89932320Y-38482976D01*
X89869316Y-38421172D01*
X89766969Y-38359272D01*
X89617118Y-38289397D01*
X89607988Y-38285448D01*
X89473003Y-38223088D01*
X89389706Y-38171946D01*
X89354003Y-38125988D01*
X89361797Y-38079183D01*
X89408993Y-38025498D01*
X89423106Y-38013144D01*
X89517641Y-37965241D01*
X89615594Y-37967258D01*
X89700903Y-38014224D01*
X89757504Y-38101169D01*
X89762763Y-38118234D01*
X89813977Y-38201004D01*
X89878963Y-38240872D01*
X89972931Y-38280382D01*
X89972931Y-38178158D01*
X89944347Y-38029572D01*
X89859505Y-37893284D01*
X89815355Y-37847691D01*
X89714995Y-37789174D01*
X89587365Y-37762684D01*
X89455056Y-37769860D01*
G37*
X89455056Y-37769860D02*
X89340657Y-37812342D01*
X89339348Y-37813158D01*
X89268597Y-37865230D01*
X89216364Y-37926084D01*
X89179629Y-38005387D01*
X89155366Y-38112809D01*
X89140555Y-38258017D01*
X89132171Y-38450679D01*
X89131436Y-38478128D01*
X89120880Y-38892021D01*
X89209709Y-38937956D01*
X89273982Y-38968998D01*
X89312790Y-38983706D01*
X89314585Y-38983891D01*
X89321300Y-38956750D01*
X89326635Y-38883541D01*
X89329917Y-38776581D01*
X89330632Y-38689969D01*
X89330649Y-38549662D01*
X89337063Y-38461551D01*
X89359420Y-38419525D01*
X89407268Y-38417475D01*
X89490151Y-38449290D01*
X89615287Y-38507772D01*
X89707303Y-38556345D01*
X89754629Y-38598486D01*
X89768542Y-38644416D01*
X89768563Y-38646689D01*
X89745605Y-38725811D01*
X89677630Y-38768555D01*
X89573602Y-38774746D01*
X89498670Y-38773672D01*
X89459161Y-38795253D01*
X89434522Y-38847091D01*
X89420341Y-38913132D01*
X89440777Y-38950604D01*
X89448472Y-38955967D01*
X89520917Y-38977506D01*
X89622367Y-38980555D01*
X89726843Y-38966278D01*
X89800875Y-38940188D01*
X89903228Y-38853285D01*
X89961409Y-38732316D01*
X89972931Y-38637808D01*
X89964138Y-38552562D01*
X89932320Y-38482976D01*
X89869316Y-38421172D01*
X89766969Y-38359272D01*
X89617118Y-38289397D01*
X89607988Y-38285448D01*
X89473003Y-38223088D01*
X89389706Y-38171946D01*
X89354003Y-38125988D01*
X89361797Y-38079183D01*
X89408993Y-38025498D01*
X89423106Y-38013144D01*
X89517641Y-37965241D01*
X89615594Y-37967258D01*
X89700903Y-38014224D01*
X89757504Y-38101169D01*
X89762763Y-38118234D01*
X89813977Y-38201004D01*
X89878963Y-38240872D01*
X89972931Y-38280382D01*
X89972931Y-38178158D01*
X89944347Y-38029572D01*
X89859505Y-37893284D01*
X89815355Y-37847691D01*
X89714995Y-37789174D01*
X89587365Y-37762684D01*
X89455056Y-37769860D01*
G36*
X90790402Y-37569357D02*
G01*
X90781846Y-37688688D01*
X90772019Y-37759006D01*
X90758401Y-37789679D01*
X90738473Y-37790071D01*
X90732011Y-37786410D01*
X90646060Y-37759898D01*
X90534255Y-37761446D01*
X90420586Y-37788699D01*
X90349490Y-37823955D01*
X90276595Y-37880278D01*
X90223307Y-37944019D01*
X90186725Y-38025010D01*
X90163950Y-38133086D01*
X90152081Y-38278080D01*
X90148218Y-38469826D01*
X90148149Y-38506609D01*
X90148103Y-38919788D01*
X90240046Y-38951839D01*
X90305348Y-38973644D01*
X90341176Y-38983797D01*
X90342230Y-38983891D01*
X90345758Y-38956360D01*
X90348761Y-38880423D01*
X90351010Y-38766065D01*
X90352276Y-38623269D01*
X90352471Y-38536451D01*
X90352877Y-38365273D01*
X90354968Y-38242588D01*
X90360053Y-38158500D01*
X90369440Y-38103114D01*
X90384439Y-38066532D01*
X90406358Y-38038859D01*
X90420043Y-38025532D01*
X90514051Y-37971828D01*
X90616636Y-37967807D01*
X90709710Y-38013225D01*
X90726922Y-38029623D01*
X90752168Y-38060457D01*
X90769680Y-38097031D01*
X90780858Y-38149915D01*
X90787104Y-38229677D01*
X90789818Y-38346885D01*
X90790402Y-38508491D01*
X90790402Y-38919788D01*
X90882345Y-38951839D01*
X90947647Y-38973644D01*
X90983475Y-38983797D01*
X90984529Y-38983891D01*
X90987225Y-38955948D01*
X90989655Y-38877130D01*
X90991722Y-38754953D01*
X90993329Y-38596932D01*
X90994377Y-38410583D01*
X90994769Y-38203420D01*
X90994770Y-38194206D01*
X90994770Y-37404520D01*
X90899885Y-37364497D01*
X90805000Y-37324473D01*
X90790402Y-37569357D01*
G37*
X90790402Y-37569357D02*
X90781846Y-37688688D01*
X90772019Y-37759006D01*
X90758401Y-37789679D01*
X90738473Y-37790071D01*
X90732011Y-37786410D01*
X90646060Y-37759898D01*
X90534255Y-37761446D01*
X90420586Y-37788699D01*
X90349490Y-37823955D01*
X90276595Y-37880278D01*
X90223307Y-37944019D01*
X90186725Y-38025010D01*
X90163950Y-38133086D01*
X90152081Y-38278080D01*
X90148218Y-38469826D01*
X90148149Y-38506609D01*
X90148103Y-38919788D01*
X90240046Y-38951839D01*
X90305348Y-38973644D01*
X90341176Y-38983797D01*
X90342230Y-38983891D01*
X90345758Y-38956360D01*
X90348761Y-38880423D01*
X90351010Y-38766065D01*
X90352276Y-38623269D01*
X90352471Y-38536451D01*
X90352877Y-38365273D01*
X90354968Y-38242588D01*
X90360053Y-38158500D01*
X90369440Y-38103114D01*
X90384439Y-38066532D01*
X90406358Y-38038859D01*
X90420043Y-38025532D01*
X90514051Y-37971828D01*
X90616636Y-37967807D01*
X90709710Y-38013225D01*
X90726922Y-38029623D01*
X90752168Y-38060457D01*
X90769680Y-38097031D01*
X90780858Y-38149915D01*
X90787104Y-38229677D01*
X90789818Y-38346885D01*
X90790402Y-38508491D01*
X90790402Y-38919788D01*
X90882345Y-38951839D01*
X90947647Y-38973644D01*
X90983475Y-38983797D01*
X90984529Y-38983891D01*
X90987225Y-38955948D01*
X90989655Y-38877130D01*
X90991722Y-38754953D01*
X90993329Y-38596932D01*
X90994377Y-38410583D01*
X90994769Y-38203420D01*
X90994770Y-38194206D01*
X90994770Y-37404520D01*
X90899885Y-37364497D01*
X90805000Y-37324473D01*
X90790402Y-37569357D01*
G36*
X93219448Y-37730176D02*
G01*
X93104342Y-37807611D01*
X93015389Y-37919449D01*
X92962251Y-38061765D01*
X92951503Y-38166515D01*
X92952724Y-38210226D01*
X92962944Y-38243694D01*
X92991039Y-38273679D01*
X93045884Y-38306940D01*
X93136355Y-38350238D01*
X93271328Y-38410333D01*
X93272011Y-38410634D01*
X93396249Y-38467537D01*
X93498127Y-38518065D01*
X93567233Y-38556780D01*
X93593154Y-38578240D01*
X93593161Y-38578413D01*
X93570315Y-38625144D01*
X93516891Y-38676654D01*
X93455558Y-38713761D01*
X93424485Y-38721132D01*
X93339711Y-38695638D01*
X93266707Y-38631791D01*
X93231087Y-38561594D01*
X93196820Y-38509843D01*
X93129697Y-38450909D01*
X93050792Y-38399996D01*
X92981179Y-38372309D01*
X92966623Y-38370787D01*
X92950237Y-38395821D01*
X92949250Y-38459811D01*
X92961292Y-38546093D01*
X92983993Y-38638001D01*
X93014986Y-38718869D01*
X93016552Y-38722009D01*
X93109819Y-38852234D01*
X93230696Y-38940811D01*
X93367973Y-38984286D01*
X93510440Y-38979206D01*
X93646888Y-38922116D01*
X93652955Y-38918102D01*
X93760290Y-38820826D01*
X93830868Y-38693909D01*
X93869926Y-38527026D01*
X93875168Y-38480139D01*
X93884452Y-38258829D01*
X93873322Y-38155624D01*
X93593161Y-38155624D01*
X93589521Y-38220003D01*
X93569611Y-38238791D01*
X93519974Y-38224735D01*
X93441733Y-38191509D01*
X93354274Y-38149859D01*
X93352101Y-38148756D01*
X93277970Y-38109765D01*
X93248219Y-38083744D01*
X93255555Y-38056465D01*
X93286447Y-38020621D01*
X93365040Y-37968751D01*
X93449677Y-37964939D01*
X93525597Y-38002689D01*
X93578035Y-38075501D01*
X93593161Y-38155624D01*
X93873322Y-38155624D01*
X93865356Y-38081761D01*
X93816366Y-37941329D01*
X93748164Y-37842947D01*
X93625065Y-37743530D01*
X93489472Y-37694211D01*
X93351045Y-37691068D01*
X93219448Y-37730176D01*
G37*
X93219448Y-37730176D02*
X93104342Y-37807611D01*
X93015389Y-37919449D01*
X92962251Y-38061765D01*
X92951503Y-38166515D01*
X92952724Y-38210226D01*
X92962944Y-38243694D01*
X92991039Y-38273679D01*
X93045884Y-38306940D01*
X93136355Y-38350238D01*
X93271328Y-38410333D01*
X93272011Y-38410634D01*
X93396249Y-38467537D01*
X93498127Y-38518065D01*
X93567233Y-38556780D01*
X93593154Y-38578240D01*
X93593161Y-38578413D01*
X93570315Y-38625144D01*
X93516891Y-38676654D01*
X93455558Y-38713761D01*
X93424485Y-38721132D01*
X93339711Y-38695638D01*
X93266707Y-38631791D01*
X93231087Y-38561594D01*
X93196820Y-38509843D01*
X93129697Y-38450909D01*
X93050792Y-38399996D01*
X92981179Y-38372309D01*
X92966623Y-38370787D01*
X92950237Y-38395821D01*
X92949250Y-38459811D01*
X92961292Y-38546093D01*
X92983993Y-38638001D01*
X93014986Y-38718869D01*
X93016552Y-38722009D01*
X93109819Y-38852234D01*
X93230696Y-38940811D01*
X93367973Y-38984286D01*
X93510440Y-38979206D01*
X93646888Y-38922116D01*
X93652955Y-38918102D01*
X93760290Y-38820826D01*
X93830868Y-38693909D01*
X93869926Y-38527026D01*
X93875168Y-38480139D01*
X93884452Y-38258829D01*
X93873322Y-38155624D01*
X93593161Y-38155624D01*
X93589521Y-38220003D01*
X93569611Y-38238791D01*
X93519974Y-38224735D01*
X93441733Y-38191509D01*
X93354274Y-38149859D01*
X93352101Y-38148756D01*
X93277970Y-38109765D01*
X93248219Y-38083744D01*
X93255555Y-38056465D01*
X93286447Y-38020621D01*
X93365040Y-37968751D01*
X93449677Y-37964939D01*
X93525597Y-38002689D01*
X93578035Y-38075501D01*
X93593161Y-38155624D01*
X93873322Y-38155624D01*
X93865356Y-38081761D01*
X93816366Y-37941329D01*
X93748164Y-37842947D01*
X93625065Y-37743530D01*
X93489472Y-37694211D01*
X93351045Y-37691068D01*
X93219448Y-37730176D01*
G36*
X95486779Y-37711515D02*
G01*
X95349939Y-37783468D01*
X95248949Y-37899266D01*
X95213075Y-37973713D01*
X95185161Y-38085492D01*
X95170871Y-38226727D01*
X95169516Y-38380871D01*
X95180405Y-38531379D01*
X95202847Y-38661705D01*
X95236150Y-38755303D01*
X95246385Y-38771422D01*
X95367618Y-38891749D01*
X95511613Y-38963817D01*
X95667861Y-38984908D01*
X95825852Y-38952302D01*
X95869820Y-38932753D01*
X95955444Y-38872512D01*
X96030592Y-38792635D01*
X96037694Y-38782504D01*
X96066561Y-38733681D01*
X96085643Y-38681490D01*
X96096916Y-38612785D01*
X96102355Y-38514418D01*
X96103938Y-38373244D01*
X96103965Y-38341592D01*
X96103893Y-38331519D01*
X95812011Y-38331519D01*
X95810313Y-38464756D01*
X95803628Y-38553174D01*
X95789575Y-38610285D01*
X95765771Y-38649602D01*
X95753621Y-38662741D01*
X95683764Y-38712672D01*
X95615941Y-38710395D01*
X95547365Y-38667084D01*
X95506465Y-38620846D01*
X95482242Y-38553357D01*
X95468639Y-38446933D01*
X95467706Y-38434520D01*
X95465384Y-38241647D01*
X95489650Y-38098400D01*
X95540176Y-38005660D01*
X95616632Y-37964307D01*
X95643924Y-37962052D01*
X95715589Y-37973393D01*
X95764610Y-38012684D01*
X95794582Y-38087826D01*
X95809101Y-38206722D01*
X95812011Y-38331519D01*
X96103893Y-38331519D01*
X96102878Y-38191159D01*
X96098312Y-38086049D01*
X96088312Y-38013214D01*
X96070921Y-37959608D01*
X96044184Y-37912181D01*
X96038276Y-37903364D01*
X95938968Y-37784507D01*
X95830758Y-37715508D01*
X95699019Y-37688119D01*
X95654283Y-37686781D01*
X95486779Y-37711515D01*
G37*
X95486779Y-37711515D02*
X95349939Y-37783468D01*
X95248949Y-37899266D01*
X95213075Y-37973713D01*
X95185161Y-38085492D01*
X95170871Y-38226727D01*
X95169516Y-38380871D01*
X95180405Y-38531379D01*
X95202847Y-38661705D01*
X95236150Y-38755303D01*
X95246385Y-38771422D01*
X95367618Y-38891749D01*
X95511613Y-38963817D01*
X95667861Y-38984908D01*
X95825852Y-38952302D01*
X95869820Y-38932753D01*
X95955444Y-38872512D01*
X96030592Y-38792635D01*
X96037694Y-38782504D01*
X96066561Y-38733681D01*
X96085643Y-38681490D01*
X96096916Y-38612785D01*
X96102355Y-38514418D01*
X96103938Y-38373244D01*
X96103965Y-38341592D01*
X96103893Y-38331519D01*
X95812011Y-38331519D01*
X95810313Y-38464756D01*
X95803628Y-38553174D01*
X95789575Y-38610285D01*
X95765771Y-38649602D01*
X95753621Y-38662741D01*
X95683764Y-38712672D01*
X95615941Y-38710395D01*
X95547365Y-38667084D01*
X95506465Y-38620846D01*
X95482242Y-38553357D01*
X95468639Y-38446933D01*
X95467706Y-38434520D01*
X95465384Y-38241647D01*
X95489650Y-38098400D01*
X95540176Y-38005660D01*
X95616632Y-37964307D01*
X95643924Y-37962052D01*
X95715589Y-37973393D01*
X95764610Y-38012684D01*
X95794582Y-38087826D01*
X95809101Y-38206722D01*
X95812011Y-38331519D01*
X96103893Y-38331519D01*
X96102878Y-38191159D01*
X96098312Y-38086049D01*
X96088312Y-38013214D01*
X96070921Y-37959608D01*
X96044184Y-37912181D01*
X96038276Y-37903364D01*
X95938968Y-37784507D01*
X95830758Y-37715508D01*
X95699019Y-37688119D01*
X95654283Y-37686781D01*
X95486779Y-37711515D01*
G36*
X92117571Y-37723219D02*
G01*
X92023877Y-37777414D01*
X91958736Y-37831207D01*
X91911093Y-37887566D01*
X91878272Y-37956487D01*
X91857594Y-38047968D01*
X91846380Y-38172006D01*
X91841951Y-38338598D01*
X91841437Y-38458351D01*
X91841437Y-38899159D01*
X91965517Y-38954783D01*
X92089598Y-39010407D01*
X92104195Y-38527595D01*
X92110227Y-38347279D01*
X92116555Y-38216401D01*
X92124394Y-38126011D01*
X92134963Y-38067164D01*
X92149477Y-38030913D01*
X92169152Y-38008310D01*
X92175465Y-38003417D01*
X92271112Y-37965206D01*
X92367793Y-37980327D01*
X92425345Y-38020443D01*
X92448755Y-38048870D01*
X92464961Y-38086172D01*
X92475259Y-38142723D01*
X92480951Y-38228894D01*
X92483336Y-38355058D01*
X92483736Y-38486542D01*
X92483814Y-38651499D01*
X92486639Y-38768261D01*
X92496093Y-38847010D01*
X92516060Y-38897931D01*
X92550424Y-38931206D01*
X92603068Y-38957020D01*
X92673383Y-38983844D01*
X92750180Y-39013042D01*
X92741038Y-38494846D01*
X92737357Y-38308039D01*
X92733050Y-38169990D01*
X92726877Y-38071068D01*
X92717598Y-38001645D01*
X92703973Y-37952090D01*
X92684761Y-37912773D01*
X92661598Y-37878084D01*
X92549848Y-37767270D01*
X92413487Y-37703189D01*
X92265175Y-37687839D01*
X92117571Y-37723219D01*
G37*
X92117571Y-37723219D02*
X92023877Y-37777414D01*
X91958736Y-37831207D01*
X91911093Y-37887566D01*
X91878272Y-37956487D01*
X91857594Y-38047968D01*
X91846380Y-38172006D01*
X91841951Y-38338598D01*
X91841437Y-38458351D01*
X91841437Y-38899159D01*
X91965517Y-38954783D01*
X92089598Y-39010407D01*
X92104195Y-38527595D01*
X92110227Y-38347279D01*
X92116555Y-38216401D01*
X92124394Y-38126011D01*
X92134963Y-38067164D01*
X92149477Y-38030913D01*
X92169152Y-38008310D01*
X92175465Y-38003417D01*
X92271112Y-37965206D01*
X92367793Y-37980327D01*
X92425345Y-38020443D01*
X92448755Y-38048870D01*
X92464961Y-38086172D01*
X92475259Y-38142723D01*
X92480951Y-38228894D01*
X92483336Y-38355058D01*
X92483736Y-38486542D01*
X92483814Y-38651499D01*
X92486639Y-38768261D01*
X92496093Y-38847010D01*
X92516060Y-38897931D01*
X92550424Y-38931206D01*
X92603068Y-38957020D01*
X92673383Y-38983844D01*
X92750180Y-39013042D01*
X92741038Y-38494846D01*
X92737357Y-38308039D01*
X92733050Y-38169990D01*
X92726877Y-38071068D01*
X92717598Y-38001645D01*
X92703973Y-37952090D01*
X92684761Y-37912773D01*
X92661598Y-37878084D01*
X92549848Y-37767270D01*
X92413487Y-37703189D01*
X92265175Y-37687839D01*
X92117571Y-37723219D01*
G36*
X94363100Y-37707403D02*
G01*
X94251550Y-37763022D01*
X94153092Y-37865431D01*
X94125977Y-37903364D01*
X94096438Y-37953000D01*
X94077272Y-38006912D01*
X94066307Y-38078864D01*
X94061371Y-38182622D01*
X94060287Y-38319601D01*
X94065182Y-38507315D01*
X94082196Y-38648258D01*
X94114823Y-38753408D01*
X94166558Y-38833743D01*
X94240896Y-38900241D01*
X94246358Y-38904178D01*
X94319620Y-38944453D01*
X94407840Y-38964380D01*
X94520038Y-38969293D01*
X94702433Y-38969293D01*
X94702509Y-39146357D01*
X94704207Y-39244970D01*
X94714550Y-39302814D01*
X94741578Y-39337506D01*
X94793332Y-39366664D01*
X94805761Y-39372621D01*
X94863923Y-39400539D01*
X94908956Y-39418172D01*
X94942441Y-39419694D01*
X94965962Y-39399281D01*
X94981100Y-39351107D01*
X94989437Y-39269346D01*
X94992556Y-39148172D01*
X94992040Y-38981760D01*
X94989471Y-38764285D01*
X94988668Y-38699236D01*
X94985778Y-38475002D01*
X94983188Y-38328321D01*
X94702586Y-38328321D01*
X94701009Y-38452826D01*
X94694000Y-38534287D01*
X94678142Y-38588015D01*
X94650019Y-38629323D01*
X94630925Y-38649471D01*
X94552865Y-38708421D01*
X94483753Y-38713220D01*
X94412440Y-38664538D01*
X94410632Y-38662741D01*
X94381617Y-38625118D01*
X94363967Y-38573984D01*
X94355064Y-38495238D01*
X94352291Y-38374776D01*
X94352241Y-38348088D01*
X94358942Y-38182083D01*
X94380752Y-38067005D01*
X94420235Y-37996754D01*
X94479956Y-37965229D01*
X94514472Y-37962052D01*
X94596389Y-37976960D01*
X94652579Y-38026048D01*
X94686402Y-38115862D01*
X94701220Y-38252945D01*
X94702586Y-38328321D01*
X94983188Y-38328321D01*
X94982713Y-38301452D01*
X94978753Y-38170882D01*
X94973174Y-38075587D01*
X94965254Y-38007864D01*
X94954269Y-37960007D01*
X94939499Y-37924313D01*
X94920218Y-37893078D01*
X94911951Y-37881324D01*
X94802288Y-37770297D01*
X94663635Y-37707347D01*
X94503246Y-37689797D01*
X94363100Y-37707403D01*
G37*
X94363100Y-37707403D02*
X94251550Y-37763022D01*
X94153092Y-37865431D01*
X94125977Y-37903364D01*
X94096438Y-37953000D01*
X94077272Y-38006912D01*
X94066307Y-38078864D01*
X94061371Y-38182622D01*
X94060287Y-38319601D01*
X94065182Y-38507315D01*
X94082196Y-38648258D01*
X94114823Y-38753408D01*
X94166558Y-38833743D01*
X94240896Y-38900241D01*
X94246358Y-38904178D01*
X94319620Y-38944453D01*
X94407840Y-38964380D01*
X94520038Y-38969293D01*
X94702433Y-38969293D01*
X94702509Y-39146357D01*
X94704207Y-39244970D01*
X94714550Y-39302814D01*
X94741578Y-39337506D01*
X94793332Y-39366664D01*
X94805761Y-39372621D01*
X94863923Y-39400539D01*
X94908956Y-39418172D01*
X94942441Y-39419694D01*
X94965962Y-39399281D01*
X94981100Y-39351107D01*
X94989437Y-39269346D01*
X94992556Y-39148172D01*
X94992040Y-38981760D01*
X94989471Y-38764285D01*
X94988668Y-38699236D01*
X94985778Y-38475002D01*
X94983188Y-38328321D01*
X94702586Y-38328321D01*
X94701009Y-38452826D01*
X94694000Y-38534287D01*
X94678142Y-38588015D01*
X94650019Y-38629323D01*
X94630925Y-38649471D01*
X94552865Y-38708421D01*
X94483753Y-38713220D01*
X94412440Y-38664538D01*
X94410632Y-38662741D01*
X94381617Y-38625118D01*
X94363967Y-38573984D01*
X94355064Y-38495238D01*
X94352291Y-38374776D01*
X94352241Y-38348088D01*
X94358942Y-38182083D01*
X94380752Y-38067005D01*
X94420235Y-37996754D01*
X94479956Y-37965229D01*
X94514472Y-37962052D01*
X94596389Y-37976960D01*
X94652579Y-38026048D01*
X94686402Y-38115862D01*
X94701220Y-38252945D01*
X94702586Y-38328321D01*
X94983188Y-38328321D01*
X94982713Y-38301452D01*
X94978753Y-38170882D01*
X94973174Y-38075587D01*
X94965254Y-38007864D01*
X94954269Y-37960007D01*
X94939499Y-37924313D01*
X94920218Y-37893078D01*
X94911951Y-37881324D01*
X94802288Y-37770297D01*
X94663635Y-37707347D01*
X94503246Y-37689797D01*
X94363100Y-37707403D01*
D10*
%TO.C,SW1*%
X41611800Y-56008200D02*
X41611800Y-55008200D01*
X41611800Y-55008200D02*
X41411800Y-55008200D01*
X41391800Y-55008200D02*
X41391800Y-52758200D01*
X41411800Y-52758200D02*
X41611800Y-52758200D01*
X31111800Y-55308200D02*
X31311800Y-55308200D01*
X31341800Y-55308200D02*
X31341800Y-57548200D01*
X31311800Y-57548200D02*
X31111800Y-57548200D01*
X31111800Y-57908200D02*
X31111800Y-57548200D01*
X31111800Y-54308200D02*
X31111800Y-55308200D01*
X31111800Y-57908200D02*
X34391800Y-57908200D01*
X36611800Y-56008200D02*
X41611800Y-56008200D01*
X41611800Y-52408200D02*
X33211799Y-52408200D01*
X41611800Y-52758200D02*
X41611800Y-52408200D01*
D12*
X44011800Y-52008200D02*
X44011800Y-66008200D01*
X44011800Y-66008200D02*
X30011800Y-66008200D01*
X30011800Y-66008200D02*
X30011800Y-52008200D01*
X30011800Y-52008200D02*
X44011800Y-52008200D01*
D10*
X34395482Y-57886729D02*
G75*
G02*
X36611800Y-56008200I2151318J-291471D01*
G01*
X31111800Y-54308201D02*
G75*
G02*
X33211799Y-52408200I2000000J-99999D01*
G01*
D13*
%TO.C,LED1*%
X33111800Y-62238200D02*
X40911800Y-62238200D01*
X40911800Y-65938200D02*
X33111800Y-65938200D01*
X33111800Y-63838200D02*
X33111800Y-62238200D01*
%TO.C,LED2*%
X53123000Y-63838200D02*
X53123000Y-62238200D01*
X60923000Y-65938200D02*
X53123000Y-65938200D01*
X53123000Y-62238200D02*
X60923000Y-62238200D01*
%TO.C,LED3*%
X73108800Y-62238200D02*
X80908800Y-62238200D01*
X80908800Y-65938200D02*
X73108800Y-65938200D01*
X73108800Y-63838200D02*
X73108800Y-62238200D01*
%TO.C,LED4*%
X93094600Y-63812800D02*
X93094600Y-62212800D01*
X100894600Y-65912800D02*
X93094600Y-65912800D01*
X93094600Y-62212800D02*
X100894600Y-62212800D01*
%TO.C,LED5*%
X100881900Y-85924000D02*
X93081900Y-85924000D01*
X93081900Y-82224000D02*
X100881900Y-82224000D01*
X100881900Y-84324000D02*
X100881900Y-85924000D01*
%TO.C,LED6*%
X80883400Y-84324000D02*
X80883400Y-85924000D01*
X73083400Y-82224000D02*
X80883400Y-82224000D01*
X80883400Y-85924000D02*
X73083400Y-85924000D01*
%TO.C,LED7*%
X60897600Y-85924000D02*
X53097600Y-85924000D01*
X53097600Y-82224000D02*
X60897600Y-82224000D01*
X60897600Y-84324000D02*
X60897600Y-85924000D01*
%TO.C,LED8*%
X40911800Y-84311300D02*
X40911800Y-85911300D01*
X33111800Y-82211300D02*
X40911800Y-82211300D01*
X40911800Y-85911300D02*
X33111800Y-85911300D01*
%TO.C,LED9*%
X33086400Y-102247900D02*
X40886400Y-102247900D01*
X40886400Y-105947900D02*
X33086400Y-105947900D01*
X33086400Y-103847900D02*
X33086400Y-102247900D01*
%TO.C,LED10*%
X53110300Y-103835200D02*
X53110300Y-102235200D01*
X60910300Y-105935200D02*
X53110300Y-105935200D01*
X53110300Y-102235200D02*
X60910300Y-102235200D01*
%TO.C,LED11*%
X73083400Y-102235200D02*
X80883400Y-102235200D01*
X80883400Y-105935200D02*
X73083400Y-105935200D01*
X73083400Y-103835200D02*
X73083400Y-102235200D01*
%TO.C,R1*%
X100522855Y-92758921D02*
X101551079Y-93787145D01*
X99235921Y-94045855D02*
X100264145Y-95074079D01*
%TO.C,R2*%
X93042079Y-102232645D02*
X92013855Y-101204421D01*
X91755145Y-103519579D02*
X90726921Y-102491355D01*
D12*
%TO.C,SW2*%
X50023000Y-52008200D02*
X64023000Y-52008200D01*
X50023000Y-66008200D02*
X50023000Y-52008200D01*
X64023000Y-66008200D02*
X50023000Y-66008200D01*
X64023000Y-52008200D02*
X64023000Y-66008200D01*
D10*
X61623000Y-52758200D02*
X61623000Y-52408200D01*
X61623000Y-52408200D02*
X53222999Y-52408200D01*
X56623000Y-56008200D02*
X61623000Y-56008200D01*
X51123000Y-57908200D02*
X54403000Y-57908200D01*
X51123000Y-54308200D02*
X51123000Y-55308200D01*
X51123000Y-57908200D02*
X51123000Y-57548200D01*
X51323000Y-57548200D02*
X51123000Y-57548200D01*
X51353000Y-55308200D02*
X51353000Y-57548200D01*
X51123000Y-55308200D02*
X51323000Y-55308200D01*
X61423000Y-52758200D02*
X61623000Y-52758200D01*
X61403000Y-55008200D02*
X61403000Y-52758200D01*
X61623000Y-55008200D02*
X61423000Y-55008200D01*
X61623000Y-56008200D02*
X61623000Y-55008200D01*
X51123000Y-54308201D02*
G75*
G02*
X53222999Y-52408200I2000000J-99999D01*
G01*
X54406682Y-57886729D02*
G75*
G02*
X56623000Y-56008200I2151318J-291471D01*
G01*
D12*
%TO.C,SW3*%
X70008800Y-52008200D02*
X84008800Y-52008200D01*
X70008800Y-66008200D02*
X70008800Y-52008200D01*
X84008800Y-66008200D02*
X70008800Y-66008200D01*
X84008800Y-52008200D02*
X84008800Y-66008200D01*
D10*
X81608800Y-52758200D02*
X81608800Y-52408200D01*
X81608800Y-52408200D02*
X73208799Y-52408200D01*
X76608800Y-56008200D02*
X81608800Y-56008200D01*
X71108800Y-57908200D02*
X74388800Y-57908200D01*
X71108800Y-54308200D02*
X71108800Y-55308200D01*
X71108800Y-57908200D02*
X71108800Y-57548200D01*
X71308800Y-57548200D02*
X71108800Y-57548200D01*
X71338800Y-55308200D02*
X71338800Y-57548200D01*
X71108800Y-55308200D02*
X71308800Y-55308200D01*
X81408800Y-52758200D02*
X81608800Y-52758200D01*
X81388800Y-55008200D02*
X81388800Y-52758200D01*
X81608800Y-55008200D02*
X81408800Y-55008200D01*
X81608800Y-56008200D02*
X81608800Y-55008200D01*
X71108800Y-54308201D02*
G75*
G02*
X73208799Y-52408200I2000000J-99999D01*
G01*
X74392482Y-57886729D02*
G75*
G02*
X76608800Y-56008200I2151318J-291471D01*
G01*
D12*
%TO.C,SW4*%
X89994600Y-51982800D02*
X103994600Y-51982800D01*
X89994600Y-65982800D02*
X89994600Y-51982800D01*
X103994600Y-65982800D02*
X89994600Y-65982800D01*
X103994600Y-51982800D02*
X103994600Y-65982800D01*
D10*
X101594600Y-52732800D02*
X101594600Y-52382800D01*
X101594600Y-52382800D02*
X93194599Y-52382800D01*
X96594600Y-55982800D02*
X101594600Y-55982800D01*
X91094600Y-57882800D02*
X94374600Y-57882800D01*
X91094600Y-54282800D02*
X91094600Y-55282800D01*
X91094600Y-57882800D02*
X91094600Y-57522800D01*
X91294600Y-57522800D02*
X91094600Y-57522800D01*
X91324600Y-55282800D02*
X91324600Y-57522800D01*
X91094600Y-55282800D02*
X91294600Y-55282800D01*
X101394600Y-52732800D02*
X101594600Y-52732800D01*
X101374600Y-54982800D02*
X101374600Y-52732800D01*
X101594600Y-54982800D02*
X101394600Y-54982800D01*
X101594600Y-55982800D02*
X101594600Y-54982800D01*
X91094600Y-54282801D02*
G75*
G02*
X93194599Y-52382800I2000000J-99999D01*
G01*
X94378282Y-57861329D02*
G75*
G02*
X96594600Y-55982800I2151318J-291471D01*
G01*
D12*
%TO.C,SW5*%
X30011800Y-71981300D02*
X44011800Y-71981300D01*
X30011800Y-85981300D02*
X30011800Y-71981300D01*
X44011800Y-85981300D02*
X30011800Y-85981300D01*
X44011800Y-71981300D02*
X44011800Y-85981300D01*
D10*
X41611800Y-72731300D02*
X41611800Y-72381300D01*
X41611800Y-72381300D02*
X33211799Y-72381300D01*
X36611800Y-75981300D02*
X41611800Y-75981300D01*
X31111800Y-77881300D02*
X34391800Y-77881300D01*
X31111800Y-74281300D02*
X31111800Y-75281300D01*
X31111800Y-77881300D02*
X31111800Y-77521300D01*
X31311800Y-77521300D02*
X31111800Y-77521300D01*
X31341800Y-75281300D02*
X31341800Y-77521300D01*
X31111800Y-75281300D02*
X31311800Y-75281300D01*
X41411800Y-72731300D02*
X41611800Y-72731300D01*
X41391800Y-74981300D02*
X41391800Y-72731300D01*
X41611800Y-74981300D02*
X41411800Y-74981300D01*
X41611800Y-75981300D02*
X41611800Y-74981300D01*
X31111800Y-74281301D02*
G75*
G02*
X33211799Y-72381300I2000000J-99999D01*
G01*
X34395482Y-77859829D02*
G75*
G02*
X36611800Y-75981300I2151318J-291471D01*
G01*
D12*
%TO.C,SW6*%
X49997600Y-71994000D02*
X63997600Y-71994000D01*
X49997600Y-85994000D02*
X49997600Y-71994000D01*
X63997600Y-85994000D02*
X49997600Y-85994000D01*
X63997600Y-71994000D02*
X63997600Y-85994000D01*
D10*
X61597600Y-72744000D02*
X61597600Y-72394000D01*
X61597600Y-72394000D02*
X53197599Y-72394000D01*
X56597600Y-75994000D02*
X61597600Y-75994000D01*
X51097600Y-77894000D02*
X54377600Y-77894000D01*
X51097600Y-74294000D02*
X51097600Y-75294000D01*
X51097600Y-77894000D02*
X51097600Y-77534000D01*
X51297600Y-77534000D02*
X51097600Y-77534000D01*
X51327600Y-75294000D02*
X51327600Y-77534000D01*
X51097600Y-75294000D02*
X51297600Y-75294000D01*
X61397600Y-72744000D02*
X61597600Y-72744000D01*
X61377600Y-74994000D02*
X61377600Y-72744000D01*
X61597600Y-74994000D02*
X61397600Y-74994000D01*
X61597600Y-75994000D02*
X61597600Y-74994000D01*
X51097600Y-74294001D02*
G75*
G02*
X53197599Y-72394000I2000000J-99999D01*
G01*
X54381282Y-77872529D02*
G75*
G02*
X56597600Y-75994000I2151318J-291471D01*
G01*
%TO.C,SW7*%
X81583400Y-75994000D02*
X81583400Y-74994000D01*
X81583400Y-74994000D02*
X81383400Y-74994000D01*
X81363400Y-74994000D02*
X81363400Y-72744000D01*
X81383400Y-72744000D02*
X81583400Y-72744000D01*
X71083400Y-75294000D02*
X71283400Y-75294000D01*
X71313400Y-75294000D02*
X71313400Y-77534000D01*
X71283400Y-77534000D02*
X71083400Y-77534000D01*
X71083400Y-77894000D02*
X71083400Y-77534000D01*
X71083400Y-74294000D02*
X71083400Y-75294000D01*
X71083400Y-77894000D02*
X74363400Y-77894000D01*
X76583400Y-75994000D02*
X81583400Y-75994000D01*
X81583400Y-72394000D02*
X73183399Y-72394000D01*
X81583400Y-72744000D02*
X81583400Y-72394000D01*
D12*
X83983400Y-71994000D02*
X83983400Y-85994000D01*
X83983400Y-85994000D02*
X69983400Y-85994000D01*
X69983400Y-85994000D02*
X69983400Y-71994000D01*
X69983400Y-71994000D02*
X83983400Y-71994000D01*
D10*
X74367082Y-77872529D02*
G75*
G02*
X76583400Y-75994000I2151318J-291471D01*
G01*
X71083400Y-74294001D02*
G75*
G02*
X73183399Y-72394000I2000000J-99999D01*
G01*
%TO.C,SW8*%
X101581900Y-75994000D02*
X101581900Y-74994000D01*
X101581900Y-74994000D02*
X101381900Y-74994000D01*
X101361900Y-74994000D02*
X101361900Y-72744000D01*
X101381900Y-72744000D02*
X101581900Y-72744000D01*
X91081900Y-75294000D02*
X91281900Y-75294000D01*
X91311900Y-75294000D02*
X91311900Y-77534000D01*
X91281900Y-77534000D02*
X91081900Y-77534000D01*
X91081900Y-77894000D02*
X91081900Y-77534000D01*
X91081900Y-74294000D02*
X91081900Y-75294000D01*
X91081900Y-77894000D02*
X94361900Y-77894000D01*
X96581900Y-75994000D02*
X101581900Y-75994000D01*
X101581900Y-72394000D02*
X93181899Y-72394000D01*
X101581900Y-72744000D02*
X101581900Y-72394000D01*
D12*
X103981900Y-71994000D02*
X103981900Y-85994000D01*
X103981900Y-85994000D02*
X89981900Y-85994000D01*
X89981900Y-85994000D02*
X89981900Y-71994000D01*
X89981900Y-71994000D02*
X103981900Y-71994000D01*
D10*
X94365582Y-77872529D02*
G75*
G02*
X96581900Y-75994000I2151318J-291471D01*
G01*
X91081900Y-74294001D02*
G75*
G02*
X93181899Y-72394000I2000000J-99999D01*
G01*
%TO.C,SW9*%
X41586400Y-96017900D02*
X41586400Y-95017900D01*
X41586400Y-95017900D02*
X41386400Y-95017900D01*
X41366400Y-95017900D02*
X41366400Y-92767900D01*
X41386400Y-92767900D02*
X41586400Y-92767900D01*
X31086400Y-95317900D02*
X31286400Y-95317900D01*
X31316400Y-95317900D02*
X31316400Y-97557900D01*
X31286400Y-97557900D02*
X31086400Y-97557900D01*
X31086400Y-97917900D02*
X31086400Y-97557900D01*
X31086400Y-94317900D02*
X31086400Y-95317900D01*
X31086400Y-97917900D02*
X34366400Y-97917900D01*
X36586400Y-96017900D02*
X41586400Y-96017900D01*
X41586400Y-92417900D02*
X33186399Y-92417900D01*
X41586400Y-92767900D02*
X41586400Y-92417900D01*
D12*
X43986400Y-92017900D02*
X43986400Y-106017900D01*
X43986400Y-106017900D02*
X29986400Y-106017900D01*
X29986400Y-106017900D02*
X29986400Y-92017900D01*
X29986400Y-92017900D02*
X43986400Y-92017900D01*
D10*
X34370082Y-97896429D02*
G75*
G02*
X36586400Y-96017900I2151318J-291471D01*
G01*
X31086400Y-94317901D02*
G75*
G02*
X33186399Y-92417900I2000000J-99999D01*
G01*
%TO.C,SW10*%
X61610300Y-96005200D02*
X61610300Y-95005200D01*
X61610300Y-95005200D02*
X61410300Y-95005200D01*
X61390300Y-95005200D02*
X61390300Y-92755200D01*
X61410300Y-92755200D02*
X61610300Y-92755200D01*
X51110300Y-95305200D02*
X51310300Y-95305200D01*
X51340300Y-95305200D02*
X51340300Y-97545200D01*
X51310300Y-97545200D02*
X51110300Y-97545200D01*
X51110300Y-97905200D02*
X51110300Y-97545200D01*
X51110300Y-94305200D02*
X51110300Y-95305200D01*
X51110300Y-97905200D02*
X54390300Y-97905200D01*
X56610300Y-96005200D02*
X61610300Y-96005200D01*
X61610300Y-92405200D02*
X53210299Y-92405200D01*
X61610300Y-92755200D02*
X61610300Y-92405200D01*
D12*
X64010300Y-92005200D02*
X64010300Y-106005200D01*
X64010300Y-106005200D02*
X50010300Y-106005200D01*
X50010300Y-106005200D02*
X50010300Y-92005200D01*
X50010300Y-92005200D02*
X64010300Y-92005200D01*
D10*
X54393982Y-97883729D02*
G75*
G02*
X56610300Y-96005200I2151318J-291471D01*
G01*
X51110300Y-94305201D02*
G75*
G02*
X53210299Y-92405200I2000000J-99999D01*
G01*
%TO.C,SW11*%
X81583400Y-96005200D02*
X81583400Y-95005200D01*
X81583400Y-95005200D02*
X81383400Y-95005200D01*
X81363400Y-95005200D02*
X81363400Y-92755200D01*
X81383400Y-92755200D02*
X81583400Y-92755200D01*
X71083400Y-95305200D02*
X71283400Y-95305200D01*
X71313400Y-95305200D02*
X71313400Y-97545200D01*
X71283400Y-97545200D02*
X71083400Y-97545200D01*
X71083400Y-97905200D02*
X71083400Y-97545200D01*
X71083400Y-94305200D02*
X71083400Y-95305200D01*
X71083400Y-97905200D02*
X74363400Y-97905200D01*
X76583400Y-96005200D02*
X81583400Y-96005200D01*
X81583400Y-92405200D02*
X73183399Y-92405200D01*
X81583400Y-92755200D02*
X81583400Y-92405200D01*
D12*
X83983400Y-92005200D02*
X83983400Y-106005200D01*
X83983400Y-106005200D02*
X69983400Y-106005200D01*
X69983400Y-106005200D02*
X69983400Y-92005200D01*
X69983400Y-92005200D02*
X83983400Y-92005200D01*
D10*
X74367082Y-97883729D02*
G75*
G02*
X76583400Y-96005200I2151318J-291471D01*
G01*
X71083400Y-94305201D02*
G75*
G02*
X73183399Y-92405200I2000000J-99999D01*
G01*
D13*
%TO.C,U2*%
X75009000Y-47387000D02*
G75*
G03*
X75009000Y-47387000I-1500000J0D01*
G01*
X75009000Y-23987000D02*
G75*
G03*
X75009000Y-23987000I-1500000J0D01*
G01*
X26009000Y-21687000D02*
X73509000Y-21687000D01*
X73509000Y-49687000D02*
X26009000Y-49687000D01*
X24009000Y-47687000D02*
X24009000Y-23687000D01*
X75509000Y-47687000D02*
X75509000Y-23687000D01*
X27509000Y-47387000D02*
G75*
G03*
X27509000Y-47387000I-1500000J0D01*
G01*
X27509000Y-23987000D02*
G75*
G03*
X27509000Y-23987000I-1500000J0D01*
G01*
X30009000Y-39687000D02*
X24009000Y-39687000D01*
X30009000Y-31687000D02*
X24009000Y-31687000D01*
X30009000Y-39687000D02*
X30009000Y-31687000D01*
X74239000Y-44577000D02*
X74239000Y-26797000D01*
X74239000Y-26797000D02*
X69159000Y-26797000D01*
X69159000Y-26797000D02*
X69159000Y-44577000D01*
X69159000Y-44577000D02*
X74239000Y-44577000D01*
X69921000Y-43307000D02*
X73477000Y-43307000D01*
X73477000Y-43307000D02*
X73477000Y-40767000D01*
X73477000Y-40767000D02*
X71445000Y-40767000D01*
X71445000Y-40767000D02*
X71445000Y-38227000D01*
X71445000Y-38227000D02*
X73477000Y-38227000D01*
X73477000Y-38227000D02*
X73477000Y-35687000D01*
X73477000Y-35687000D02*
X71445000Y-35687000D01*
X71445000Y-35687000D02*
X71445000Y-33147000D01*
X71445000Y-33147000D02*
X73477000Y-33147000D01*
X73477000Y-33147000D02*
X73477000Y-28067000D01*
X73477000Y-28067000D02*
X69921000Y-28067000D01*
X73477000Y-30607000D02*
X69921000Y-30607000D01*
X68509000Y-43187000D02*
X68509000Y-28187000D01*
X68509000Y-28187000D02*
X50509000Y-28187000D01*
X50509000Y-28187000D02*
X50509000Y-43187000D01*
X50509000Y-43187000D02*
X68509000Y-43187000D01*
D14*
X53049000Y-40767000D02*
G75*
G03*
X53049000Y-40767000I-400000J0D01*
G01*
D13*
X28519000Y-29337000D02*
X28519000Y-26797000D01*
X28519000Y-26797000D02*
X24709000Y-26797000D01*
X24709000Y-26797000D02*
X24709000Y-29337000D01*
X24709000Y-29337000D02*
X28519000Y-29337000D01*
X24709000Y-42037000D02*
X24709000Y-44577000D01*
X24709000Y-44577000D02*
X28519000Y-44577000D01*
X28519000Y-44577000D02*
X28519000Y-42037000D01*
X28519000Y-42037000D02*
X24709000Y-42037000D01*
D15*
X26914000Y-43307000D02*
G75*
G03*
X26914000Y-43307000I-300000J0D01*
G01*
X26914000Y-28067000D02*
G75*
G03*
X26914000Y-28067000I-300000J0D01*
G01*
D13*
X75509000Y-23687000D02*
G75*
G03*
X73509000Y-21687000I-2000000J0D01*
G01*
X73509000Y-49687000D02*
G75*
G03*
X75509000Y-47687000I0J2000000D01*
G01*
X24009000Y-47687000D02*
G75*
G03*
X26009000Y-49687000I2000000J0D01*
G01*
X26009000Y-21687000D02*
G75*
G03*
X24009000Y-23687000I0J-2000000D01*
G01*
%TO.C,C1*%
X37820252Y-68051000D02*
X36397748Y-68051000D01*
X37820252Y-69871000D02*
X36397748Y-69871000D01*
%TO.C,C2*%
X57759252Y-69934500D02*
X56336748Y-69934500D01*
X57759252Y-68114500D02*
X56336748Y-68114500D01*
%TO.C,C3*%
X77571252Y-68114500D02*
X76148748Y-68114500D01*
X77571252Y-69934500D02*
X76148748Y-69934500D01*
%TO.C,C4*%
X97714252Y-69934500D02*
X96291748Y-69934500D01*
X97714252Y-68114500D02*
X96291748Y-68114500D01*
%TO.C,C5*%
X97764252Y-88053500D02*
X96341748Y-88053500D01*
X97764252Y-89873500D02*
X96341748Y-89873500D01*
%TO.C,C6*%
X77634752Y-89873500D02*
X76212248Y-89873500D01*
X77634752Y-88053500D02*
X76212248Y-88053500D01*
%TO.C,C7*%
X57695752Y-88117000D02*
X56273248Y-88117000D01*
X57695752Y-89937000D02*
X56273248Y-89937000D01*
%TO.C,C8*%
X37770252Y-89937000D02*
X36347748Y-89937000D01*
X37770252Y-88117000D02*
X36347748Y-88117000D01*
%TO.C,C9*%
X37693252Y-107357500D02*
X36270748Y-107357500D01*
X37693252Y-109177500D02*
X36270748Y-109177500D01*
%TO.C,C10*%
X57582252Y-109177500D02*
X56159748Y-109177500D01*
X57582252Y-107357500D02*
X56159748Y-107357500D01*
%TO.C,C11*%
X77711752Y-107357500D02*
X76289248Y-107357500D01*
X77711752Y-109177500D02*
X76289248Y-109177500D01*
D12*
%TO.C,SW_RST1*%
X107561500Y-50114000D02*
X101861500Y-50114000D01*
X101861500Y-50114000D02*
X101861500Y-49864000D01*
X107561500Y-50114000D02*
X107561500Y-49864000D01*
X107561500Y-46914000D02*
X107561500Y-47164000D01*
X107561500Y-46914000D02*
X101861500Y-46914000D01*
X101861500Y-46914000D02*
X101861500Y-47164000D01*
D13*
%TO.C,C12*%
X93521964Y-94484602D02*
X92516102Y-95490464D01*
X94808898Y-95771536D02*
X93803036Y-96777398D01*
%TO.C,LED12*%
X86825637Y-94291570D02*
X92341070Y-88776137D01*
X94957365Y-91392432D02*
X89441932Y-96907865D01*
X87957008Y-95422941D02*
X86825637Y-94291570D01*
%TO.C,LED1*%
D12*
X42956847Y-62000580D02*
X43433038Y-62000580D01*
X43433038Y-61000580D01*
X42623514Y-61476771D02*
X42290180Y-61476771D01*
X42147323Y-62000580D02*
X42623514Y-62000580D01*
X42623514Y-61000580D01*
X42147323Y-61000580D01*
X41718752Y-62000580D02*
X41718752Y-61000580D01*
X41480657Y-61000580D01*
X41337800Y-61048200D01*
X41242561Y-61143438D01*
X41194942Y-61238676D01*
X41147323Y-61429152D01*
X41147323Y-61572009D01*
X41194942Y-61762485D01*
X41242561Y-61857723D01*
X41337800Y-61952961D01*
X41480657Y-62000580D01*
X41718752Y-62000580D01*
X40194942Y-62000580D02*
X40766371Y-62000580D01*
X40480657Y-62000580D02*
X40480657Y-61000580D01*
X40575895Y-61143438D01*
X40671133Y-61238676D01*
X40766371Y-61286295D01*
%TO.C,LED2*%
X62968047Y-62000580D02*
X63444238Y-62000580D01*
X63444238Y-61000580D01*
X62634714Y-61476771D02*
X62301380Y-61476771D01*
X62158523Y-62000580D02*
X62634714Y-62000580D01*
X62634714Y-61000580D01*
X62158523Y-61000580D01*
X61729952Y-62000580D02*
X61729952Y-61000580D01*
X61491857Y-61000580D01*
X61349000Y-61048200D01*
X61253761Y-61143438D01*
X61206142Y-61238676D01*
X61158523Y-61429152D01*
X61158523Y-61572009D01*
X61206142Y-61762485D01*
X61253761Y-61857723D01*
X61349000Y-61952961D01*
X61491857Y-62000580D01*
X61729952Y-62000580D01*
X60777571Y-61095819D02*
X60729952Y-61048200D01*
X60634714Y-61000580D01*
X60396619Y-61000580D01*
X60301380Y-61048200D01*
X60253761Y-61095819D01*
X60206142Y-61191057D01*
X60206142Y-61286295D01*
X60253761Y-61429152D01*
X60825190Y-62000580D01*
X60206142Y-62000580D01*
%TO.C,LED3*%
X82953847Y-62000580D02*
X83430038Y-62000580D01*
X83430038Y-61000580D01*
X82620514Y-61476771D02*
X82287180Y-61476771D01*
X82144323Y-62000580D02*
X82620514Y-62000580D01*
X82620514Y-61000580D01*
X82144323Y-61000580D01*
X81715752Y-62000580D02*
X81715752Y-61000580D01*
X81477657Y-61000580D01*
X81334800Y-61048200D01*
X81239561Y-61143438D01*
X81191942Y-61238676D01*
X81144323Y-61429152D01*
X81144323Y-61572009D01*
X81191942Y-61762485D01*
X81239561Y-61857723D01*
X81334800Y-61952961D01*
X81477657Y-62000580D01*
X81715752Y-62000580D01*
X80810990Y-61000580D02*
X80191942Y-61000580D01*
X80525276Y-61381533D01*
X80382419Y-61381533D01*
X80287180Y-61429152D01*
X80239561Y-61476771D01*
X80191942Y-61572009D01*
X80191942Y-61810104D01*
X80239561Y-61905342D01*
X80287180Y-61952961D01*
X80382419Y-62000580D01*
X80668133Y-62000580D01*
X80763371Y-61952961D01*
X80810990Y-61905342D01*
%TO.C,LED4*%
X102939647Y-61975180D02*
X103415838Y-61975180D01*
X103415838Y-60975180D01*
X102606314Y-61451371D02*
X102272980Y-61451371D01*
X102130123Y-61975180D02*
X102606314Y-61975180D01*
X102606314Y-60975180D01*
X102130123Y-60975180D01*
X101701552Y-61975180D02*
X101701552Y-60975180D01*
X101463457Y-60975180D01*
X101320600Y-61022800D01*
X101225361Y-61118038D01*
X101177742Y-61213276D01*
X101130123Y-61403752D01*
X101130123Y-61546609D01*
X101177742Y-61737085D01*
X101225361Y-61832323D01*
X101320600Y-61927561D01*
X101463457Y-61975180D01*
X101701552Y-61975180D01*
X100272980Y-61308514D02*
X100272980Y-61975180D01*
X100511076Y-60927561D02*
X100749171Y-61641847D01*
X100130123Y-61641847D01*
%TO.C,LED5*%
X93274947Y-87066380D02*
X93751138Y-87066380D01*
X93751138Y-86066380D01*
X92941614Y-86542571D02*
X92608280Y-86542571D01*
X92465423Y-87066380D02*
X92941614Y-87066380D01*
X92941614Y-86066380D01*
X92465423Y-86066380D01*
X92036852Y-87066380D02*
X92036852Y-86066380D01*
X91798757Y-86066380D01*
X91655900Y-86114000D01*
X91560661Y-86209238D01*
X91513042Y-86304476D01*
X91465423Y-86494952D01*
X91465423Y-86637809D01*
X91513042Y-86828285D01*
X91560661Y-86923523D01*
X91655900Y-87018761D01*
X91798757Y-87066380D01*
X92036852Y-87066380D01*
X90560661Y-86066380D02*
X91036852Y-86066380D01*
X91084471Y-86542571D01*
X91036852Y-86494952D01*
X90941614Y-86447333D01*
X90703519Y-86447333D01*
X90608280Y-86494952D01*
X90560661Y-86542571D01*
X90513042Y-86637809D01*
X90513042Y-86875904D01*
X90560661Y-86971142D01*
X90608280Y-87018761D01*
X90703519Y-87066380D01*
X90941614Y-87066380D01*
X91036852Y-87018761D01*
X91084471Y-86971142D01*
%TO.C,LED6*%
X73276447Y-87066380D02*
X73752638Y-87066380D01*
X73752638Y-86066380D01*
X72943114Y-86542571D02*
X72609780Y-86542571D01*
X72466923Y-87066380D02*
X72943114Y-87066380D01*
X72943114Y-86066380D01*
X72466923Y-86066380D01*
X72038352Y-87066380D02*
X72038352Y-86066380D01*
X71800257Y-86066380D01*
X71657400Y-86114000D01*
X71562161Y-86209238D01*
X71514542Y-86304476D01*
X71466923Y-86494952D01*
X71466923Y-86637809D01*
X71514542Y-86828285D01*
X71562161Y-86923523D01*
X71657400Y-87018761D01*
X71800257Y-87066380D01*
X72038352Y-87066380D01*
X70609780Y-86066380D02*
X70800257Y-86066380D01*
X70895495Y-86114000D01*
X70943114Y-86161619D01*
X71038352Y-86304476D01*
X71085971Y-86494952D01*
X71085971Y-86875904D01*
X71038352Y-86971142D01*
X70990733Y-87018761D01*
X70895495Y-87066380D01*
X70705019Y-87066380D01*
X70609780Y-87018761D01*
X70562161Y-86971142D01*
X70514542Y-86875904D01*
X70514542Y-86637809D01*
X70562161Y-86542571D01*
X70609780Y-86494952D01*
X70705019Y-86447333D01*
X70895495Y-86447333D01*
X70990733Y-86494952D01*
X71038352Y-86542571D01*
X71085971Y-86637809D01*
%TO.C,LED7*%
X53290647Y-87066380D02*
X53766838Y-87066380D01*
X53766838Y-86066380D01*
X52957314Y-86542571D02*
X52623980Y-86542571D01*
X52481123Y-87066380D02*
X52957314Y-87066380D01*
X52957314Y-86066380D01*
X52481123Y-86066380D01*
X52052552Y-87066380D02*
X52052552Y-86066380D01*
X51814457Y-86066380D01*
X51671600Y-86114000D01*
X51576361Y-86209238D01*
X51528742Y-86304476D01*
X51481123Y-86494952D01*
X51481123Y-86637809D01*
X51528742Y-86828285D01*
X51576361Y-86923523D01*
X51671600Y-87018761D01*
X51814457Y-87066380D01*
X52052552Y-87066380D01*
X51147790Y-86066380D02*
X50481123Y-86066380D01*
X50909695Y-87066380D01*
%TO.C,LED8*%
X33304847Y-87053680D02*
X33781038Y-87053680D01*
X33781038Y-86053680D01*
X32971514Y-86529871D02*
X32638180Y-86529871D01*
X32495323Y-87053680D02*
X32971514Y-87053680D01*
X32971514Y-86053680D01*
X32495323Y-86053680D01*
X32066752Y-87053680D02*
X32066752Y-86053680D01*
X31828657Y-86053680D01*
X31685800Y-86101300D01*
X31590561Y-86196538D01*
X31542942Y-86291776D01*
X31495323Y-86482252D01*
X31495323Y-86625109D01*
X31542942Y-86815585D01*
X31590561Y-86910823D01*
X31685800Y-87006061D01*
X31828657Y-87053680D01*
X32066752Y-87053680D01*
X30923895Y-86482252D02*
X31019133Y-86434633D01*
X31066752Y-86387014D01*
X31114371Y-86291776D01*
X31114371Y-86244157D01*
X31066752Y-86148919D01*
X31019133Y-86101300D01*
X30923895Y-86053680D01*
X30733419Y-86053680D01*
X30638180Y-86101300D01*
X30590561Y-86148919D01*
X30542942Y-86244157D01*
X30542942Y-86291776D01*
X30590561Y-86387014D01*
X30638180Y-86434633D01*
X30733419Y-86482252D01*
X30923895Y-86482252D01*
X31019133Y-86529871D01*
X31066752Y-86577490D01*
X31114371Y-86672728D01*
X31114371Y-86863204D01*
X31066752Y-86958442D01*
X31019133Y-87006061D01*
X30923895Y-87053680D01*
X30733419Y-87053680D01*
X30638180Y-87006061D01*
X30590561Y-86958442D01*
X30542942Y-86863204D01*
X30542942Y-86672728D01*
X30590561Y-86577490D01*
X30638180Y-86529871D01*
X30733419Y-86482252D01*
%TO.C,LED9*%
X42931447Y-102010280D02*
X43407638Y-102010280D01*
X43407638Y-101010280D01*
X42598114Y-101486471D02*
X42264780Y-101486471D01*
X42121923Y-102010280D02*
X42598114Y-102010280D01*
X42598114Y-101010280D01*
X42121923Y-101010280D01*
X41693352Y-102010280D02*
X41693352Y-101010280D01*
X41455257Y-101010280D01*
X41312400Y-101057900D01*
X41217161Y-101153138D01*
X41169542Y-101248376D01*
X41121923Y-101438852D01*
X41121923Y-101581709D01*
X41169542Y-101772185D01*
X41217161Y-101867423D01*
X41312400Y-101962661D01*
X41455257Y-102010280D01*
X41693352Y-102010280D01*
X40645733Y-102010280D02*
X40455257Y-102010280D01*
X40360019Y-101962661D01*
X40312400Y-101915042D01*
X40217161Y-101772185D01*
X40169542Y-101581709D01*
X40169542Y-101200757D01*
X40217161Y-101105519D01*
X40264780Y-101057900D01*
X40360019Y-101010280D01*
X40550495Y-101010280D01*
X40645733Y-101057900D01*
X40693352Y-101105519D01*
X40740971Y-101200757D01*
X40740971Y-101438852D01*
X40693352Y-101534090D01*
X40645733Y-101581709D01*
X40550495Y-101629328D01*
X40360019Y-101629328D01*
X40264780Y-101581709D01*
X40217161Y-101534090D01*
X40169542Y-101438852D01*
%TO.C,LED10*%
X62923538Y-101997580D02*
X63399728Y-101997580D01*
X63399728Y-100997580D01*
X62590204Y-101473771D02*
X62256871Y-101473771D01*
X62114014Y-101997580D02*
X62590204Y-101997580D01*
X62590204Y-100997580D01*
X62114014Y-100997580D01*
X61685442Y-101997580D02*
X61685442Y-100997580D01*
X61447347Y-100997580D01*
X61304490Y-101045200D01*
X61209252Y-101140438D01*
X61161633Y-101235676D01*
X61114014Y-101426152D01*
X61114014Y-101569009D01*
X61161633Y-101759485D01*
X61209252Y-101854723D01*
X61304490Y-101949961D01*
X61447347Y-101997580D01*
X61685442Y-101997580D01*
X60161633Y-101997580D02*
X60733061Y-101997580D01*
X60447347Y-101997580D02*
X60447347Y-100997580D01*
X60542585Y-101140438D01*
X60637823Y-101235676D01*
X60733061Y-101283295D01*
X59542585Y-100997580D02*
X59447347Y-100997580D01*
X59352109Y-101045200D01*
X59304490Y-101092819D01*
X59256871Y-101188057D01*
X59209252Y-101378533D01*
X59209252Y-101616628D01*
X59256871Y-101807104D01*
X59304490Y-101902342D01*
X59352109Y-101949961D01*
X59447347Y-101997580D01*
X59542585Y-101997580D01*
X59637823Y-101949961D01*
X59685442Y-101902342D01*
X59733061Y-101807104D01*
X59780680Y-101616628D01*
X59780680Y-101378533D01*
X59733061Y-101188057D01*
X59685442Y-101092819D01*
X59637823Y-101045200D01*
X59542585Y-100997580D01*
%TO.C,LED11*%
X82896638Y-101997580D02*
X83372828Y-101997580D01*
X83372828Y-100997580D01*
X82563304Y-101473771D02*
X82229971Y-101473771D01*
X82087114Y-101997580D02*
X82563304Y-101997580D01*
X82563304Y-100997580D01*
X82087114Y-100997580D01*
X81658542Y-101997580D02*
X81658542Y-100997580D01*
X81420447Y-100997580D01*
X81277590Y-101045200D01*
X81182352Y-101140438D01*
X81134733Y-101235676D01*
X81087114Y-101426152D01*
X81087114Y-101569009D01*
X81134733Y-101759485D01*
X81182352Y-101854723D01*
X81277590Y-101949961D01*
X81420447Y-101997580D01*
X81658542Y-101997580D01*
X80134733Y-101997580D02*
X80706161Y-101997580D01*
X80420447Y-101997580D02*
X80420447Y-100997580D01*
X80515685Y-101140438D01*
X80610923Y-101235676D01*
X80706161Y-101283295D01*
X79182352Y-101997580D02*
X79753780Y-101997580D01*
X79468066Y-101997580D02*
X79468066Y-100997580D01*
X79563304Y-101140438D01*
X79658542Y-101235676D01*
X79753780Y-101283295D01*
%TO.C,R1*%
X98904535Y-95641166D02*
X99476955Y-95540151D01*
X99308596Y-96045227D02*
X100015703Y-95338121D01*
X99746329Y-95068746D01*
X99645314Y-95035075D01*
X99577970Y-95035075D01*
X99476955Y-95068746D01*
X99375940Y-95169762D01*
X99342268Y-95270777D01*
X99342268Y-95338121D01*
X99375940Y-95439136D01*
X99645314Y-95708510D01*
X98231100Y-94967731D02*
X98635161Y-95371792D01*
X98433130Y-95169762D02*
X99140237Y-94462655D01*
X99106566Y-94631014D01*
X99106566Y-94765701D01*
X99140237Y-94866716D01*
%TO.C,R2*%
X92969403Y-101512798D02*
X93541823Y-101411783D01*
X93373464Y-101916859D02*
X94080571Y-101209753D01*
X93811197Y-100940378D01*
X93710182Y-100906707D01*
X93642838Y-100906707D01*
X93541823Y-100940378D01*
X93440808Y-101041394D01*
X93407136Y-101142409D01*
X93407136Y-101209753D01*
X93440808Y-101310768D01*
X93710182Y-101580142D01*
X93339792Y-100603661D02*
X93339792Y-100536317D01*
X93306121Y-100435302D01*
X93137762Y-100266943D01*
X93036746Y-100233272D01*
X92969403Y-100233272D01*
X92868388Y-100266943D01*
X92801044Y-100334287D01*
X92733701Y-100468974D01*
X92733701Y-101277096D01*
X92295968Y-100839363D01*
%TO.C,U2*%
X59546619Y-36448904D02*
X58737095Y-36448904D01*
X58641857Y-36401285D01*
X58594238Y-36353666D01*
X58546619Y-36258428D01*
X58546619Y-36067952D01*
X58594238Y-35972714D01*
X58641857Y-35925095D01*
X58737095Y-35877476D01*
X59546619Y-35877476D01*
X59451380Y-35448904D02*
X59499000Y-35401285D01*
X59546619Y-35306047D01*
X59546619Y-35067952D01*
X59499000Y-34972714D01*
X59451380Y-34925095D01*
X59356142Y-34877476D01*
X59260904Y-34877476D01*
X59118047Y-34925095D01*
X58546619Y-35496523D01*
X58546619Y-34877476D01*
X26526619Y-36948904D02*
X25717095Y-36948904D01*
X25621857Y-36901285D01*
X25574238Y-36853666D01*
X25526619Y-36758428D01*
X25526619Y-36567952D01*
X25574238Y-36472714D01*
X25621857Y-36425095D01*
X25717095Y-36377476D01*
X26526619Y-36377476D01*
X25574238Y-35948904D02*
X25526619Y-35806047D01*
X25526619Y-35567952D01*
X25574238Y-35472714D01*
X25621857Y-35425095D01*
X25717095Y-35377476D01*
X25812333Y-35377476D01*
X25907571Y-35425095D01*
X25955190Y-35472714D01*
X26002809Y-35567952D01*
X26050428Y-35758428D01*
X26098047Y-35853666D01*
X26145666Y-35901285D01*
X26240904Y-35948904D01*
X26336142Y-35948904D01*
X26431380Y-35901285D01*
X26479000Y-35853666D01*
X26526619Y-35758428D01*
X26526619Y-35520333D01*
X26479000Y-35377476D01*
X26050428Y-34615571D02*
X26002809Y-34472714D01*
X25955190Y-34425095D01*
X25859952Y-34377476D01*
X25717095Y-34377476D01*
X25621857Y-34425095D01*
X25574238Y-34472714D01*
X25526619Y-34567952D01*
X25526619Y-34948904D01*
X26526619Y-34948904D01*
X26526619Y-34615571D01*
X26479000Y-34520333D01*
X26431380Y-34472714D01*
X26336142Y-34425095D01*
X26240904Y-34425095D01*
X26145666Y-34472714D01*
X26098047Y-34520333D01*
X26050428Y-34615571D01*
X26050428Y-34948904D01*
X29860428Y-29186047D02*
X29812809Y-29043190D01*
X29765190Y-28995571D01*
X29669952Y-28947952D01*
X29527095Y-28947952D01*
X29431857Y-28995571D01*
X29384238Y-29043190D01*
X29336619Y-29138428D01*
X29336619Y-29519380D01*
X30336619Y-29519380D01*
X30336619Y-29186047D01*
X30289000Y-29090809D01*
X30241380Y-29043190D01*
X30146142Y-28995571D01*
X30050904Y-28995571D01*
X29955666Y-29043190D01*
X29908047Y-29090809D01*
X29860428Y-29186047D01*
X29860428Y-29519380D01*
X29336619Y-28376523D02*
X29384238Y-28471761D01*
X29431857Y-28519380D01*
X29527095Y-28567000D01*
X29812809Y-28567000D01*
X29908047Y-28519380D01*
X29955666Y-28471761D01*
X30003285Y-28376523D01*
X30003285Y-28233666D01*
X29955666Y-28138428D01*
X29908047Y-28090809D01*
X29812809Y-28043190D01*
X29527095Y-28043190D01*
X29431857Y-28090809D01*
X29384238Y-28138428D01*
X29336619Y-28233666D01*
X29336619Y-28376523D01*
X29336619Y-27471761D02*
X29384238Y-27567000D01*
X29431857Y-27614619D01*
X29527095Y-27662238D01*
X29812809Y-27662238D01*
X29908047Y-27614619D01*
X29955666Y-27567000D01*
X30003285Y-27471761D01*
X30003285Y-27328904D01*
X29955666Y-27233666D01*
X29908047Y-27186047D01*
X29812809Y-27138428D01*
X29527095Y-27138428D01*
X29431857Y-27186047D01*
X29384238Y-27233666D01*
X29336619Y-27328904D01*
X29336619Y-27471761D01*
X30003285Y-26852714D02*
X30003285Y-26471761D01*
X30336619Y-26709857D02*
X29479476Y-26709857D01*
X29384238Y-26662238D01*
X29336619Y-26567000D01*
X29336619Y-26471761D01*
X29860428Y-45568904D02*
X29860428Y-45235571D01*
X29336619Y-45092714D02*
X29336619Y-45568904D01*
X30336619Y-45568904D01*
X30336619Y-45092714D01*
X30003285Y-44664142D02*
X29336619Y-44664142D01*
X29908047Y-44664142D02*
X29955666Y-44616523D01*
X30003285Y-44521285D01*
X30003285Y-44378428D01*
X29955666Y-44283190D01*
X29860428Y-44235571D01*
X29336619Y-44235571D01*
X29336619Y-43330809D02*
X29860428Y-43330809D01*
X29955666Y-43378428D01*
X30003285Y-43473666D01*
X30003285Y-43664142D01*
X29955666Y-43759380D01*
X29384238Y-43330809D02*
X29336619Y-43426047D01*
X29336619Y-43664142D01*
X29384238Y-43759380D01*
X29479476Y-43807000D01*
X29574714Y-43807000D01*
X29669952Y-43759380D01*
X29717571Y-43664142D01*
X29717571Y-43426047D01*
X29765190Y-43330809D01*
X29336619Y-42854619D02*
X30336619Y-42854619D01*
X29955666Y-42854619D02*
X30003285Y-42759380D01*
X30003285Y-42568904D01*
X29955666Y-42473666D01*
X29908047Y-42426047D01*
X29812809Y-42378428D01*
X29527095Y-42378428D01*
X29431857Y-42426047D01*
X29384238Y-42473666D01*
X29336619Y-42568904D01*
X29336619Y-42759380D01*
X29384238Y-42854619D01*
X29336619Y-41807000D02*
X29384238Y-41902238D01*
X29479476Y-41949857D01*
X30336619Y-41949857D01*
X29384238Y-41045095D02*
X29336619Y-41140333D01*
X29336619Y-41330809D01*
X29384238Y-41426047D01*
X29479476Y-41473666D01*
X29860428Y-41473666D01*
X29955666Y-41426047D01*
X30003285Y-41330809D01*
X30003285Y-41140333D01*
X29955666Y-41045095D01*
X29860428Y-40997476D01*
X29765190Y-40997476D01*
X29669952Y-41473666D01*
%TO.C,C1*%
X37275666Y-67794142D02*
X37323285Y-67841761D01*
X37466142Y-67889380D01*
X37561380Y-67889380D01*
X37704238Y-67841761D01*
X37799476Y-67746523D01*
X37847095Y-67651285D01*
X37894714Y-67460809D01*
X37894714Y-67317952D01*
X37847095Y-67127476D01*
X37799476Y-67032238D01*
X37704238Y-66937000D01*
X37561380Y-66889380D01*
X37466142Y-66889380D01*
X37323285Y-66937000D01*
X37275666Y-66984619D01*
X36323285Y-67889380D02*
X36894714Y-67889380D01*
X36609000Y-67889380D02*
X36609000Y-66889380D01*
X36704238Y-67032238D01*
X36799476Y-67127476D01*
X36894714Y-67175095D01*
%TO.C,C2*%
X57189666Y-67794142D02*
X57237285Y-67841761D01*
X57380142Y-67889380D01*
X57475380Y-67889380D01*
X57618238Y-67841761D01*
X57713476Y-67746523D01*
X57761095Y-67651285D01*
X57808714Y-67460809D01*
X57808714Y-67317952D01*
X57761095Y-67127476D01*
X57713476Y-67032238D01*
X57618238Y-66937000D01*
X57475380Y-66889380D01*
X57380142Y-66889380D01*
X57237285Y-66937000D01*
X57189666Y-66984619D01*
X56808714Y-66984619D02*
X56761095Y-66937000D01*
X56665857Y-66889380D01*
X56427761Y-66889380D01*
X56332523Y-66937000D01*
X56284904Y-66984619D01*
X56237285Y-67079857D01*
X56237285Y-67175095D01*
X56284904Y-67317952D01*
X56856333Y-67889380D01*
X56237285Y-67889380D01*
%TO.C,C3*%
X77026666Y-67794142D02*
X77074285Y-67841761D01*
X77217142Y-67889380D01*
X77312380Y-67889380D01*
X77455238Y-67841761D01*
X77550476Y-67746523D01*
X77598095Y-67651285D01*
X77645714Y-67460809D01*
X77645714Y-67317952D01*
X77598095Y-67127476D01*
X77550476Y-67032238D01*
X77455238Y-66937000D01*
X77312380Y-66889380D01*
X77217142Y-66889380D01*
X77074285Y-66937000D01*
X77026666Y-66984619D01*
X76693333Y-66889380D02*
X76074285Y-66889380D01*
X76407619Y-67270333D01*
X76264761Y-67270333D01*
X76169523Y-67317952D01*
X76121904Y-67365571D01*
X76074285Y-67460809D01*
X76074285Y-67698904D01*
X76121904Y-67794142D01*
X76169523Y-67841761D01*
X76264761Y-67889380D01*
X76550476Y-67889380D01*
X76645714Y-67841761D01*
X76693333Y-67794142D01*
%TO.C,C4*%
X97169666Y-67794142D02*
X97217285Y-67841761D01*
X97360142Y-67889380D01*
X97455380Y-67889380D01*
X97598238Y-67841761D01*
X97693476Y-67746523D01*
X97741095Y-67651285D01*
X97788714Y-67460809D01*
X97788714Y-67317952D01*
X97741095Y-67127476D01*
X97693476Y-67032238D01*
X97598238Y-66937000D01*
X97455380Y-66889380D01*
X97360142Y-66889380D01*
X97217285Y-66937000D01*
X97169666Y-66984619D01*
X96312523Y-67222714D02*
X96312523Y-67889380D01*
X96550619Y-66841761D02*
X96788714Y-67556047D01*
X96169666Y-67556047D01*
%TO.C,C5*%
X97219666Y-87796642D02*
X97267285Y-87844261D01*
X97410142Y-87891880D01*
X97505380Y-87891880D01*
X97648238Y-87844261D01*
X97743476Y-87749023D01*
X97791095Y-87653785D01*
X97838714Y-87463309D01*
X97838714Y-87320452D01*
X97791095Y-87129976D01*
X97743476Y-87034738D01*
X97648238Y-86939500D01*
X97505380Y-86891880D01*
X97410142Y-86891880D01*
X97267285Y-86939500D01*
X97219666Y-86987119D01*
X96314904Y-86891880D02*
X96791095Y-86891880D01*
X96838714Y-87368071D01*
X96791095Y-87320452D01*
X96695857Y-87272833D01*
X96457761Y-87272833D01*
X96362523Y-87320452D01*
X96314904Y-87368071D01*
X96267285Y-87463309D01*
X96267285Y-87701404D01*
X96314904Y-87796642D01*
X96362523Y-87844261D01*
X96457761Y-87891880D01*
X96695857Y-87891880D01*
X96791095Y-87844261D01*
X96838714Y-87796642D01*
%TO.C,C6*%
X77065166Y-87796642D02*
X77112785Y-87844261D01*
X77255642Y-87891880D01*
X77350880Y-87891880D01*
X77493738Y-87844261D01*
X77588976Y-87749023D01*
X77636595Y-87653785D01*
X77684214Y-87463309D01*
X77684214Y-87320452D01*
X77636595Y-87129976D01*
X77588976Y-87034738D01*
X77493738Y-86939500D01*
X77350880Y-86891880D01*
X77255642Y-86891880D01*
X77112785Y-86939500D01*
X77065166Y-86987119D01*
X76208023Y-86891880D02*
X76398500Y-86891880D01*
X76493738Y-86939500D01*
X76541357Y-86987119D01*
X76636595Y-87129976D01*
X76684214Y-87320452D01*
X76684214Y-87701404D01*
X76636595Y-87796642D01*
X76588976Y-87844261D01*
X76493738Y-87891880D01*
X76303261Y-87891880D01*
X76208023Y-87844261D01*
X76160404Y-87796642D01*
X76112785Y-87701404D01*
X76112785Y-87463309D01*
X76160404Y-87368071D01*
X76208023Y-87320452D01*
X76303261Y-87272833D01*
X76493738Y-87272833D01*
X76588976Y-87320452D01*
X76636595Y-87368071D01*
X76684214Y-87463309D01*
%TO.C,C7*%
X57126166Y-87860142D02*
X57173785Y-87907761D01*
X57316642Y-87955380D01*
X57411880Y-87955380D01*
X57554738Y-87907761D01*
X57649976Y-87812523D01*
X57697595Y-87717285D01*
X57745214Y-87526809D01*
X57745214Y-87383952D01*
X57697595Y-87193476D01*
X57649976Y-87098238D01*
X57554738Y-87003000D01*
X57411880Y-86955380D01*
X57316642Y-86955380D01*
X57173785Y-87003000D01*
X57126166Y-87050619D01*
X56792833Y-86955380D02*
X56126166Y-86955380D01*
X56554738Y-87955380D01*
%TO.C,C8*%
X37187166Y-87860142D02*
X37234785Y-87907761D01*
X37377642Y-87955380D01*
X37472880Y-87955380D01*
X37615738Y-87907761D01*
X37710976Y-87812523D01*
X37758595Y-87717285D01*
X37806214Y-87526809D01*
X37806214Y-87383952D01*
X37758595Y-87193476D01*
X37710976Y-87098238D01*
X37615738Y-87003000D01*
X37472880Y-86955380D01*
X37377642Y-86955380D01*
X37234785Y-87003000D01*
X37187166Y-87050619D01*
X36615738Y-87383952D02*
X36710976Y-87336333D01*
X36758595Y-87288714D01*
X36806214Y-87193476D01*
X36806214Y-87145857D01*
X36758595Y-87050619D01*
X36710976Y-87003000D01*
X36615738Y-86955380D01*
X36425261Y-86955380D01*
X36330023Y-87003000D01*
X36282404Y-87050619D01*
X36234785Y-87145857D01*
X36234785Y-87193476D01*
X36282404Y-87288714D01*
X36330023Y-87336333D01*
X36425261Y-87383952D01*
X36615738Y-87383952D01*
X36710976Y-87431571D01*
X36758595Y-87479190D01*
X36806214Y-87574428D01*
X36806214Y-87764904D01*
X36758595Y-87860142D01*
X36710976Y-87907761D01*
X36615738Y-87955380D01*
X36425261Y-87955380D01*
X36330023Y-87907761D01*
X36282404Y-87860142D01*
X36234785Y-87764904D01*
X36234785Y-87574428D01*
X36282404Y-87479190D01*
X36330023Y-87431571D01*
X36425261Y-87383952D01*
%TO.C,C9*%
X37123666Y-107100642D02*
X37171285Y-107148261D01*
X37314142Y-107195880D01*
X37409380Y-107195880D01*
X37552238Y-107148261D01*
X37647476Y-107053023D01*
X37695095Y-106957785D01*
X37742714Y-106767309D01*
X37742714Y-106624452D01*
X37695095Y-106433976D01*
X37647476Y-106338738D01*
X37552238Y-106243500D01*
X37409380Y-106195880D01*
X37314142Y-106195880D01*
X37171285Y-106243500D01*
X37123666Y-106291119D01*
X36647476Y-107195880D02*
X36457000Y-107195880D01*
X36361761Y-107148261D01*
X36314142Y-107100642D01*
X36218904Y-106957785D01*
X36171285Y-106767309D01*
X36171285Y-106386357D01*
X36218904Y-106291119D01*
X36266523Y-106243500D01*
X36361761Y-106195880D01*
X36552238Y-106195880D01*
X36647476Y-106243500D01*
X36695095Y-106291119D01*
X36742714Y-106386357D01*
X36742714Y-106624452D01*
X36695095Y-106719690D01*
X36647476Y-106767309D01*
X36552238Y-106814928D01*
X36361761Y-106814928D01*
X36266523Y-106767309D01*
X36218904Y-106719690D01*
X36171285Y-106624452D01*
%TO.C,C10*%
X57513857Y-107100642D02*
X57561476Y-107148261D01*
X57704333Y-107195880D01*
X57799571Y-107195880D01*
X57942428Y-107148261D01*
X58037666Y-107053023D01*
X58085285Y-106957785D01*
X58132904Y-106767309D01*
X58132904Y-106624452D01*
X58085285Y-106433976D01*
X58037666Y-106338738D01*
X57942428Y-106243500D01*
X57799571Y-106195880D01*
X57704333Y-106195880D01*
X57561476Y-106243500D01*
X57513857Y-106291119D01*
X56561476Y-107195880D02*
X57132904Y-107195880D01*
X56847190Y-107195880D02*
X56847190Y-106195880D01*
X56942428Y-106338738D01*
X57037666Y-106433976D01*
X57132904Y-106481595D01*
X55942428Y-106195880D02*
X55847190Y-106195880D01*
X55751952Y-106243500D01*
X55704333Y-106291119D01*
X55656714Y-106386357D01*
X55609095Y-106576833D01*
X55609095Y-106814928D01*
X55656714Y-107005404D01*
X55704333Y-107100642D01*
X55751952Y-107148261D01*
X55847190Y-107195880D01*
X55942428Y-107195880D01*
X56037666Y-107148261D01*
X56085285Y-107100642D01*
X56132904Y-107005404D01*
X56180523Y-106814928D01*
X56180523Y-106576833D01*
X56132904Y-106386357D01*
X56085285Y-106291119D01*
X56037666Y-106243500D01*
X55942428Y-106195880D01*
%TO.C,C11*%
X77668357Y-107100642D02*
X77715976Y-107148261D01*
X77858833Y-107195880D01*
X77954071Y-107195880D01*
X78096928Y-107148261D01*
X78192166Y-107053023D01*
X78239785Y-106957785D01*
X78287404Y-106767309D01*
X78287404Y-106624452D01*
X78239785Y-106433976D01*
X78192166Y-106338738D01*
X78096928Y-106243500D01*
X77954071Y-106195880D01*
X77858833Y-106195880D01*
X77715976Y-106243500D01*
X77668357Y-106291119D01*
X76715976Y-107195880D02*
X77287404Y-107195880D01*
X77001690Y-107195880D02*
X77001690Y-106195880D01*
X77096928Y-106338738D01*
X77192166Y-106433976D01*
X77287404Y-106481595D01*
X75763595Y-107195880D02*
X76335023Y-107195880D01*
X76049309Y-107195880D02*
X76049309Y-106195880D01*
X76144547Y-106338738D01*
X76239785Y-106433976D01*
X76335023Y-106481595D01*
%TO.C,SW_BTN1*%
X107513380Y-29980142D02*
X106513380Y-29980142D01*
X106513380Y-30361095D01*
X106561000Y-30456333D01*
X106608619Y-30503952D01*
X106703857Y-30551571D01*
X106846714Y-30551571D01*
X106941952Y-30503952D01*
X106989571Y-30456333D01*
X107037190Y-30361095D01*
X107037190Y-29980142D01*
X107513380Y-31551571D02*
X107037190Y-31218238D01*
X107513380Y-30980142D02*
X106513380Y-30980142D01*
X106513380Y-31361095D01*
X106561000Y-31456333D01*
X106608619Y-31503952D01*
X106703857Y-31551571D01*
X106846714Y-31551571D01*
X106941952Y-31503952D01*
X106989571Y-31456333D01*
X107037190Y-31361095D01*
X107037190Y-30980142D01*
X106989571Y-31980142D02*
X106989571Y-32313476D01*
X107513380Y-32456333D02*
X107513380Y-31980142D01*
X106513380Y-31980142D01*
X106513380Y-32456333D01*
X106513380Y-32742047D02*
X107513380Y-33075380D01*
X106513380Y-33408714D01*
%TO.C,SW_BTN2*%
X107513380Y-39870261D02*
X106513380Y-39870261D01*
X107513380Y-40441690D01*
X106513380Y-40441690D01*
X106989571Y-40917880D02*
X106989571Y-41251214D01*
X107513380Y-41394071D02*
X107513380Y-40917880D01*
X106513380Y-40917880D01*
X106513380Y-41394071D01*
X106513380Y-41727404D02*
X107513380Y-42394071D01*
X106513380Y-42394071D02*
X107513380Y-41727404D01*
X106513380Y-42632166D02*
X106513380Y-43203595D01*
X107513380Y-42917880D02*
X106513380Y-42917880D01*
%TO.C,SW_RST1*%
X106163880Y-48966380D02*
X106497214Y-48490190D01*
X106735309Y-48966380D02*
X106735309Y-47966380D01*
X106354357Y-47966380D01*
X106259119Y-48014000D01*
X106211500Y-48061619D01*
X106163880Y-48156857D01*
X106163880Y-48299714D01*
X106211500Y-48394952D01*
X106259119Y-48442571D01*
X106354357Y-48490190D01*
X106735309Y-48490190D01*
X105735309Y-48442571D02*
X105401976Y-48442571D01*
X105259119Y-48966380D02*
X105735309Y-48966380D01*
X105735309Y-47966380D01*
X105259119Y-47966380D01*
X104878166Y-48918761D02*
X104735309Y-48966380D01*
X104497214Y-48966380D01*
X104401976Y-48918761D01*
X104354357Y-48871142D01*
X104306738Y-48775904D01*
X104306738Y-48680666D01*
X104354357Y-48585428D01*
X104401976Y-48537809D01*
X104497214Y-48490190D01*
X104687690Y-48442571D01*
X104782928Y-48394952D01*
X104830547Y-48347333D01*
X104878166Y-48252095D01*
X104878166Y-48156857D01*
X104830547Y-48061619D01*
X104782928Y-48014000D01*
X104687690Y-47966380D01*
X104449595Y-47966380D01*
X104306738Y-48014000D01*
X103878166Y-48442571D02*
X103544833Y-48442571D01*
X103401976Y-48966380D02*
X103878166Y-48966380D01*
X103878166Y-47966380D01*
X103401976Y-47966380D01*
X103116261Y-47966380D02*
X102544833Y-47966380D01*
X102830547Y-48966380D02*
X102830547Y-47966380D01*
%TO.C,C12*%
X93061458Y-94120821D02*
X93128802Y-94120821D01*
X93263489Y-94053477D01*
X93330832Y-93986134D01*
X93398176Y-93851447D01*
X93398176Y-93716760D01*
X93364504Y-93615745D01*
X93263489Y-93447386D01*
X93162474Y-93346371D01*
X92994115Y-93245355D01*
X92893100Y-93211684D01*
X92758413Y-93211684D01*
X92623726Y-93279027D01*
X92556382Y-93346371D01*
X92489039Y-93481058D01*
X92489039Y-93548401D01*
X92455367Y-94861600D02*
X92859428Y-94457539D01*
X92657397Y-94659569D02*
X91950290Y-93952462D01*
X92118649Y-93986134D01*
X92253336Y-93986134D01*
X92354352Y-93952462D01*
X91546229Y-94491210D02*
X91478886Y-94491210D01*
X91377871Y-94524882D01*
X91209512Y-94693241D01*
X91175840Y-94794256D01*
X91175840Y-94861600D01*
X91209512Y-94962615D01*
X91276855Y-95029958D01*
X91411542Y-95097302D01*
X92219664Y-95097302D01*
X91781932Y-95535035D01*
%TO.C,LED12*%
X95514649Y-95600880D02*
X95851366Y-95264163D01*
X95144260Y-94557056D01*
X94908557Y-95466193D02*
X94672855Y-95701896D01*
X94942229Y-96173300D02*
X95278947Y-95836583D01*
X94571840Y-95129476D01*
X94235122Y-95466193D01*
X94639183Y-96476346D02*
X93932076Y-95769239D01*
X93763718Y-95937598D01*
X93696374Y-96072285D01*
X93696374Y-96206972D01*
X93730046Y-96307987D01*
X93831061Y-96476346D01*
X93932076Y-96577361D01*
X94100435Y-96678377D01*
X94201451Y-96712048D01*
X94336138Y-96712048D01*
X94470825Y-96644705D01*
X94639183Y-96476346D01*
X93561687Y-97553842D02*
X93965748Y-97149781D01*
X93763718Y-97351812D02*
X93056611Y-96644705D01*
X93224970Y-96678377D01*
X93359657Y-96678377D01*
X93460672Y-96644705D01*
X92652550Y-97183453D02*
X92585206Y-97183453D01*
X92484191Y-97217125D01*
X92315832Y-97385483D01*
X92282161Y-97486499D01*
X92282161Y-97553842D01*
X92315832Y-97654857D01*
X92383176Y-97722201D01*
X92517863Y-97789544D01*
X93325985Y-97789544D01*
X92888252Y-98227277D01*
%TD*%
M02*
