%TF.GenerationSoftware,KiCad,Pcbnew,5.1.7-a382d34a8~88~ubuntu20.04.1*%
%TF.CreationDate,2021-03-20T14:16:57+01:00*%
%TF.ProjectId,WiFiDuck32,57694669-4475-4636-9b33-322e6b696361,2*%
%TF.SameCoordinates,Original*%
%TF.FileFunction,Other,Fab,Top*%
%FSLAX46Y46*%
G04 Gerber Fmt 4.6, Leading zero omitted, Abs format (unit mm)*
G04 Created by KiCad (PCBNEW 5.1.7-a382d34a8~88~ubuntu20.04.1) date 2021-03-20 14:16:57*
%MOMM*%
%LPD*%
G01*
G04 APERTURE LIST*
%ADD10C,0.120000*%
%ADD11C,0.150000*%
G04 APERTURE END LIST*
D10*
%TO.C,ENC1*%
X105557434Y-104568968D02*
G75*
G03*
X105557434Y-104568968I-3000000J0D01*
G01*
X103123119Y-96932215D02*
X110901294Y-104710389D01*
X110901294Y-104710389D02*
X102698855Y-112912828D01*
X102698855Y-112912828D02*
X94213574Y-104427546D01*
X94213574Y-104427546D02*
X101638195Y-97002925D01*
X101638195Y-97002925D02*
X103123119Y-96932215D01*
X104678754Y-102447647D02*
X100436114Y-106690288D01*
X100436114Y-102447647D02*
X104678754Y-106690288D01*
%TD*%
%TO.C,J1*%
D11*
X105751380Y-38994933D02*
X105751380Y-38423504D01*
X106751380Y-38709219D02*
X105751380Y-38709219D01*
X106227571Y-37756838D02*
X106227571Y-38090171D01*
X106751380Y-38090171D02*
X105751380Y-38090171D01*
X105751380Y-37613980D01*
X105751380Y-37375885D02*
X105751380Y-36804457D01*
X106751380Y-37090171D02*
X105751380Y-37090171D01*
X106846619Y-36709219D02*
X106846619Y-35947314D01*
X106656142Y-35137790D02*
X106703761Y-35185409D01*
X106751380Y-35328266D01*
X106751380Y-35423504D01*
X106703761Y-35566361D01*
X106608523Y-35661600D01*
X106513285Y-35709219D01*
X106322809Y-35756838D01*
X106179952Y-35756838D01*
X105989476Y-35709219D01*
X105894238Y-35661600D01*
X105799000Y-35566361D01*
X105751380Y-35423504D01*
X105751380Y-35328266D01*
X105799000Y-35185409D01*
X105846619Y-35137790D01*
X106751380Y-34566361D02*
X106703761Y-34661600D01*
X106656142Y-34709219D01*
X106560904Y-34756838D01*
X106275190Y-34756838D01*
X106179952Y-34709219D01*
X106132333Y-34661600D01*
X106084714Y-34566361D01*
X106084714Y-34423504D01*
X106132333Y-34328266D01*
X106179952Y-34280647D01*
X106275190Y-34233028D01*
X106560904Y-34233028D01*
X106656142Y-34280647D01*
X106703761Y-34328266D01*
X106751380Y-34423504D01*
X106751380Y-34566361D01*
X106084714Y-33804457D02*
X106751380Y-33804457D01*
X106179952Y-33804457D02*
X106132333Y-33756838D01*
X106084714Y-33661600D01*
X106084714Y-33518742D01*
X106132333Y-33423504D01*
X106227571Y-33375885D01*
X106751380Y-33375885D01*
X106084714Y-32899695D02*
X106751380Y-32899695D01*
X106179952Y-32899695D02*
X106132333Y-32852076D01*
X106084714Y-32756838D01*
X106084714Y-32613980D01*
X106132333Y-32518742D01*
X106227571Y-32471123D01*
X106751380Y-32471123D01*
%TO.C,ENC1*%
X91196584Y-105020168D02*
X91297599Y-104447749D01*
X90792523Y-104616107D02*
X91499630Y-103909001D01*
X91769004Y-104178375D01*
X91802676Y-104279390D01*
X91802676Y-104346733D01*
X91769004Y-104447749D01*
X91667989Y-104548764D01*
X91566973Y-104582436D01*
X91499630Y-104582436D01*
X91398615Y-104548764D01*
X91129241Y-104279390D01*
X91600645Y-105424229D02*
X91566973Y-105323214D01*
X91566973Y-105255871D01*
X91600645Y-105154855D01*
X91802676Y-104952825D01*
X91903691Y-104919153D01*
X91971034Y-104919153D01*
X92072050Y-104952825D01*
X92173065Y-105053840D01*
X92206737Y-105154855D01*
X92206737Y-105222199D01*
X92173065Y-105323214D01*
X91971034Y-105525245D01*
X91870019Y-105558916D01*
X91802676Y-105558916D01*
X91701660Y-105525245D01*
X91600645Y-105424229D01*
X92509782Y-105390558D02*
X92779156Y-105659932D01*
X92846500Y-105255871D02*
X92240408Y-105861962D01*
X92206737Y-105962977D01*
X92240408Y-106063993D01*
X92307752Y-106131336D01*
X92846500Y-106670084D02*
X93216889Y-106299695D01*
X93250561Y-106198680D01*
X93216889Y-106097664D01*
X93082202Y-105962977D01*
X92981187Y-105929306D01*
X92880172Y-106636412D02*
X92779156Y-106602741D01*
X92610798Y-106434382D01*
X92577126Y-106333367D01*
X92610798Y-106232351D01*
X92678141Y-106165008D01*
X92779156Y-106131336D01*
X92880172Y-106165008D01*
X93048530Y-106333367D01*
X93149546Y-106367038D01*
X93183217Y-107006802D02*
X93654622Y-106535397D01*
X93519935Y-106670084D02*
X93620950Y-106636412D01*
X93688294Y-106636412D01*
X93789309Y-106670084D01*
X93856652Y-106737428D01*
X94025011Y-106905786D02*
X93721965Y-107545550D01*
X94361729Y-107242504D02*
X93721965Y-107545550D01*
X93486263Y-107646565D01*
X93418920Y-107646565D01*
X93317904Y-107612893D01*
X93923996Y-107882267D02*
X94462744Y-108421015D01*
X95068836Y-108151641D02*
X95304538Y-108387344D01*
X95035164Y-108858748D02*
X94698446Y-108522031D01*
X95405553Y-107814924D01*
X95742271Y-108151641D01*
X95809614Y-108690389D02*
X95338210Y-109161794D01*
X95742271Y-108757733D02*
X95809614Y-108757733D01*
X95910629Y-108791405D01*
X96011645Y-108892420D01*
X96045316Y-108993435D01*
X96011645Y-109094450D01*
X95641255Y-109464840D01*
X96314690Y-110070931D02*
X96213675Y-110037259D01*
X96078988Y-109902572D01*
X96045316Y-109801557D01*
X96045316Y-109734214D01*
X96078988Y-109633198D01*
X96281019Y-109431168D01*
X96382034Y-109397496D01*
X96449377Y-109397496D01*
X96550393Y-109431168D01*
X96685080Y-109565855D01*
X96718751Y-109666870D01*
X96685080Y-110508664D02*
X96651408Y-110407649D01*
X96651408Y-110340305D01*
X96685080Y-110239290D01*
X96887110Y-110037259D01*
X96988125Y-110003588D01*
X97055469Y-110003588D01*
X97156484Y-110037259D01*
X97257499Y-110138275D01*
X97291171Y-110239290D01*
X97291171Y-110306633D01*
X97257499Y-110407649D01*
X97055469Y-110609679D01*
X96954454Y-110643351D01*
X96887110Y-110643351D01*
X96786095Y-110609679D01*
X96685080Y-110508664D01*
X97526873Y-111350458D02*
X98233980Y-110643351D01*
X97560545Y-111316786D02*
X97459530Y-111283114D01*
X97324843Y-111148427D01*
X97291171Y-111047412D01*
X97291171Y-110980068D01*
X97324843Y-110879053D01*
X97526873Y-110677023D01*
X97627889Y-110643351D01*
X97695232Y-110643351D01*
X97796247Y-110677023D01*
X97930934Y-110811710D01*
X97964606Y-110912725D01*
X98166637Y-111922877D02*
X98065621Y-111889206D01*
X97930934Y-111754519D01*
X97897263Y-111653503D01*
X97930934Y-111552488D01*
X98200308Y-111283114D01*
X98301324Y-111249442D01*
X98402339Y-111283114D01*
X98537026Y-111417801D01*
X98570698Y-111518816D01*
X98537026Y-111619832D01*
X98469682Y-111687175D01*
X98065621Y-111417801D01*
X98469682Y-112293267D02*
X98941087Y-111821862D01*
X98806400Y-111956549D02*
X98907415Y-111922877D01*
X98974759Y-111922877D01*
X99075774Y-111956549D01*
X99143117Y-112023893D01*
X98671713Y-112629984D02*
X99210461Y-113168732D01*
X99446163Y-113202404D02*
X99513507Y-113337091D01*
X99681865Y-113505450D01*
X99782881Y-113539122D01*
X99850224Y-113539122D01*
X99951240Y-113505450D01*
X100018583Y-113438106D01*
X100052255Y-113337091D01*
X100052255Y-113269748D01*
X100018583Y-113168732D01*
X99917568Y-113000374D01*
X99883896Y-112899358D01*
X99883896Y-112832015D01*
X99917568Y-112730999D01*
X99984911Y-112663656D01*
X100085927Y-112629984D01*
X100153270Y-112629984D01*
X100254285Y-112663656D01*
X100422644Y-112832015D01*
X100489988Y-112966702D01*
X100523659Y-113404435D02*
X100186942Y-114010526D01*
X100658346Y-113808496D01*
X100456316Y-114279900D01*
X101062407Y-113943183D01*
X100860377Y-114683961D02*
X101331781Y-114212557D01*
X101567484Y-113976854D02*
X101500140Y-113976854D01*
X101500140Y-114044198D01*
X101567484Y-114044198D01*
X101567484Y-113976854D01*
X101500140Y-114044198D01*
X101567484Y-114448259D02*
X101836858Y-114717633D01*
X101904201Y-114313572D02*
X101298110Y-114919663D01*
X101264438Y-115020679D01*
X101298110Y-115121694D01*
X101365453Y-115189037D01*
X101937873Y-115694114D02*
X101836858Y-115660442D01*
X101702171Y-115525755D01*
X101668499Y-115424740D01*
X101668499Y-115357396D01*
X101702171Y-115256381D01*
X101904201Y-115054350D01*
X102005216Y-115020679D01*
X102072560Y-115020679D01*
X102173575Y-115054350D01*
X102308262Y-115189037D01*
X102341934Y-115290053D01*
X102207247Y-116030831D02*
X102914354Y-115323724D01*
X102510293Y-116333877D02*
X102880682Y-115963488D01*
X102914354Y-115862472D01*
X102880682Y-115761457D01*
X102779667Y-115660442D01*
X102678651Y-115626770D01*
X102611308Y-115626770D01*
X101254337Y-108538867D02*
X101490039Y-108774569D01*
X101220665Y-109245974D02*
X100883948Y-108909256D01*
X101591055Y-108202149D01*
X101927772Y-108538867D01*
X101523711Y-109549019D02*
X102230818Y-108841913D01*
X101927772Y-109953080D01*
X102634879Y-109245974D01*
X102735894Y-110626515D02*
X102668551Y-110626515D01*
X102533864Y-110559172D01*
X102466520Y-110491828D01*
X102399177Y-110357141D01*
X102399177Y-110222454D01*
X102432848Y-110121439D01*
X102533864Y-109953080D01*
X102634879Y-109852065D01*
X102803238Y-109751050D01*
X102904253Y-109717378D01*
X103038940Y-109717378D01*
X103173627Y-109784722D01*
X103240970Y-109852065D01*
X103308314Y-109986752D01*
X103308314Y-110054096D01*
X103341986Y-111367294D02*
X102937925Y-110963233D01*
X103139955Y-111165263D02*
X103847062Y-110458157D01*
X103678703Y-110491828D01*
X103544016Y-110491828D01*
X103443001Y-110458157D01*
%TO.C,SW_BTN1*%
X104915761Y-34742047D02*
X104963380Y-34599190D01*
X104963380Y-34361095D01*
X104915761Y-34265857D01*
X104868142Y-34218238D01*
X104772904Y-34170619D01*
X104677666Y-34170619D01*
X104582428Y-34218238D01*
X104534809Y-34265857D01*
X104487190Y-34361095D01*
X104439571Y-34551571D01*
X104391952Y-34646809D01*
X104344333Y-34694428D01*
X104249095Y-34742047D01*
X104153857Y-34742047D01*
X104058619Y-34694428D01*
X104011000Y-34646809D01*
X103963380Y-34551571D01*
X103963380Y-34313476D01*
X104011000Y-34170619D01*
X103963380Y-33837285D02*
X104963380Y-33599190D01*
X104249095Y-33408714D01*
X104963380Y-33218238D01*
X103963380Y-32980142D01*
X105058619Y-32837285D02*
X105058619Y-32075380D01*
X104439571Y-31503952D02*
X104487190Y-31361095D01*
X104534809Y-31313476D01*
X104630047Y-31265857D01*
X104772904Y-31265857D01*
X104868142Y-31313476D01*
X104915761Y-31361095D01*
X104963380Y-31456333D01*
X104963380Y-31837285D01*
X103963380Y-31837285D01*
X103963380Y-31503952D01*
X104011000Y-31408714D01*
X104058619Y-31361095D01*
X104153857Y-31313476D01*
X104249095Y-31313476D01*
X104344333Y-31361095D01*
X104391952Y-31408714D01*
X104439571Y-31503952D01*
X104439571Y-31837285D01*
X103963380Y-30980142D02*
X103963380Y-30408714D01*
X104963380Y-30694428D02*
X103963380Y-30694428D01*
X104963380Y-30075380D02*
X103963380Y-30075380D01*
X104963380Y-29503952D01*
X103963380Y-29503952D01*
X104963380Y-28503952D02*
X104963380Y-29075380D01*
X104963380Y-28789666D02*
X103963380Y-28789666D01*
X104106238Y-28884904D01*
X104201476Y-28980142D01*
X104249095Y-29075380D01*
%TO.C,SW_BTN2*%
X104915761Y-44584547D02*
X104963380Y-44441690D01*
X104963380Y-44203595D01*
X104915761Y-44108357D01*
X104868142Y-44060738D01*
X104772904Y-44013119D01*
X104677666Y-44013119D01*
X104582428Y-44060738D01*
X104534809Y-44108357D01*
X104487190Y-44203595D01*
X104439571Y-44394071D01*
X104391952Y-44489309D01*
X104344333Y-44536928D01*
X104249095Y-44584547D01*
X104153857Y-44584547D01*
X104058619Y-44536928D01*
X104011000Y-44489309D01*
X103963380Y-44394071D01*
X103963380Y-44155976D01*
X104011000Y-44013119D01*
X103963380Y-43679785D02*
X104963380Y-43441690D01*
X104249095Y-43251214D01*
X104963380Y-43060738D01*
X103963380Y-42822642D01*
X105058619Y-42679785D02*
X105058619Y-41917880D01*
X104439571Y-41346452D02*
X104487190Y-41203595D01*
X104534809Y-41155976D01*
X104630047Y-41108357D01*
X104772904Y-41108357D01*
X104868142Y-41155976D01*
X104915761Y-41203595D01*
X104963380Y-41298833D01*
X104963380Y-41679785D01*
X103963380Y-41679785D01*
X103963380Y-41346452D01*
X104011000Y-41251214D01*
X104058619Y-41203595D01*
X104153857Y-41155976D01*
X104249095Y-41155976D01*
X104344333Y-41203595D01*
X104391952Y-41251214D01*
X104439571Y-41346452D01*
X104439571Y-41679785D01*
X103963380Y-40822642D02*
X103963380Y-40251214D01*
X104963380Y-40536928D02*
X103963380Y-40536928D01*
X104963380Y-39917880D02*
X103963380Y-39917880D01*
X104963380Y-39346452D01*
X103963380Y-39346452D01*
X104058619Y-38917880D02*
X104011000Y-38870261D01*
X103963380Y-38775023D01*
X103963380Y-38536928D01*
X104011000Y-38441690D01*
X104058619Y-38394071D01*
X104153857Y-38346452D01*
X104249095Y-38346452D01*
X104391952Y-38394071D01*
X104963380Y-38965500D01*
X104963380Y-38346452D01*
%TD*%
M02*
