M48
; DRILL file {KiCad 5.1.7-a382d34a8~88~ubuntu20.04.1} date Sat Mar 20 14:17:01 2021
; FORMAT={-:-/ absolute / inch / decimal}
; #@! TF.CreationDate,2021-03-20T14:17:01+01:00
; #@! TF.GenerationSoftware,Kicad,Pcbnew,5.1.7-a382d34a8~88~ubuntu20.04.1
; #@! TF.FileFunction,NonPlated,1,2,NPTH
FMAT,2
INCH
T1C0.0748
T2C0.1181
T3C0.1614
%
G90
G05
T1
X3.2308Y-3.11
X2.445Y-2.3232
X1.2562Y-3.8983
X1.6562Y-3.8983
X2.0445Y-3.8978
X2.4445Y-3.8978
X2.044Y-3.11
X2.444Y-3.11
X1.2572Y-2.3232
X1.6572Y-2.3232
X1.2572Y-3.1095
X1.6572Y-3.1095
X2.8308Y-3.11
X2.8308Y-3.8978
X3.2308Y-3.8978
X3.6182Y-3.11
X4.0182Y-3.11
X2.8318Y-2.3232
X3.2318Y-2.3232
X2.045Y-2.3232
X3.6187Y-2.3222
X4.0187Y-2.3222
T2
X2.094Y-3.01
X2.344Y-2.91
X1.3072Y-2.2232
X1.5572Y-2.1232
X1.3072Y-3.0095
X1.5572Y-2.9095
X2.8808Y-3.01
X3.1308Y-2.91
X2.8808Y-3.7978
X3.1308Y-3.6978
X3.6682Y-3.01
X3.9182Y-2.91
X2.8818Y-2.2232
X3.1318Y-2.1232
X2.095Y-2.2232
X2.345Y-2.1232
X3.6687Y-2.2222
X3.9187Y-2.1222
X1.3062Y-3.7983
X1.5562Y-3.6983
X2.0945Y-3.7978
X2.3445Y-3.6978
T3
X3.0318Y-2.3232
X2.245Y-2.3232
X3.8187Y-2.3222
X1.4562Y-3.8983
X2.2445Y-3.8978
X2.244Y-3.11
X1.4572Y-2.3232
X1.4572Y-3.1095
X3.0308Y-3.11
X3.0308Y-3.8978
X3.8182Y-3.11
T0
M30
