%TF.GenerationSoftware,KiCad,Pcbnew,5.1.7-a382d34a8~88~ubuntu20.04.1*%
%TF.CreationDate,2021-05-04T18:18:29+02:00*%
%TF.ProjectId,WiFiDuck32,57694669-4475-4636-9b33-322e6b696361,2*%
%TF.SameCoordinates,Original*%
%TF.FileFunction,Soldermask,Bot*%
%TF.FilePolarity,Negative*%
%FSLAX46Y46*%
G04 Gerber Fmt 4.6, Leading zero omitted, Abs format (unit mm)*
G04 Created by KiCad (PCBNEW 5.1.7-a382d34a8~88~ubuntu20.04.1) date 2021-05-04 18:18:29*
%MOMM*%
%LPD*%
G01*
G04 APERTURE LIST*
%ADD10R,1.700000X1.700000*%
%ADD11C,1.524000*%
%ADD12R,2.300000X2.000000*%
%ADD13C,1.900000*%
%ADD14C,4.100000*%
%ADD15C,3.000000*%
%ADD16C,4.000000*%
%ADD17R,1.300000X1.778000*%
%ADD18O,1.300000X1.778000*%
%ADD19C,2.000000*%
%ADD20C,0.100000*%
%ADD21R,1.700000X1.000000*%
%ADD22R,1.524000X1.524000*%
G04 APERTURE END LIST*
D10*
%TO.C,J_RST*%
X31648400Y-36931600D03*
%TD*%
%TO.C,J_GND*%
X31648400Y-34391600D03*
%TD*%
D11*
%TO.C,J1*%
X101219000Y-35661600D03*
X101219000Y-33121600D03*
X101219000Y-30581600D03*
X101219000Y-28041600D03*
X101219000Y-38201600D03*
X101219000Y-40741600D03*
X101219000Y-43281600D03*
%TD*%
D12*
%TO.C,SW1*%
X42711800Y-53888200D03*
D13*
X31931800Y-59008200D03*
X42091800Y-59008200D03*
D14*
X37011800Y-59008200D03*
D15*
X39551800Y-53928200D03*
X33201800Y-56468200D03*
D12*
X30011800Y-56428200D03*
%TD*%
D16*
%TO.C,HOLE_M3*%
X111963200Y-90982800D03*
%TD*%
%TO.C,HOLE_M3*%
X89001600Y-112979200D03*
%TD*%
%TO.C,HOLE_M3*%
X26009600Y-106019600D03*
%TD*%
%TO.C,HOLE_M3*%
X26009600Y-69037200D03*
%TD*%
%TO.C,HOLE_M3*%
X26009600Y-24003000D03*
%TD*%
%TO.C,HOLE_M3*%
X105359200Y-24231600D03*
%TD*%
D17*
%TO.C,D1*%
X30035500Y-61531500D03*
D18*
X30035500Y-67531500D03*
%TD*%
%TO.C,D5*%
X30035500Y-87579000D03*
D17*
X30035500Y-81579000D03*
%TD*%
D18*
%TO.C,D9*%
X29972000Y-107584500D03*
D17*
X29972000Y-101584500D03*
%TD*%
%TO.C,D2*%
X50038000Y-61576500D03*
D18*
X50038000Y-67576500D03*
%TD*%
D17*
%TO.C,D6*%
X49974500Y-81579000D03*
D18*
X49974500Y-87579000D03*
%TD*%
D17*
%TO.C,D10*%
X49974500Y-101584500D03*
D18*
X49974500Y-107584500D03*
%TD*%
%TO.C,D3*%
X70040500Y-67579500D03*
D17*
X70040500Y-61579500D03*
%TD*%
D18*
%TO.C,D7*%
X69977000Y-87579000D03*
D17*
X69977000Y-81579000D03*
%TD*%
D18*
%TO.C,D11*%
X69977000Y-107581500D03*
D17*
X69977000Y-101581500D03*
%TD*%
%TO.C,D4*%
X89979500Y-61576500D03*
D18*
X89979500Y-67576500D03*
%TD*%
D17*
%TO.C,D8*%
X89979500Y-81579000D03*
D18*
X89979500Y-87579000D03*
%TD*%
D19*
%TO.C,ENC1*%
X105739414Y-111286482D03*
X109274948Y-107750948D03*
D20*
G36*
X96759158Y-108104502D02*
G01*
X98173372Y-106690288D01*
X100436114Y-108953030D01*
X99021900Y-110367244D01*
X96759158Y-108104502D01*
G37*
G36*
X104678754Y-100184906D02*
G01*
X106092968Y-98770692D01*
X108355710Y-101033434D01*
X106941496Y-102447648D01*
X104678754Y-100184906D01*
G37*
D19*
X95486366Y-101033434D03*
X97254133Y-99265667D03*
D20*
G36*
X97607686Y-97497900D02*
G01*
X99021900Y-96083686D01*
X100436114Y-97497900D01*
X99021900Y-98912114D01*
X97607686Y-97497900D01*
G37*
%TD*%
D21*
%TO.C,LED1*%
X34261800Y-64788200D03*
X34261800Y-63388200D03*
X39761800Y-64788200D03*
X39761800Y-63388200D03*
%TD*%
%TO.C,LED2*%
X59773000Y-63388200D03*
X59773000Y-64788200D03*
X54273000Y-63388200D03*
X54273000Y-64788200D03*
%TD*%
%TO.C,LED3*%
X74258800Y-64788200D03*
X74258800Y-63388200D03*
X79758800Y-64788200D03*
X79758800Y-63388200D03*
%TD*%
%TO.C,LED4*%
X99744600Y-63362800D03*
X99744600Y-64762800D03*
X94244600Y-63362800D03*
X94244600Y-64762800D03*
%TD*%
%TO.C,LED5*%
X99731900Y-83374000D03*
X99731900Y-84774000D03*
X94231900Y-83374000D03*
X94231900Y-84774000D03*
%TD*%
%TO.C,LED6*%
X74233400Y-84774000D03*
X74233400Y-83374000D03*
X79733400Y-84774000D03*
X79733400Y-83374000D03*
%TD*%
%TO.C,LED7*%
X59747600Y-83374000D03*
X59747600Y-84774000D03*
X54247600Y-83374000D03*
X54247600Y-84774000D03*
%TD*%
%TO.C,LED8*%
X34261800Y-84761300D03*
X34261800Y-83361300D03*
X39761800Y-84761300D03*
X39761800Y-83361300D03*
%TD*%
%TO.C,LED9*%
X34236400Y-104797900D03*
X34236400Y-103397900D03*
X39736400Y-104797900D03*
X39736400Y-103397900D03*
%TD*%
%TO.C,LED10*%
X59760300Y-103385200D03*
X59760300Y-104785200D03*
X54260300Y-103385200D03*
X54260300Y-104785200D03*
%TD*%
%TO.C,LED11*%
X74233400Y-104785200D03*
X74233400Y-103385200D03*
X79733400Y-104785200D03*
X79733400Y-103385200D03*
%TD*%
%TO.C,R1*%
G36*
G01*
X100587954Y-94994839D02*
X101471839Y-94110954D01*
G75*
G02*
X101825391Y-94110954I176776J-176776D01*
G01*
X102391078Y-94676641D01*
G75*
G02*
X102391078Y-95030193I-176776J-176776D01*
G01*
X101507193Y-95914078D01*
G75*
G02*
X101153641Y-95914078I-176776J176776D01*
G01*
X100587954Y-95348391D01*
G75*
G02*
X100587954Y-94994839I176776J176776D01*
G01*
G37*
G36*
G01*
X98395922Y-92802807D02*
X99279807Y-91918922D01*
G75*
G02*
X99633359Y-91918922I176776J-176776D01*
G01*
X100199046Y-92484609D01*
G75*
G02*
X100199046Y-92838161I-176776J-176776D01*
G01*
X99315161Y-93722046D01*
G75*
G02*
X98961609Y-93722046I-176776J176776D01*
G01*
X98395922Y-93156359D01*
G75*
G02*
X98395922Y-92802807I176776J176776D01*
G01*
G37*
%TD*%
%TO.C,R2*%
G36*
G01*
X93882078Y-103475693D02*
X92998193Y-104359578D01*
G75*
G02*
X92644641Y-104359578I-176776J176776D01*
G01*
X92078954Y-103793891D01*
G75*
G02*
X92078954Y-103440339I176776J176776D01*
G01*
X92962839Y-102556454D01*
G75*
G02*
X93316391Y-102556454I176776J-176776D01*
G01*
X93882078Y-103122141D01*
G75*
G02*
X93882078Y-103475693I-176776J-176776D01*
G01*
G37*
G36*
G01*
X91690046Y-101283661D02*
X90806161Y-102167546D01*
G75*
G02*
X90452609Y-102167546I-176776J176776D01*
G01*
X89886922Y-101601859D01*
G75*
G02*
X89886922Y-101248307I176776J176776D01*
G01*
X90770807Y-100364422D01*
G75*
G02*
X91124359Y-100364422I176776J-176776D01*
G01*
X91690046Y-100930109D01*
G75*
G02*
X91690046Y-101283661I-176776J-176776D01*
G01*
G37*
%TD*%
D12*
%TO.C,SW2*%
X50023000Y-56428200D03*
D15*
X53213000Y-56468200D03*
X59563000Y-53928200D03*
D14*
X57023000Y-59008200D03*
D13*
X62103000Y-59008200D03*
X51943000Y-59008200D03*
D12*
X62723000Y-53888200D03*
%TD*%
%TO.C,SW3*%
X70008800Y-56428200D03*
D15*
X73198800Y-56468200D03*
X79548800Y-53928200D03*
D14*
X77008800Y-59008200D03*
D13*
X82088800Y-59008200D03*
X71928800Y-59008200D03*
D12*
X82708800Y-53888200D03*
%TD*%
%TO.C,SW4*%
X89994600Y-56402800D03*
D15*
X93184600Y-56442800D03*
X99534600Y-53902800D03*
D14*
X96994600Y-58982800D03*
D13*
X102074600Y-58982800D03*
X91914600Y-58982800D03*
D12*
X102694600Y-53862800D03*
%TD*%
%TO.C,SW5*%
X30011800Y-76401300D03*
D15*
X33201800Y-76441300D03*
X39551800Y-73901300D03*
D14*
X37011800Y-78981300D03*
D13*
X42091800Y-78981300D03*
X31931800Y-78981300D03*
D12*
X42711800Y-73861300D03*
%TD*%
%TO.C,SW6*%
X49997600Y-76414000D03*
D15*
X53187600Y-76454000D03*
X59537600Y-73914000D03*
D14*
X56997600Y-78994000D03*
D13*
X62077600Y-78994000D03*
X51917600Y-78994000D03*
D12*
X62697600Y-73874000D03*
%TD*%
%TO.C,SW7*%
X82683400Y-73874000D03*
D13*
X71903400Y-78994000D03*
X82063400Y-78994000D03*
D14*
X76983400Y-78994000D03*
D15*
X79523400Y-73914000D03*
X73173400Y-76454000D03*
D12*
X69983400Y-76414000D03*
%TD*%
%TO.C,SW8*%
X102681900Y-73874000D03*
D13*
X91901900Y-78994000D03*
X102061900Y-78994000D03*
D14*
X96981900Y-78994000D03*
D15*
X99521900Y-73914000D03*
X93171900Y-76454000D03*
D12*
X89981900Y-76414000D03*
%TD*%
%TO.C,SW9*%
X42686400Y-93897900D03*
D13*
X31906400Y-99017900D03*
X42066400Y-99017900D03*
D14*
X36986400Y-99017900D03*
D15*
X39526400Y-93937900D03*
X33176400Y-96477900D03*
D12*
X29986400Y-96437900D03*
%TD*%
%TO.C,SW10*%
X62710300Y-93885200D03*
D13*
X51930300Y-99005200D03*
X62090300Y-99005200D03*
D14*
X57010300Y-99005200D03*
D15*
X59550300Y-93925200D03*
X53200300Y-96465200D03*
D12*
X50010300Y-96425200D03*
%TD*%
%TO.C,SW11*%
X82683400Y-93885200D03*
D13*
X71903400Y-99005200D03*
X82063400Y-99005200D03*
D14*
X76983400Y-99005200D03*
D15*
X79523400Y-93925200D03*
X73173400Y-96465200D03*
D12*
X69983400Y-96425200D03*
%TD*%
D22*
%TO.C,U2*%
X69469000Y-48387000D03*
D11*
X66929000Y-48387000D03*
X64389000Y-48387000D03*
X61849000Y-48387000D03*
X59309000Y-48387000D03*
X56769000Y-48387000D03*
X54229000Y-48387000D03*
X51689000Y-48387000D03*
X49149000Y-48387000D03*
X46609000Y-48387000D03*
X44069000Y-48387000D03*
X41529000Y-48387000D03*
X38989000Y-48387000D03*
X36449000Y-48387000D03*
X33909000Y-48387000D03*
X33909000Y-22987000D03*
X36449000Y-22987000D03*
X38989000Y-22987000D03*
X41529000Y-22987000D03*
X44069000Y-22987000D03*
X46609000Y-22987000D03*
X49149000Y-22987000D03*
X51689000Y-22987000D03*
X54229000Y-22987000D03*
X56769000Y-22987000D03*
X59309000Y-22987000D03*
X61849000Y-22987000D03*
X64389000Y-22987000D03*
X66929000Y-22987000D03*
X69469000Y-22987000D03*
%TD*%
%TO.C,C1*%
G36*
G01*
X36209000Y-68310998D02*
X36209000Y-69611002D01*
G75*
G02*
X35959002Y-69861000I-249998J0D01*
G01*
X35133998Y-69861000D01*
G75*
G02*
X34884000Y-69611002I0J249998D01*
G01*
X34884000Y-68310998D01*
G75*
G02*
X35133998Y-68061000I249998J0D01*
G01*
X35959002Y-68061000D01*
G75*
G02*
X36209000Y-68310998I0J-249998D01*
G01*
G37*
G36*
G01*
X39334000Y-68310998D02*
X39334000Y-69611002D01*
G75*
G02*
X39084002Y-69861000I-249998J0D01*
G01*
X38258998Y-69861000D01*
G75*
G02*
X38009000Y-69611002I0J249998D01*
G01*
X38009000Y-68310998D01*
G75*
G02*
X38258998Y-68061000I249998J0D01*
G01*
X39084002Y-68061000D01*
G75*
G02*
X39334000Y-68310998I0J-249998D01*
G01*
G37*
%TD*%
%TO.C,C2*%
G36*
G01*
X59273000Y-68374498D02*
X59273000Y-69674502D01*
G75*
G02*
X59023002Y-69924500I-249998J0D01*
G01*
X58197998Y-69924500D01*
G75*
G02*
X57948000Y-69674502I0J249998D01*
G01*
X57948000Y-68374498D01*
G75*
G02*
X58197998Y-68124500I249998J0D01*
G01*
X59023002Y-68124500D01*
G75*
G02*
X59273000Y-68374498I0J-249998D01*
G01*
G37*
G36*
G01*
X56148000Y-68374498D02*
X56148000Y-69674502D01*
G75*
G02*
X55898002Y-69924500I-249998J0D01*
G01*
X55072998Y-69924500D01*
G75*
G02*
X54823000Y-69674502I0J249998D01*
G01*
X54823000Y-68374498D01*
G75*
G02*
X55072998Y-68124500I249998J0D01*
G01*
X55898002Y-68124500D01*
G75*
G02*
X56148000Y-68374498I0J-249998D01*
G01*
G37*
%TD*%
%TO.C,C3*%
G36*
G01*
X75960000Y-68374498D02*
X75960000Y-69674502D01*
G75*
G02*
X75710002Y-69924500I-249998J0D01*
G01*
X74884998Y-69924500D01*
G75*
G02*
X74635000Y-69674502I0J249998D01*
G01*
X74635000Y-68374498D01*
G75*
G02*
X74884998Y-68124500I249998J0D01*
G01*
X75710002Y-68124500D01*
G75*
G02*
X75960000Y-68374498I0J-249998D01*
G01*
G37*
G36*
G01*
X79085000Y-68374498D02*
X79085000Y-69674502D01*
G75*
G02*
X78835002Y-69924500I-249998J0D01*
G01*
X78009998Y-69924500D01*
G75*
G02*
X77760000Y-69674502I0J249998D01*
G01*
X77760000Y-68374498D01*
G75*
G02*
X78009998Y-68124500I249998J0D01*
G01*
X78835002Y-68124500D01*
G75*
G02*
X79085000Y-68374498I0J-249998D01*
G01*
G37*
%TD*%
%TO.C,C4*%
G36*
G01*
X99228000Y-68374498D02*
X99228000Y-69674502D01*
G75*
G02*
X98978002Y-69924500I-249998J0D01*
G01*
X98152998Y-69924500D01*
G75*
G02*
X97903000Y-69674502I0J249998D01*
G01*
X97903000Y-68374498D01*
G75*
G02*
X98152998Y-68124500I249998J0D01*
G01*
X98978002Y-68124500D01*
G75*
G02*
X99228000Y-68374498I0J-249998D01*
G01*
G37*
G36*
G01*
X96103000Y-68374498D02*
X96103000Y-69674502D01*
G75*
G02*
X95853002Y-69924500I-249998J0D01*
G01*
X95027998Y-69924500D01*
G75*
G02*
X94778000Y-69674502I0J249998D01*
G01*
X94778000Y-68374498D01*
G75*
G02*
X95027998Y-68124500I249998J0D01*
G01*
X95853002Y-68124500D01*
G75*
G02*
X96103000Y-68374498I0J-249998D01*
G01*
G37*
%TD*%
%TO.C,C5*%
G36*
G01*
X96153000Y-88313498D02*
X96153000Y-89613502D01*
G75*
G02*
X95903002Y-89863500I-249998J0D01*
G01*
X95077998Y-89863500D01*
G75*
G02*
X94828000Y-89613502I0J249998D01*
G01*
X94828000Y-88313498D01*
G75*
G02*
X95077998Y-88063500I249998J0D01*
G01*
X95903002Y-88063500D01*
G75*
G02*
X96153000Y-88313498I0J-249998D01*
G01*
G37*
G36*
G01*
X99278000Y-88313498D02*
X99278000Y-89613502D01*
G75*
G02*
X99028002Y-89863500I-249998J0D01*
G01*
X98202998Y-89863500D01*
G75*
G02*
X97953000Y-89613502I0J249998D01*
G01*
X97953000Y-88313498D01*
G75*
G02*
X98202998Y-88063500I249998J0D01*
G01*
X99028002Y-88063500D01*
G75*
G02*
X99278000Y-88313498I0J-249998D01*
G01*
G37*
%TD*%
%TO.C,C6*%
G36*
G01*
X79148500Y-88313498D02*
X79148500Y-89613502D01*
G75*
G02*
X78898502Y-89863500I-249998J0D01*
G01*
X78073498Y-89863500D01*
G75*
G02*
X77823500Y-89613502I0J249998D01*
G01*
X77823500Y-88313498D01*
G75*
G02*
X78073498Y-88063500I249998J0D01*
G01*
X78898502Y-88063500D01*
G75*
G02*
X79148500Y-88313498I0J-249998D01*
G01*
G37*
G36*
G01*
X76023500Y-88313498D02*
X76023500Y-89613502D01*
G75*
G02*
X75773502Y-89863500I-249998J0D01*
G01*
X74948498Y-89863500D01*
G75*
G02*
X74698500Y-89613502I0J249998D01*
G01*
X74698500Y-88313498D01*
G75*
G02*
X74948498Y-88063500I249998J0D01*
G01*
X75773502Y-88063500D01*
G75*
G02*
X76023500Y-88313498I0J-249998D01*
G01*
G37*
%TD*%
%TO.C,C7*%
G36*
G01*
X56084500Y-88376998D02*
X56084500Y-89677002D01*
G75*
G02*
X55834502Y-89927000I-249998J0D01*
G01*
X55009498Y-89927000D01*
G75*
G02*
X54759500Y-89677002I0J249998D01*
G01*
X54759500Y-88376998D01*
G75*
G02*
X55009498Y-88127000I249998J0D01*
G01*
X55834502Y-88127000D01*
G75*
G02*
X56084500Y-88376998I0J-249998D01*
G01*
G37*
G36*
G01*
X59209500Y-88376998D02*
X59209500Y-89677002D01*
G75*
G02*
X58959502Y-89927000I-249998J0D01*
G01*
X58134498Y-89927000D01*
G75*
G02*
X57884500Y-89677002I0J249998D01*
G01*
X57884500Y-88376998D01*
G75*
G02*
X58134498Y-88127000I249998J0D01*
G01*
X58959502Y-88127000D01*
G75*
G02*
X59209500Y-88376998I0J-249998D01*
G01*
G37*
%TD*%
%TO.C,C8*%
G36*
G01*
X39284000Y-88376998D02*
X39284000Y-89677002D01*
G75*
G02*
X39034002Y-89927000I-249998J0D01*
G01*
X38208998Y-89927000D01*
G75*
G02*
X37959000Y-89677002I0J249998D01*
G01*
X37959000Y-88376998D01*
G75*
G02*
X38208998Y-88127000I249998J0D01*
G01*
X39034002Y-88127000D01*
G75*
G02*
X39284000Y-88376998I0J-249998D01*
G01*
G37*
G36*
G01*
X36159000Y-88376998D02*
X36159000Y-89677002D01*
G75*
G02*
X35909002Y-89927000I-249998J0D01*
G01*
X35083998Y-89927000D01*
G75*
G02*
X34834000Y-89677002I0J249998D01*
G01*
X34834000Y-88376998D01*
G75*
G02*
X35083998Y-88127000I249998J0D01*
G01*
X35909002Y-88127000D01*
G75*
G02*
X36159000Y-88376998I0J-249998D01*
G01*
G37*
%TD*%
%TO.C,C9*%
G36*
G01*
X36082000Y-107617498D02*
X36082000Y-108917502D01*
G75*
G02*
X35832002Y-109167500I-249998J0D01*
G01*
X35006998Y-109167500D01*
G75*
G02*
X34757000Y-108917502I0J249998D01*
G01*
X34757000Y-107617498D01*
G75*
G02*
X35006998Y-107367500I249998J0D01*
G01*
X35832002Y-107367500D01*
G75*
G02*
X36082000Y-107617498I0J-249998D01*
G01*
G37*
G36*
G01*
X39207000Y-107617498D02*
X39207000Y-108917502D01*
G75*
G02*
X38957002Y-109167500I-249998J0D01*
G01*
X38131998Y-109167500D01*
G75*
G02*
X37882000Y-108917502I0J249998D01*
G01*
X37882000Y-107617498D01*
G75*
G02*
X38131998Y-107367500I249998J0D01*
G01*
X38957002Y-107367500D01*
G75*
G02*
X39207000Y-107617498I0J-249998D01*
G01*
G37*
%TD*%
%TO.C,C10*%
G36*
G01*
X59096000Y-107617498D02*
X59096000Y-108917502D01*
G75*
G02*
X58846002Y-109167500I-249998J0D01*
G01*
X58020998Y-109167500D01*
G75*
G02*
X57771000Y-108917502I0J249998D01*
G01*
X57771000Y-107617498D01*
G75*
G02*
X58020998Y-107367500I249998J0D01*
G01*
X58846002Y-107367500D01*
G75*
G02*
X59096000Y-107617498I0J-249998D01*
G01*
G37*
G36*
G01*
X55971000Y-107617498D02*
X55971000Y-108917502D01*
G75*
G02*
X55721002Y-109167500I-249998J0D01*
G01*
X54895998Y-109167500D01*
G75*
G02*
X54646000Y-108917502I0J249998D01*
G01*
X54646000Y-107617498D01*
G75*
G02*
X54895998Y-107367500I249998J0D01*
G01*
X55721002Y-107367500D01*
G75*
G02*
X55971000Y-107617498I0J-249998D01*
G01*
G37*
%TD*%
%TO.C,C11*%
G36*
G01*
X76100500Y-107617498D02*
X76100500Y-108917502D01*
G75*
G02*
X75850502Y-109167500I-249998J0D01*
G01*
X75025498Y-109167500D01*
G75*
G02*
X74775500Y-108917502I0J249998D01*
G01*
X74775500Y-107617498D01*
G75*
G02*
X75025498Y-107367500I249998J0D01*
G01*
X75850502Y-107367500D01*
G75*
G02*
X76100500Y-107617498I0J-249998D01*
G01*
G37*
G36*
G01*
X79225500Y-107617498D02*
X79225500Y-108917502D01*
G75*
G02*
X78975502Y-109167500I-249998J0D01*
G01*
X78150498Y-109167500D01*
G75*
G02*
X77900500Y-108917502I0J249998D01*
G01*
X77900500Y-107617498D01*
G75*
G02*
X78150498Y-107367500I249998J0D01*
G01*
X78975502Y-107367500D01*
G75*
G02*
X79225500Y-107617498I0J-249998D01*
G01*
G37*
%TD*%
D19*
%TO.C,SW_BTN1*%
X107061000Y-28373000D03*
X107061000Y-34873000D03*
%TD*%
%TO.C,SW_BTN2*%
X107061000Y-44715500D03*
X107061000Y-38215500D03*
%TD*%
%TO.C,C12*%
G36*
G01*
X94776191Y-93598067D02*
X95695433Y-94517309D01*
G75*
G02*
X95695433Y-94870859I-176775J-176775D01*
G01*
X95112067Y-95454225D01*
G75*
G02*
X94758517Y-95454225I-176775J176775D01*
G01*
X93839275Y-94534983D01*
G75*
G02*
X93839275Y-94181433I176775J176775D01*
G01*
X94422641Y-93598067D01*
G75*
G02*
X94776191Y-93598067I176775J-176775D01*
G01*
G37*
G36*
G01*
X92566483Y-95807775D02*
X93485725Y-96727017D01*
G75*
G02*
X93485725Y-97080567I-176775J-176775D01*
G01*
X92902359Y-97663933D01*
G75*
G02*
X92548809Y-97663933I-176775J176775D01*
G01*
X91629567Y-96744691D01*
G75*
G02*
X91629567Y-96391141I176775J176775D01*
G01*
X92212933Y-95807775D01*
G75*
G02*
X92566483Y-95807775I176775J-176775D01*
G01*
G37*
%TD*%
D20*
%TO.C,LED12*%
G36*
X89194445Y-96236113D02*
G01*
X88487338Y-95529006D01*
X89689419Y-94326925D01*
X90396526Y-95034032D01*
X89194445Y-96236113D01*
G37*
G36*
X88204496Y-95246164D02*
G01*
X87497389Y-94539057D01*
X88699470Y-93336976D01*
X89406577Y-94044083D01*
X88204496Y-95246164D01*
G37*
G36*
X93083532Y-92347026D02*
G01*
X92376425Y-91639919D01*
X93578506Y-90437838D01*
X94285613Y-91144945D01*
X93083532Y-92347026D01*
G37*
G36*
X92093583Y-91357077D02*
G01*
X91386476Y-90649970D01*
X92588557Y-89447889D01*
X93295664Y-90154996D01*
X92093583Y-91357077D01*
G37*
%TD*%
M02*
