%TF.GenerationSoftware,KiCad,Pcbnew,5.1.7-a382d34a8~88~ubuntu20.04.1*%
%TF.CreationDate,2021-05-04T18:18:29+02:00*%
%TF.ProjectId,WiFiDuck32,57694669-4475-4636-9b33-322e6b696361,2*%
%TF.SameCoordinates,Original*%
%TF.FileFunction,Other,User*%
%FSLAX46Y46*%
G04 Gerber Fmt 4.6, Leading zero omitted, Abs format (unit mm)*
G04 Created by KiCad (PCBNEW 5.1.7-a382d34a8~88~ubuntu20.04.1) date 2021-05-04 18:18:29*
%MOMM*%
%LPD*%
G01*
G04 APERTURE LIST*
%ADD10C,0.050000*%
G04 APERTURE END LIST*
D10*
%TO.C,R1*%
X102917871Y-94856952D02*
X99453048Y-91392129D01*
X101333952Y-96440871D02*
X102917871Y-94856952D01*
X97869129Y-92976048D02*
X101333952Y-96440871D01*
X99453048Y-91392129D02*
X97869129Y-92976048D01*
%TO.C,R2*%
X92824952Y-104886371D02*
X94408871Y-103302452D01*
X94408871Y-103302452D02*
X90944048Y-99837629D01*
X90944048Y-99837629D02*
X89360129Y-101421548D01*
X89360129Y-101421548D02*
X92824952Y-104886371D01*
%TO.C,C1*%
X39589000Y-70111000D02*
X39589000Y-67811000D01*
X39589000Y-67811000D02*
X34629000Y-67811000D01*
X34629000Y-67811000D02*
X34629000Y-70111000D01*
X34629000Y-70111000D02*
X39589000Y-70111000D01*
%TO.C,C2*%
X54568000Y-70174500D02*
X59528000Y-70174500D01*
X54568000Y-67874500D02*
X54568000Y-70174500D01*
X59528000Y-67874500D02*
X54568000Y-67874500D01*
X59528000Y-70174500D02*
X59528000Y-67874500D01*
%TO.C,C3*%
X79340000Y-70174500D02*
X79340000Y-67874500D01*
X79340000Y-67874500D02*
X74380000Y-67874500D01*
X74380000Y-67874500D02*
X74380000Y-70174500D01*
X74380000Y-70174500D02*
X79340000Y-70174500D01*
%TO.C,C4*%
X94523000Y-70174500D02*
X99483000Y-70174500D01*
X94523000Y-67874500D02*
X94523000Y-70174500D01*
X99483000Y-67874500D02*
X94523000Y-67874500D01*
X99483000Y-70174500D02*
X99483000Y-67874500D01*
%TO.C,C5*%
X99533000Y-90113500D02*
X99533000Y-87813500D01*
X99533000Y-87813500D02*
X94573000Y-87813500D01*
X94573000Y-87813500D02*
X94573000Y-90113500D01*
X94573000Y-90113500D02*
X99533000Y-90113500D01*
%TO.C,C6*%
X74443500Y-90113500D02*
X79403500Y-90113500D01*
X74443500Y-87813500D02*
X74443500Y-90113500D01*
X79403500Y-87813500D02*
X74443500Y-87813500D01*
X79403500Y-90113500D02*
X79403500Y-87813500D01*
%TO.C,C7*%
X59464500Y-90177000D02*
X59464500Y-87877000D01*
X59464500Y-87877000D02*
X54504500Y-87877000D01*
X54504500Y-87877000D02*
X54504500Y-90177000D01*
X54504500Y-90177000D02*
X59464500Y-90177000D01*
%TO.C,C8*%
X34579000Y-90177000D02*
X39539000Y-90177000D01*
X34579000Y-87877000D02*
X34579000Y-90177000D01*
X39539000Y-87877000D02*
X34579000Y-87877000D01*
X39539000Y-90177000D02*
X39539000Y-87877000D01*
%TO.C,C9*%
X39462000Y-109417500D02*
X39462000Y-107117500D01*
X39462000Y-107117500D02*
X34502000Y-107117500D01*
X34502000Y-107117500D02*
X34502000Y-109417500D01*
X34502000Y-109417500D02*
X39462000Y-109417500D01*
%TO.C,C10*%
X54391000Y-109417500D02*
X59351000Y-109417500D01*
X54391000Y-107117500D02*
X54391000Y-109417500D01*
X59351000Y-107117500D02*
X54391000Y-107117500D01*
X59351000Y-109417500D02*
X59351000Y-107117500D01*
%TO.C,C11*%
X79480500Y-109417500D02*
X79480500Y-107117500D01*
X79480500Y-107117500D02*
X74520500Y-107117500D01*
X74520500Y-107117500D02*
X74520500Y-109417500D01*
X74520500Y-109417500D02*
X79480500Y-109417500D01*
%TO.C,C12*%
X96229298Y-94690548D02*
X94602952Y-93064202D01*
X94602952Y-93064202D02*
X91095702Y-96571452D01*
X91095702Y-96571452D02*
X92722048Y-98197798D01*
X92722048Y-98197798D02*
X96229298Y-94690548D01*
%TD*%
M02*
