%TF.GenerationSoftware,KiCad,Pcbnew,5.1.7-a382d34a8~88~ubuntu20.04.1*%
%TF.CreationDate,2021-05-04T18:18:29+02:00*%
%TF.ProjectId,WiFiDuck32,57694669-4475-4636-9b33-322e6b696361,2*%
%TF.SameCoordinates,Original*%
%TF.FileFunction,OtherDrawing,Comment*%
%FSLAX46Y46*%
G04 Gerber Fmt 4.6, Leading zero omitted, Abs format (unit mm)*
G04 Created by KiCad (PCBNEW 5.1.7-a382d34a8~88~ubuntu20.04.1) date 2021-05-04 18:18:29*
%MOMM*%
%LPD*%
G01*
G04 APERTURE LIST*
%ADD10C,0.150000*%
%ADD11C,0.120000*%
%ADD12C,0.066040*%
G04 APERTURE END LIST*
D10*
%TO.C,SW1*%
X30011800Y-66008200D02*
X44011800Y-66008200D01*
X44011800Y-66008200D02*
X44011800Y-52008200D01*
X44011800Y-52008200D02*
X30011800Y-52008200D01*
X30011800Y-66008200D02*
X30011800Y-52008200D01*
X27486800Y-68533200D02*
X27486800Y-49483200D01*
X46536800Y-68533200D02*
X27486800Y-68533200D01*
X46536800Y-49483200D02*
X46536800Y-68533200D01*
X27486800Y-49483200D02*
X46536800Y-49483200D01*
D11*
%TO.C,LED1*%
X35411800Y-65488200D02*
X38611800Y-65488200D01*
X35411800Y-62688200D02*
X38611800Y-62688200D01*
X35411800Y-65488200D02*
X35411800Y-62688200D01*
X38611800Y-65488200D02*
X38611800Y-62688200D01*
X35411800Y-65138200D02*
X34071800Y-65138200D01*
X34071800Y-65138200D02*
X34071800Y-64458200D01*
X34071800Y-64458200D02*
X35411800Y-64458200D01*
X35411800Y-63738200D02*
X34071800Y-63738200D01*
X34071800Y-63058200D02*
X35411800Y-63058200D01*
X34071800Y-63738200D02*
X34071800Y-63058200D01*
X38611800Y-63058200D02*
X39951800Y-63058200D01*
X39951800Y-63738200D02*
X38611800Y-63738200D01*
X39951800Y-63058200D02*
X39951800Y-63738200D01*
X38611800Y-64458200D02*
X39951800Y-64458200D01*
X39951800Y-65138200D02*
X38611800Y-65138200D01*
X39951800Y-64458200D02*
X39951800Y-65138200D01*
X35411800Y-63388200D02*
X36211800Y-62688200D01*
%TO.C,LED2*%
X55423000Y-63388200D02*
X56223000Y-62688200D01*
X59963000Y-64458200D02*
X59963000Y-65138200D01*
X59963000Y-65138200D02*
X58623000Y-65138200D01*
X58623000Y-64458200D02*
X59963000Y-64458200D01*
X59963000Y-63058200D02*
X59963000Y-63738200D01*
X59963000Y-63738200D02*
X58623000Y-63738200D01*
X58623000Y-63058200D02*
X59963000Y-63058200D01*
X54083000Y-63738200D02*
X54083000Y-63058200D01*
X54083000Y-63058200D02*
X55423000Y-63058200D01*
X55423000Y-63738200D02*
X54083000Y-63738200D01*
X54083000Y-64458200D02*
X55423000Y-64458200D01*
X54083000Y-65138200D02*
X54083000Y-64458200D01*
X55423000Y-65138200D02*
X54083000Y-65138200D01*
X58623000Y-65488200D02*
X58623000Y-62688200D01*
X55423000Y-65488200D02*
X55423000Y-62688200D01*
X55423000Y-62688200D02*
X58623000Y-62688200D01*
X55423000Y-65488200D02*
X58623000Y-65488200D01*
%TO.C,LED3*%
X75408800Y-65488200D02*
X78608800Y-65488200D01*
X75408800Y-62688200D02*
X78608800Y-62688200D01*
X75408800Y-65488200D02*
X75408800Y-62688200D01*
X78608800Y-65488200D02*
X78608800Y-62688200D01*
X75408800Y-65138200D02*
X74068800Y-65138200D01*
X74068800Y-65138200D02*
X74068800Y-64458200D01*
X74068800Y-64458200D02*
X75408800Y-64458200D01*
X75408800Y-63738200D02*
X74068800Y-63738200D01*
X74068800Y-63058200D02*
X75408800Y-63058200D01*
X74068800Y-63738200D02*
X74068800Y-63058200D01*
X78608800Y-63058200D02*
X79948800Y-63058200D01*
X79948800Y-63738200D02*
X78608800Y-63738200D01*
X79948800Y-63058200D02*
X79948800Y-63738200D01*
X78608800Y-64458200D02*
X79948800Y-64458200D01*
X79948800Y-65138200D02*
X78608800Y-65138200D01*
X79948800Y-64458200D02*
X79948800Y-65138200D01*
X75408800Y-63388200D02*
X76208800Y-62688200D01*
%TO.C,LED4*%
X95394600Y-63362800D02*
X96194600Y-62662800D01*
X99934600Y-64432800D02*
X99934600Y-65112800D01*
X99934600Y-65112800D02*
X98594600Y-65112800D01*
X98594600Y-64432800D02*
X99934600Y-64432800D01*
X99934600Y-63032800D02*
X99934600Y-63712800D01*
X99934600Y-63712800D02*
X98594600Y-63712800D01*
X98594600Y-63032800D02*
X99934600Y-63032800D01*
X94054600Y-63712800D02*
X94054600Y-63032800D01*
X94054600Y-63032800D02*
X95394600Y-63032800D01*
X95394600Y-63712800D02*
X94054600Y-63712800D01*
X94054600Y-64432800D02*
X95394600Y-64432800D01*
X94054600Y-65112800D02*
X94054600Y-64432800D01*
X95394600Y-65112800D02*
X94054600Y-65112800D01*
X98594600Y-65462800D02*
X98594600Y-62662800D01*
X95394600Y-65462800D02*
X95394600Y-62662800D01*
X95394600Y-62662800D02*
X98594600Y-62662800D01*
X95394600Y-65462800D02*
X98594600Y-65462800D01*
%TO.C,LED5*%
X98581900Y-82674000D02*
X95381900Y-82674000D01*
X98581900Y-85474000D02*
X95381900Y-85474000D01*
X98581900Y-82674000D02*
X98581900Y-85474000D01*
X95381900Y-82674000D02*
X95381900Y-85474000D01*
X98581900Y-83024000D02*
X99921900Y-83024000D01*
X99921900Y-83024000D02*
X99921900Y-83704000D01*
X99921900Y-83704000D02*
X98581900Y-83704000D01*
X98581900Y-84424000D02*
X99921900Y-84424000D01*
X99921900Y-85104000D02*
X98581900Y-85104000D01*
X99921900Y-84424000D02*
X99921900Y-85104000D01*
X95381900Y-85104000D02*
X94041900Y-85104000D01*
X94041900Y-84424000D02*
X95381900Y-84424000D01*
X94041900Y-85104000D02*
X94041900Y-84424000D01*
X95381900Y-83704000D02*
X94041900Y-83704000D01*
X94041900Y-83024000D02*
X95381900Y-83024000D01*
X94041900Y-83704000D02*
X94041900Y-83024000D01*
X98581900Y-84774000D02*
X97781900Y-85474000D01*
%TO.C,LED6*%
X78583400Y-84774000D02*
X77783400Y-85474000D01*
X74043400Y-83704000D02*
X74043400Y-83024000D01*
X74043400Y-83024000D02*
X75383400Y-83024000D01*
X75383400Y-83704000D02*
X74043400Y-83704000D01*
X74043400Y-85104000D02*
X74043400Y-84424000D01*
X74043400Y-84424000D02*
X75383400Y-84424000D01*
X75383400Y-85104000D02*
X74043400Y-85104000D01*
X79923400Y-84424000D02*
X79923400Y-85104000D01*
X79923400Y-85104000D02*
X78583400Y-85104000D01*
X78583400Y-84424000D02*
X79923400Y-84424000D01*
X79923400Y-83704000D02*
X78583400Y-83704000D01*
X79923400Y-83024000D02*
X79923400Y-83704000D01*
X78583400Y-83024000D02*
X79923400Y-83024000D01*
X75383400Y-82674000D02*
X75383400Y-85474000D01*
X78583400Y-82674000D02*
X78583400Y-85474000D01*
X78583400Y-85474000D02*
X75383400Y-85474000D01*
X78583400Y-82674000D02*
X75383400Y-82674000D01*
%TO.C,LED7*%
X58597600Y-82674000D02*
X55397600Y-82674000D01*
X58597600Y-85474000D02*
X55397600Y-85474000D01*
X58597600Y-82674000D02*
X58597600Y-85474000D01*
X55397600Y-82674000D02*
X55397600Y-85474000D01*
X58597600Y-83024000D02*
X59937600Y-83024000D01*
X59937600Y-83024000D02*
X59937600Y-83704000D01*
X59937600Y-83704000D02*
X58597600Y-83704000D01*
X58597600Y-84424000D02*
X59937600Y-84424000D01*
X59937600Y-85104000D02*
X58597600Y-85104000D01*
X59937600Y-84424000D02*
X59937600Y-85104000D01*
X55397600Y-85104000D02*
X54057600Y-85104000D01*
X54057600Y-84424000D02*
X55397600Y-84424000D01*
X54057600Y-85104000D02*
X54057600Y-84424000D01*
X55397600Y-83704000D02*
X54057600Y-83704000D01*
X54057600Y-83024000D02*
X55397600Y-83024000D01*
X54057600Y-83704000D02*
X54057600Y-83024000D01*
X58597600Y-84774000D02*
X57797600Y-85474000D01*
%TO.C,LED8*%
X38611800Y-84761300D02*
X37811800Y-85461300D01*
X34071800Y-83691300D02*
X34071800Y-83011300D01*
X34071800Y-83011300D02*
X35411800Y-83011300D01*
X35411800Y-83691300D02*
X34071800Y-83691300D01*
X34071800Y-85091300D02*
X34071800Y-84411300D01*
X34071800Y-84411300D02*
X35411800Y-84411300D01*
X35411800Y-85091300D02*
X34071800Y-85091300D01*
X39951800Y-84411300D02*
X39951800Y-85091300D01*
X39951800Y-85091300D02*
X38611800Y-85091300D01*
X38611800Y-84411300D02*
X39951800Y-84411300D01*
X39951800Y-83691300D02*
X38611800Y-83691300D01*
X39951800Y-83011300D02*
X39951800Y-83691300D01*
X38611800Y-83011300D02*
X39951800Y-83011300D01*
X35411800Y-82661300D02*
X35411800Y-85461300D01*
X38611800Y-82661300D02*
X38611800Y-85461300D01*
X38611800Y-85461300D02*
X35411800Y-85461300D01*
X38611800Y-82661300D02*
X35411800Y-82661300D01*
%TO.C,LED9*%
X35386400Y-105497900D02*
X38586400Y-105497900D01*
X35386400Y-102697900D02*
X38586400Y-102697900D01*
X35386400Y-105497900D02*
X35386400Y-102697900D01*
X38586400Y-105497900D02*
X38586400Y-102697900D01*
X35386400Y-105147900D02*
X34046400Y-105147900D01*
X34046400Y-105147900D02*
X34046400Y-104467900D01*
X34046400Y-104467900D02*
X35386400Y-104467900D01*
X35386400Y-103747900D02*
X34046400Y-103747900D01*
X34046400Y-103067900D02*
X35386400Y-103067900D01*
X34046400Y-103747900D02*
X34046400Y-103067900D01*
X38586400Y-103067900D02*
X39926400Y-103067900D01*
X39926400Y-103747900D02*
X38586400Y-103747900D01*
X39926400Y-103067900D02*
X39926400Y-103747900D01*
X38586400Y-104467900D02*
X39926400Y-104467900D01*
X39926400Y-105147900D02*
X38586400Y-105147900D01*
X39926400Y-104467900D02*
X39926400Y-105147900D01*
X35386400Y-103397900D02*
X36186400Y-102697900D01*
%TO.C,LED10*%
X55410300Y-103385200D02*
X56210300Y-102685200D01*
X59950300Y-104455200D02*
X59950300Y-105135200D01*
X59950300Y-105135200D02*
X58610300Y-105135200D01*
X58610300Y-104455200D02*
X59950300Y-104455200D01*
X59950300Y-103055200D02*
X59950300Y-103735200D01*
X59950300Y-103735200D02*
X58610300Y-103735200D01*
X58610300Y-103055200D02*
X59950300Y-103055200D01*
X54070300Y-103735200D02*
X54070300Y-103055200D01*
X54070300Y-103055200D02*
X55410300Y-103055200D01*
X55410300Y-103735200D02*
X54070300Y-103735200D01*
X54070300Y-104455200D02*
X55410300Y-104455200D01*
X54070300Y-105135200D02*
X54070300Y-104455200D01*
X55410300Y-105135200D02*
X54070300Y-105135200D01*
X58610300Y-105485200D02*
X58610300Y-102685200D01*
X55410300Y-105485200D02*
X55410300Y-102685200D01*
X55410300Y-102685200D02*
X58610300Y-102685200D01*
X55410300Y-105485200D02*
X58610300Y-105485200D01*
%TO.C,LED11*%
X75383400Y-105485200D02*
X78583400Y-105485200D01*
X75383400Y-102685200D02*
X78583400Y-102685200D01*
X75383400Y-105485200D02*
X75383400Y-102685200D01*
X78583400Y-105485200D02*
X78583400Y-102685200D01*
X75383400Y-105135200D02*
X74043400Y-105135200D01*
X74043400Y-105135200D02*
X74043400Y-104455200D01*
X74043400Y-104455200D02*
X75383400Y-104455200D01*
X75383400Y-103735200D02*
X74043400Y-103735200D01*
X74043400Y-103055200D02*
X75383400Y-103055200D01*
X74043400Y-103735200D02*
X74043400Y-103055200D01*
X78583400Y-103055200D02*
X79923400Y-103055200D01*
X79923400Y-103735200D02*
X78583400Y-103735200D01*
X79923400Y-103055200D02*
X79923400Y-103735200D01*
X78583400Y-104455200D02*
X79923400Y-104455200D01*
X79923400Y-105135200D02*
X78583400Y-105135200D01*
X79923400Y-104455200D02*
X79923400Y-105135200D01*
X75383400Y-103385200D02*
X76183400Y-102685200D01*
D10*
%TO.C,SW2*%
X47498000Y-49483200D02*
X66548000Y-49483200D01*
X66548000Y-49483200D02*
X66548000Y-68533200D01*
X66548000Y-68533200D02*
X47498000Y-68533200D01*
X47498000Y-68533200D02*
X47498000Y-49483200D01*
X50023000Y-66008200D02*
X50023000Y-52008200D01*
X64023000Y-52008200D02*
X50023000Y-52008200D01*
X64023000Y-66008200D02*
X64023000Y-52008200D01*
X50023000Y-66008200D02*
X64023000Y-66008200D01*
%TO.C,SW3*%
X67483800Y-49483200D02*
X86533800Y-49483200D01*
X86533800Y-49483200D02*
X86533800Y-68533200D01*
X86533800Y-68533200D02*
X67483800Y-68533200D01*
X67483800Y-68533200D02*
X67483800Y-49483200D01*
X70008800Y-66008200D02*
X70008800Y-52008200D01*
X84008800Y-52008200D02*
X70008800Y-52008200D01*
X84008800Y-66008200D02*
X84008800Y-52008200D01*
X70008800Y-66008200D02*
X84008800Y-66008200D01*
%TO.C,SW4*%
X87469600Y-49457800D02*
X106519600Y-49457800D01*
X106519600Y-49457800D02*
X106519600Y-68507800D01*
X106519600Y-68507800D02*
X87469600Y-68507800D01*
X87469600Y-68507800D02*
X87469600Y-49457800D01*
X89994600Y-65982800D02*
X89994600Y-51982800D01*
X103994600Y-51982800D02*
X89994600Y-51982800D01*
X103994600Y-65982800D02*
X103994600Y-51982800D01*
X89994600Y-65982800D02*
X103994600Y-65982800D01*
%TO.C,SW5*%
X27486800Y-69456300D02*
X46536800Y-69456300D01*
X46536800Y-69456300D02*
X46536800Y-88506300D01*
X46536800Y-88506300D02*
X27486800Y-88506300D01*
X27486800Y-88506300D02*
X27486800Y-69456300D01*
X30011800Y-85981300D02*
X30011800Y-71981300D01*
X44011800Y-71981300D02*
X30011800Y-71981300D01*
X44011800Y-85981300D02*
X44011800Y-71981300D01*
X30011800Y-85981300D02*
X44011800Y-85981300D01*
%TO.C,SW6*%
X47472600Y-69469000D02*
X66522600Y-69469000D01*
X66522600Y-69469000D02*
X66522600Y-88519000D01*
X66522600Y-88519000D02*
X47472600Y-88519000D01*
X47472600Y-88519000D02*
X47472600Y-69469000D01*
X49997600Y-85994000D02*
X49997600Y-71994000D01*
X63997600Y-71994000D02*
X49997600Y-71994000D01*
X63997600Y-85994000D02*
X63997600Y-71994000D01*
X49997600Y-85994000D02*
X63997600Y-85994000D01*
%TO.C,SW7*%
X69983400Y-85994000D02*
X83983400Y-85994000D01*
X83983400Y-85994000D02*
X83983400Y-71994000D01*
X83983400Y-71994000D02*
X69983400Y-71994000D01*
X69983400Y-85994000D02*
X69983400Y-71994000D01*
X67458400Y-88519000D02*
X67458400Y-69469000D01*
X86508400Y-88519000D02*
X67458400Y-88519000D01*
X86508400Y-69469000D02*
X86508400Y-88519000D01*
X67458400Y-69469000D02*
X86508400Y-69469000D01*
%TO.C,SW8*%
X89981900Y-85994000D02*
X103981900Y-85994000D01*
X103981900Y-85994000D02*
X103981900Y-71994000D01*
X103981900Y-71994000D02*
X89981900Y-71994000D01*
X89981900Y-85994000D02*
X89981900Y-71994000D01*
X87456900Y-88519000D02*
X87456900Y-69469000D01*
X106506900Y-88519000D02*
X87456900Y-88519000D01*
X106506900Y-69469000D02*
X106506900Y-88519000D01*
X87456900Y-69469000D02*
X106506900Y-69469000D01*
%TO.C,SW9*%
X29986400Y-106017900D02*
X43986400Y-106017900D01*
X43986400Y-106017900D02*
X43986400Y-92017900D01*
X43986400Y-92017900D02*
X29986400Y-92017900D01*
X29986400Y-106017900D02*
X29986400Y-92017900D01*
X27461400Y-108542900D02*
X27461400Y-89492900D01*
X46511400Y-108542900D02*
X27461400Y-108542900D01*
X46511400Y-89492900D02*
X46511400Y-108542900D01*
X27461400Y-89492900D02*
X46511400Y-89492900D01*
%TO.C,SW10*%
X50010300Y-106005200D02*
X64010300Y-106005200D01*
X64010300Y-106005200D02*
X64010300Y-92005200D01*
X64010300Y-92005200D02*
X50010300Y-92005200D01*
X50010300Y-106005200D02*
X50010300Y-92005200D01*
X47485300Y-108530200D02*
X47485300Y-89480200D01*
X66535300Y-108530200D02*
X47485300Y-108530200D01*
X66535300Y-89480200D02*
X66535300Y-108530200D01*
X47485300Y-89480200D02*
X66535300Y-89480200D01*
%TO.C,SW11*%
X69983400Y-106005200D02*
X83983400Y-106005200D01*
X83983400Y-106005200D02*
X83983400Y-92005200D01*
X83983400Y-92005200D02*
X69983400Y-92005200D01*
X69983400Y-106005200D02*
X69983400Y-92005200D01*
X67458400Y-108530200D02*
X67458400Y-89480200D01*
X86508400Y-108530200D02*
X67458400Y-108530200D01*
X86508400Y-89480200D02*
X86508400Y-108530200D01*
X67458400Y-89480200D02*
X86508400Y-89480200D01*
D11*
%TO.C,LED12*%
X90750080Y-94963321D02*
X93012821Y-92700580D01*
X88770181Y-92983422D02*
X91032922Y-90720681D01*
X90750080Y-94963321D02*
X88770181Y-92983422D01*
X93012821Y-92700580D02*
X91032922Y-90720681D01*
X90502592Y-94715834D02*
X89555069Y-95663357D01*
X89555069Y-95663357D02*
X89074237Y-95182524D01*
X89074237Y-95182524D02*
X90021760Y-94235001D01*
X89512643Y-93725884D02*
X88565120Y-94673408D01*
X88084287Y-94192575D02*
X89031810Y-93245052D01*
X88565120Y-94673408D02*
X88084287Y-94192575D01*
X91294552Y-90982310D02*
X92242075Y-90034787D01*
X92722908Y-90515620D02*
X91775384Y-91463143D01*
X92242075Y-90034787D02*
X92722908Y-90515620D01*
X92284501Y-91972260D02*
X93232024Y-91024737D01*
X93712857Y-91505569D02*
X92765334Y-92453092D01*
X93232024Y-91024737D02*
X93712857Y-91505569D01*
X89265155Y-93478397D02*
X89335866Y-92417737D01*
D12*
%TO.C,U1*%
X47904400Y-44602400D02*
X47904400Y-26951940D01*
X47904400Y-26951940D02*
X26949400Y-26951940D01*
X26949400Y-44602400D02*
X26949400Y-26951940D01*
X47904400Y-44602400D02*
X26949400Y-44602400D01*
%TD*%
M02*
