%TF.GenerationSoftware,KiCad,Pcbnew,5.1.7-a382d34a8~88~ubuntu20.04.1*%
%TF.CreationDate,2021-03-20T14:16:57+01:00*%
%TF.ProjectId,WiFiDuck32,57694669-4475-4636-9b33-322e6b696361,2*%
%TF.SameCoordinates,Original*%
%TF.FileFunction,Soldermask,Top*%
%TF.FilePolarity,Negative*%
%FSLAX46Y46*%
G04 Gerber Fmt 4.6, Leading zero omitted, Abs format (unit mm)*
G04 Created by KiCad (PCBNEW 5.1.7-a382d34a8~88~ubuntu20.04.1) date 2021-03-20 14:16:57*
%MOMM*%
%LPD*%
G01*
G04 APERTURE LIST*
%ADD10C,1.524000*%
%ADD11C,1.900000*%
%ADD12C,4.100000*%
%ADD13C,3.000000*%
%ADD14C,4.000000*%
%ADD15R,1.300000X1.400000*%
%ADD16C,2.000000*%
%ADD17C,0.100000*%
%ADD18R,1.524000X1.524000*%
G04 APERTURE END LIST*
D10*
%TO.C,J1*%
X101219000Y-35661600D03*
X101219000Y-33121600D03*
X101219000Y-30581600D03*
X101219000Y-28041600D03*
X101219000Y-38201600D03*
X101219000Y-40741600D03*
X101219000Y-43281600D03*
%TD*%
%TO.C,U1*%
X30734000Y-28459400D03*
X33274000Y-28459400D03*
X35814000Y-28459400D03*
X38354000Y-28459400D03*
X40894000Y-28459400D03*
X43434000Y-28459400D03*
X45974000Y-28459400D03*
X48514000Y-28459400D03*
X51054000Y-28459400D03*
X53594000Y-28459400D03*
X56134000Y-28459400D03*
X58674000Y-28459400D03*
X58674000Y-43679400D03*
X56134000Y-43679400D03*
X53594000Y-43679400D03*
X51054000Y-43679400D03*
X48514000Y-43679400D03*
X45974000Y-43679400D03*
X43434000Y-43679400D03*
X40894000Y-43679400D03*
X38354000Y-43679400D03*
X35814000Y-43679400D03*
X33274000Y-43679400D03*
X30734000Y-43679400D03*
%TD*%
D11*
%TO.C,SW1*%
X31931800Y-59008200D03*
X42091800Y-59008200D03*
D12*
X37011800Y-59008200D03*
D13*
X39551800Y-53928200D03*
X33201800Y-56468200D03*
%TD*%
D14*
%TO.C,HOLE_M3*%
X111963200Y-90982800D03*
%TD*%
%TO.C,HOLE_M3*%
X89001600Y-112979200D03*
%TD*%
%TO.C,HOLE_M3*%
X26009600Y-106019600D03*
%TD*%
%TO.C,HOLE_M3*%
X26009600Y-69037200D03*
%TD*%
%TO.C,HOLE_M3*%
X26009600Y-24003000D03*
%TD*%
%TO.C,HOLE_M3*%
X105359200Y-24231600D03*
%TD*%
D15*
%TO.C,D1*%
X30035500Y-62756500D03*
X30035500Y-66306500D03*
%TD*%
%TO.C,D5*%
X30035500Y-86354000D03*
X30035500Y-82804000D03*
%TD*%
%TO.C,D9*%
X29972000Y-106359500D03*
X29972000Y-102809500D03*
%TD*%
%TO.C,D2*%
X50038000Y-62801500D03*
X50038000Y-66351500D03*
%TD*%
%TO.C,D6*%
X49974500Y-82804000D03*
X49974500Y-86354000D03*
%TD*%
%TO.C,D10*%
X49974500Y-102809500D03*
X49974500Y-106359500D03*
%TD*%
%TO.C,D3*%
X70040500Y-66354500D03*
X70040500Y-62804500D03*
%TD*%
%TO.C,D7*%
X69977000Y-86354000D03*
X69977000Y-82804000D03*
%TD*%
%TO.C,D11*%
X69977000Y-106356500D03*
X69977000Y-102806500D03*
%TD*%
%TO.C,D4*%
X89979500Y-62801500D03*
X89979500Y-66351500D03*
%TD*%
%TO.C,D8*%
X89979500Y-82804000D03*
X89979500Y-86354000D03*
%TD*%
D16*
%TO.C,ENC1*%
X105739414Y-111286482D03*
X109274948Y-107750948D03*
D17*
G36*
X96759158Y-108104502D02*
G01*
X98173372Y-106690288D01*
X100436114Y-108953030D01*
X99021900Y-110367244D01*
X96759158Y-108104502D01*
G37*
G36*
X104678754Y-100184906D02*
G01*
X106092968Y-98770692D01*
X108355710Y-101033434D01*
X106941496Y-102447648D01*
X104678754Y-100184906D01*
G37*
D16*
X95486366Y-101033434D03*
X97254133Y-99265667D03*
D17*
G36*
X97607686Y-97497900D02*
G01*
X99021900Y-96083686D01*
X100436114Y-97497900D01*
X99021900Y-98912114D01*
X97607686Y-97497900D01*
G37*
%TD*%
D13*
%TO.C,SW2*%
X53213000Y-56468200D03*
X59563000Y-53928200D03*
D12*
X57023000Y-59008200D03*
D11*
X62103000Y-59008200D03*
X51943000Y-59008200D03*
%TD*%
D13*
%TO.C,SW3*%
X73198800Y-56468200D03*
X79548800Y-53928200D03*
D12*
X77008800Y-59008200D03*
D11*
X82088800Y-59008200D03*
X71928800Y-59008200D03*
%TD*%
D13*
%TO.C,SW4*%
X93184600Y-56442800D03*
X99534600Y-53902800D03*
D12*
X96994600Y-58982800D03*
D11*
X102074600Y-58982800D03*
X91914600Y-58982800D03*
%TD*%
D13*
%TO.C,SW5*%
X33201800Y-76441300D03*
X39551800Y-73901300D03*
D12*
X37011800Y-78981300D03*
D11*
X42091800Y-78981300D03*
X31931800Y-78981300D03*
%TD*%
D13*
%TO.C,SW6*%
X53187600Y-76454000D03*
X59537600Y-73914000D03*
D12*
X56997600Y-78994000D03*
D11*
X62077600Y-78994000D03*
X51917600Y-78994000D03*
%TD*%
%TO.C,SW7*%
X71903400Y-78994000D03*
X82063400Y-78994000D03*
D12*
X76983400Y-78994000D03*
D13*
X79523400Y-73914000D03*
X73173400Y-76454000D03*
%TD*%
D11*
%TO.C,SW8*%
X91901900Y-78994000D03*
X102061900Y-78994000D03*
D12*
X96981900Y-78994000D03*
D13*
X99521900Y-73914000D03*
X93171900Y-76454000D03*
%TD*%
D11*
%TO.C,SW9*%
X31906400Y-99017900D03*
X42066400Y-99017900D03*
D12*
X36986400Y-99017900D03*
D13*
X39526400Y-93937900D03*
X33176400Y-96477900D03*
%TD*%
D11*
%TO.C,SW10*%
X51930300Y-99005200D03*
X62090300Y-99005200D03*
D12*
X57010300Y-99005200D03*
D13*
X59550300Y-93925200D03*
X53200300Y-96465200D03*
%TD*%
D11*
%TO.C,SW11*%
X71903400Y-99005200D03*
X82063400Y-99005200D03*
D12*
X76983400Y-99005200D03*
D13*
X79523400Y-93925200D03*
X73173400Y-96465200D03*
%TD*%
D18*
%TO.C,U2*%
X69469000Y-48387000D03*
D10*
X66929000Y-48387000D03*
X64389000Y-48387000D03*
X61849000Y-48387000D03*
X59309000Y-48387000D03*
X56769000Y-48387000D03*
X54229000Y-48387000D03*
X51689000Y-48387000D03*
X49149000Y-48387000D03*
X46609000Y-48387000D03*
X44069000Y-48387000D03*
X41529000Y-48387000D03*
X38989000Y-48387000D03*
X36449000Y-48387000D03*
X33909000Y-48387000D03*
X33909000Y-22987000D03*
X36449000Y-22987000D03*
X38989000Y-22987000D03*
X41529000Y-22987000D03*
X44069000Y-22987000D03*
X46609000Y-22987000D03*
X49149000Y-22987000D03*
X51689000Y-22987000D03*
X54229000Y-22987000D03*
X56769000Y-22987000D03*
X59309000Y-22987000D03*
X61849000Y-22987000D03*
X64389000Y-22987000D03*
X66929000Y-22987000D03*
X69469000Y-22987000D03*
%TD*%
D16*
%TO.C,SW_RST1*%
X101461500Y-48514000D03*
X107961500Y-48514000D03*
%TD*%
M02*
