%TF.GenerationSoftware,KiCad,Pcbnew,5.1.7-a382d34a8~88~ubuntu20.04.1*%
%TF.CreationDate,2021-05-04T18:18:29+02:00*%
%TF.ProjectId,WiFiDuck32,57694669-4475-4636-9b33-322e6b696361,2*%
%TF.SameCoordinates,Original*%
%TF.FileFunction,Profile,NP*%
%FSLAX46Y46*%
G04 Gerber Fmt 4.6, Leading zero omitted, Abs format (unit mm)*
G04 Created by KiCad (PCBNEW 5.1.7-a382d34a8~88~ubuntu20.04.1) date 2021-05-04 18:18:29*
%MOMM*%
%LPD*%
G01*
G04 APERTURE LIST*
%TA.AperFunction,Profile*%
%ADD10C,0.200000*%
%TD*%
%TA.AperFunction,Profile*%
%ADD11C,0.120000*%
%TD*%
G04 APERTURE END LIST*
D10*
X22000000Y-27305000D02*
X22000000Y-25000000D01*
X26924000Y-43053000D02*
X22000000Y-45212000D01*
X26924000Y-29083000D02*
X26924000Y-43053000D01*
X26924000Y-29083000D02*
X22000000Y-27305000D01*
X110000016Y-81499937D02*
G75*
G02*
X79499877Y-109999851I-12478016J-17216563D01*
G01*
X110000000Y-48590000D02*
X110000000Y-81500000D01*
X104965500Y-20002500D02*
G75*
G02*
X109965500Y-25002500I0J-5000000D01*
G01*
X109965500Y-25002500D02*
X110000000Y-48590000D01*
X104965500Y-20002500D02*
X27000000Y-20000000D01*
X22000000Y-25000000D02*
G75*
G02*
X27000000Y-20000000I5000000J0D01*
G01*
X22000000Y-105000000D02*
X22000000Y-45212000D01*
X27000000Y-110000000D02*
G75*
G02*
X22000000Y-105000000I0J5000000D01*
G01*
X79500000Y-110000000D02*
X27000000Y-110000000D01*
D11*
%TO.C,LED1*%
X35211800Y-65638200D02*
X35211800Y-62538200D01*
X35211800Y-62538200D02*
X38811800Y-62538200D01*
X38811800Y-62538200D02*
X38811800Y-65638200D01*
X38811800Y-65638200D02*
X35211800Y-65638200D01*
%TO.C,LED2*%
X58823000Y-65638200D02*
X55223000Y-65638200D01*
X58823000Y-62538200D02*
X58823000Y-65638200D01*
X55223000Y-62538200D02*
X58823000Y-62538200D01*
X55223000Y-65638200D02*
X55223000Y-62538200D01*
%TO.C,LED3*%
X75208800Y-65638200D02*
X75208800Y-62538200D01*
X75208800Y-62538200D02*
X78808800Y-62538200D01*
X78808800Y-62538200D02*
X78808800Y-65638200D01*
X78808800Y-65638200D02*
X75208800Y-65638200D01*
%TO.C,LED4*%
X98794600Y-65612800D02*
X95194600Y-65612800D01*
X98794600Y-62512800D02*
X98794600Y-65612800D01*
X95194600Y-62512800D02*
X98794600Y-62512800D01*
X95194600Y-65612800D02*
X95194600Y-62512800D01*
%TO.C,LED5*%
X98781900Y-82524000D02*
X98781900Y-85624000D01*
X98781900Y-85624000D02*
X95181900Y-85624000D01*
X95181900Y-85624000D02*
X95181900Y-82524000D01*
X95181900Y-82524000D02*
X98781900Y-82524000D01*
%TO.C,LED6*%
X75183400Y-82524000D02*
X78783400Y-82524000D01*
X75183400Y-85624000D02*
X75183400Y-82524000D01*
X78783400Y-85624000D02*
X75183400Y-85624000D01*
X78783400Y-82524000D02*
X78783400Y-85624000D01*
%TO.C,LED7*%
X58797600Y-82524000D02*
X58797600Y-85624000D01*
X58797600Y-85624000D02*
X55197600Y-85624000D01*
X55197600Y-85624000D02*
X55197600Y-82524000D01*
X55197600Y-82524000D02*
X58797600Y-82524000D01*
%TO.C,LED8*%
X35211800Y-82511300D02*
X38811800Y-82511300D01*
X35211800Y-85611300D02*
X35211800Y-82511300D01*
X38811800Y-85611300D02*
X35211800Y-85611300D01*
X38811800Y-82511300D02*
X38811800Y-85611300D01*
%TO.C,LED9*%
X35186400Y-105647900D02*
X35186400Y-102547900D01*
X35186400Y-102547900D02*
X38786400Y-102547900D01*
X38786400Y-102547900D02*
X38786400Y-105647900D01*
X38786400Y-105647900D02*
X35186400Y-105647900D01*
%TO.C,LED10*%
X58810300Y-105635200D02*
X55210300Y-105635200D01*
X58810300Y-102535200D02*
X58810300Y-105635200D01*
X55210300Y-102535200D02*
X58810300Y-102535200D01*
X55210300Y-105635200D02*
X55210300Y-102535200D01*
%TO.C,LED11*%
X75183400Y-105635200D02*
X75183400Y-102535200D01*
X75183400Y-102535200D02*
X78783400Y-102535200D01*
X78783400Y-102535200D02*
X78783400Y-105635200D01*
X78783400Y-105635200D02*
X75183400Y-105635200D01*
%TO.C,LED12*%
X90714724Y-95210809D02*
X88522693Y-93018778D01*
X88522693Y-93018778D02*
X91068278Y-90473193D01*
X91068278Y-90473193D02*
X93260309Y-92665224D01*
X93260309Y-92665224D02*
X90714724Y-95210809D01*
%TD*%
M02*
