%TF.GenerationSoftware,KiCad,Pcbnew,5.1.7-a382d34a8~88~ubuntu20.04.1*%
%TF.CreationDate,2021-03-20T14:16:57+01:00*%
%TF.ProjectId,WiFiDuck32,57694669-4475-4636-9b33-322e6b696361,2*%
%TF.SameCoordinates,Original*%
%TF.FileFunction,Legend,Top*%
%TF.FilePolarity,Positive*%
%FSLAX46Y46*%
G04 Gerber Fmt 4.6, Leading zero omitted, Abs format (unit mm)*
G04 Created by KiCad (PCBNEW 5.1.7-a382d34a8~88~ubuntu20.04.1) date 2021-03-20 14:16:57*
%MOMM*%
%LPD*%
G01*
G04 APERTURE LIST*
%ADD10C,0.120000*%
%ADD11C,0.150000*%
G04 APERTURE END LIST*
D10*
%TO.C,J1*%
X98219000Y-22661600D02*
X68219000Y-22661600D01*
X68219000Y-22661600D02*
X68219000Y-48661600D01*
X98219000Y-48661600D02*
X68219000Y-48661600D01*
X98219000Y-22661600D02*
X98219000Y-48661600D01*
X63219000Y-21661600D02*
X63219000Y-49661600D01*
X102219000Y-49511600D02*
X63219000Y-49661600D01*
X102219000Y-21661600D02*
X63219000Y-21661600D01*
X102219000Y-49661600D02*
X102219000Y-21661600D01*
D11*
%TO.C,SW1*%
X30011800Y-66008200D02*
X30011800Y-52008200D01*
X44011800Y-66008200D02*
X30011800Y-66008200D01*
X44011800Y-52008200D02*
X44011800Y-66008200D01*
X30011800Y-52008200D02*
X44011800Y-52008200D01*
%TO.C,D1*%
X30535500Y-64031500D02*
X29535500Y-64031500D01*
X29535500Y-65031500D02*
X30035500Y-64131500D01*
X30535500Y-65031500D02*
X29535500Y-65031500D01*
X30035500Y-64131500D02*
X30535500Y-65031500D01*
%TO.C,D5*%
X30035500Y-84179000D02*
X30535500Y-85079000D01*
X30535500Y-85079000D02*
X29535500Y-85079000D01*
X29535500Y-85079000D02*
X30035500Y-84179000D01*
X30535500Y-84079000D02*
X29535500Y-84079000D01*
%TO.C,D9*%
X29972000Y-104184500D02*
X30472000Y-105084500D01*
X30472000Y-105084500D02*
X29472000Y-105084500D01*
X29472000Y-105084500D02*
X29972000Y-104184500D01*
X30472000Y-104084500D02*
X29472000Y-104084500D01*
%TO.C,D2*%
X50538000Y-64076500D02*
X49538000Y-64076500D01*
X49538000Y-65076500D02*
X50038000Y-64176500D01*
X50538000Y-65076500D02*
X49538000Y-65076500D01*
X50038000Y-64176500D02*
X50538000Y-65076500D01*
%TO.C,D6*%
X50474500Y-84079000D02*
X49474500Y-84079000D01*
X49474500Y-85079000D02*
X49974500Y-84179000D01*
X50474500Y-85079000D02*
X49474500Y-85079000D01*
X49974500Y-84179000D02*
X50474500Y-85079000D01*
%TO.C,D10*%
X50474500Y-104084500D02*
X49474500Y-104084500D01*
X49474500Y-105084500D02*
X49974500Y-104184500D01*
X50474500Y-105084500D02*
X49474500Y-105084500D01*
X49974500Y-104184500D02*
X50474500Y-105084500D01*
%TO.C,D3*%
X70040500Y-64179500D02*
X70540500Y-65079500D01*
X70540500Y-65079500D02*
X69540500Y-65079500D01*
X69540500Y-65079500D02*
X70040500Y-64179500D01*
X70540500Y-64079500D02*
X69540500Y-64079500D01*
%TO.C,D7*%
X69977000Y-84179000D02*
X70477000Y-85079000D01*
X70477000Y-85079000D02*
X69477000Y-85079000D01*
X69477000Y-85079000D02*
X69977000Y-84179000D01*
X70477000Y-84079000D02*
X69477000Y-84079000D01*
%TO.C,D11*%
X69977000Y-104181500D02*
X70477000Y-105081500D01*
X70477000Y-105081500D02*
X69477000Y-105081500D01*
X69477000Y-105081500D02*
X69977000Y-104181500D01*
X70477000Y-104081500D02*
X69477000Y-104081500D01*
%TO.C,D4*%
X90479500Y-64076500D02*
X89479500Y-64076500D01*
X89479500Y-65076500D02*
X89979500Y-64176500D01*
X90479500Y-65076500D02*
X89479500Y-65076500D01*
X89979500Y-64176500D02*
X90479500Y-65076500D01*
%TO.C,D8*%
X90479500Y-84079000D02*
X89479500Y-84079000D01*
X89479500Y-85079000D02*
X89979500Y-84179000D01*
X90479500Y-85079000D02*
X89479500Y-85079000D01*
X89979500Y-84179000D02*
X90479500Y-85079000D01*
D10*
%TO.C,ENC1*%
X105557434Y-104568968D02*
G75*
G03*
X105557434Y-104568968I-3000000J0D01*
G01*
X108143577Y-101811251D02*
X111042715Y-104710389D01*
X102698855Y-113054249D02*
X99799717Y-110155111D01*
X96971290Y-107326684D02*
X94072153Y-104427546D01*
X105315150Y-98982824D02*
X102416013Y-96083686D01*
X102416013Y-96083686D02*
X94072153Y-104427546D01*
X99941139Y-96578661D02*
X99941139Y-96154397D01*
X99941139Y-96154397D02*
X100365403Y-96578661D01*
X100365403Y-96578661D02*
X99941139Y-96578661D01*
X111042715Y-104710389D02*
X109345659Y-106407445D01*
X107790024Y-107963080D02*
X105951546Y-109801558D01*
X104395912Y-111357193D02*
X102698855Y-113054249D01*
X102910987Y-104215414D02*
X102203881Y-104922521D01*
X102203881Y-104215414D02*
X102910987Y-104922521D01*
D11*
%TO.C,SW2*%
X50023000Y-52008200D02*
X64023000Y-52008200D01*
X64023000Y-52008200D02*
X64023000Y-66008200D01*
X64023000Y-66008200D02*
X50023000Y-66008200D01*
X50023000Y-66008200D02*
X50023000Y-52008200D01*
%TO.C,SW3*%
X70008800Y-52008200D02*
X84008800Y-52008200D01*
X84008800Y-52008200D02*
X84008800Y-66008200D01*
X84008800Y-66008200D02*
X70008800Y-66008200D01*
X70008800Y-66008200D02*
X70008800Y-52008200D01*
%TO.C,SW4*%
X89994600Y-51982800D02*
X103994600Y-51982800D01*
X103994600Y-51982800D02*
X103994600Y-65982800D01*
X103994600Y-65982800D02*
X89994600Y-65982800D01*
X89994600Y-65982800D02*
X89994600Y-51982800D01*
%TO.C,SW5*%
X30011800Y-71981300D02*
X44011800Y-71981300D01*
X44011800Y-71981300D02*
X44011800Y-85981300D01*
X44011800Y-85981300D02*
X30011800Y-85981300D01*
X30011800Y-85981300D02*
X30011800Y-71981300D01*
%TO.C,SW6*%
X49997600Y-71994000D02*
X63997600Y-71994000D01*
X63997600Y-71994000D02*
X63997600Y-85994000D01*
X63997600Y-85994000D02*
X49997600Y-85994000D01*
X49997600Y-85994000D02*
X49997600Y-71994000D01*
%TO.C,SW7*%
X69983400Y-85994000D02*
X69983400Y-71994000D01*
X83983400Y-85994000D02*
X69983400Y-85994000D01*
X83983400Y-71994000D02*
X83983400Y-85994000D01*
X69983400Y-71994000D02*
X83983400Y-71994000D01*
%TO.C,SW8*%
X89981900Y-85994000D02*
X89981900Y-71994000D01*
X103981900Y-85994000D02*
X89981900Y-85994000D01*
X103981900Y-71994000D02*
X103981900Y-85994000D01*
X89981900Y-71994000D02*
X103981900Y-71994000D01*
%TO.C,SW9*%
X29986400Y-106017900D02*
X29986400Y-92017900D01*
X43986400Y-106017900D02*
X29986400Y-106017900D01*
X43986400Y-92017900D02*
X43986400Y-106017900D01*
X29986400Y-92017900D02*
X43986400Y-92017900D01*
%TO.C,SW10*%
X50010300Y-106005200D02*
X50010300Y-92005200D01*
X64010300Y-106005200D02*
X50010300Y-106005200D01*
X64010300Y-92005200D02*
X64010300Y-106005200D01*
X50010300Y-92005200D02*
X64010300Y-92005200D01*
%TO.C,SW11*%
X69983400Y-106005200D02*
X69983400Y-92005200D01*
X83983400Y-106005200D02*
X69983400Y-106005200D01*
X83983400Y-92005200D02*
X83983400Y-106005200D01*
X69983400Y-92005200D02*
X83983400Y-92005200D01*
%TO.C,SW_BTN1*%
X105461000Y-28773000D02*
X105711000Y-28773000D01*
X105461000Y-34473000D02*
X105461000Y-28773000D01*
X105461000Y-34473000D02*
X105711000Y-34473000D01*
X108661000Y-34473000D02*
X108411000Y-34473000D01*
X108661000Y-28773000D02*
X108411000Y-28773000D01*
X108661000Y-34473000D02*
X108661000Y-28773000D01*
%TO.C,SW_BTN2*%
X108661000Y-44315500D02*
X108661000Y-38615500D01*
X108661000Y-38615500D02*
X108411000Y-38615500D01*
X108661000Y-44315500D02*
X108411000Y-44315500D01*
X105461000Y-44315500D02*
X105711000Y-44315500D01*
X105461000Y-44315500D02*
X105461000Y-38615500D01*
X105461000Y-38615500D02*
X105711000Y-38615500D01*
%TO.C,J1*%
X104481380Y-35994933D02*
X105195666Y-35994933D01*
X105338523Y-36042552D01*
X105433761Y-36137790D01*
X105481380Y-36280647D01*
X105481380Y-36375885D01*
X105481380Y-34994933D02*
X105481380Y-35566361D01*
X105481380Y-35280647D02*
X104481380Y-35280647D01*
X104624238Y-35375885D01*
X104719476Y-35471123D01*
X104767095Y-35566361D01*
X98844000Y-28613028D02*
X98808285Y-28684457D01*
X98808285Y-28791600D01*
X98844000Y-28898742D01*
X98915428Y-28970171D01*
X98986857Y-29005885D01*
X99129714Y-29041600D01*
X99236857Y-29041600D01*
X99379714Y-29005885D01*
X99451142Y-28970171D01*
X99522571Y-28898742D01*
X99558285Y-28791600D01*
X99558285Y-28720171D01*
X99522571Y-28613028D01*
X99486857Y-28577314D01*
X99236857Y-28577314D01*
X99236857Y-28720171D01*
X99558285Y-28255885D02*
X98808285Y-28255885D01*
X99558285Y-27827314D01*
X98808285Y-27827314D01*
X99558285Y-27470171D02*
X98808285Y-27470171D01*
X98808285Y-27291600D01*
X98844000Y-27184457D01*
X98915428Y-27113028D01*
X98986857Y-27077314D01*
X99129714Y-27041600D01*
X99236857Y-27041600D01*
X99379714Y-27077314D01*
X99451142Y-27113028D01*
X99522571Y-27184457D01*
X99558285Y-27291600D01*
X99558285Y-27470171D01*
X98808285Y-31581600D02*
X99558285Y-31331600D01*
X98808285Y-31081600D01*
X99486857Y-30403028D02*
X99522571Y-30438742D01*
X99558285Y-30545885D01*
X99558285Y-30617314D01*
X99522571Y-30724457D01*
X99451142Y-30795885D01*
X99379714Y-30831600D01*
X99236857Y-30867314D01*
X99129714Y-30867314D01*
X98986857Y-30831600D01*
X98915428Y-30795885D01*
X98844000Y-30724457D01*
X98808285Y-30617314D01*
X98808285Y-30545885D01*
X98844000Y-30438742D01*
X98879714Y-30403028D01*
X99486857Y-29653028D02*
X99522571Y-29688742D01*
X99558285Y-29795885D01*
X99558285Y-29867314D01*
X99522571Y-29974457D01*
X99451142Y-30045885D01*
X99379714Y-30081600D01*
X99236857Y-30117314D01*
X99129714Y-30117314D01*
X98986857Y-30081600D01*
X98915428Y-30045885D01*
X98844000Y-29974457D01*
X98808285Y-29867314D01*
X98808285Y-29795885D01*
X98844000Y-29688742D01*
X98879714Y-29653028D01*
X99522571Y-34014457D02*
X99558285Y-33907314D01*
X99558285Y-33728742D01*
X99522571Y-33657314D01*
X99486857Y-33621600D01*
X99415428Y-33585885D01*
X99344000Y-33585885D01*
X99272571Y-33621600D01*
X99236857Y-33657314D01*
X99201142Y-33728742D01*
X99165428Y-33871600D01*
X99129714Y-33943028D01*
X99094000Y-33978742D01*
X99022571Y-34014457D01*
X98951142Y-34014457D01*
X98879714Y-33978742D01*
X98844000Y-33943028D01*
X98808285Y-33871600D01*
X98808285Y-33693028D01*
X98844000Y-33585885D01*
X99486857Y-32835885D02*
X99522571Y-32871600D01*
X99558285Y-32978742D01*
X99558285Y-33050171D01*
X99522571Y-33157314D01*
X99451142Y-33228742D01*
X99379714Y-33264457D01*
X99236857Y-33300171D01*
X99129714Y-33300171D01*
X98986857Y-33264457D01*
X98915428Y-33228742D01*
X98844000Y-33157314D01*
X98808285Y-33050171D01*
X98808285Y-32978742D01*
X98844000Y-32871600D01*
X98879714Y-32835885D01*
X99558285Y-32157314D02*
X99558285Y-32514457D01*
X98808285Y-32514457D01*
X99522571Y-36572314D02*
X99558285Y-36465171D01*
X99558285Y-36286600D01*
X99522571Y-36215171D01*
X99486857Y-36179457D01*
X99415428Y-36143742D01*
X99344000Y-36143742D01*
X99272571Y-36179457D01*
X99236857Y-36215171D01*
X99201142Y-36286600D01*
X99165428Y-36429457D01*
X99129714Y-36500885D01*
X99094000Y-36536600D01*
X99022571Y-36572314D01*
X98951142Y-36572314D01*
X98879714Y-36536600D01*
X98844000Y-36500885D01*
X98808285Y-36429457D01*
X98808285Y-36250885D01*
X98844000Y-36143742D01*
X99558285Y-35822314D02*
X98808285Y-35822314D01*
X98808285Y-35643742D01*
X98844000Y-35536600D01*
X98915428Y-35465171D01*
X98986857Y-35429457D01*
X99129714Y-35393742D01*
X99236857Y-35393742D01*
X99379714Y-35429457D01*
X99451142Y-35465171D01*
X99522571Y-35536600D01*
X99558285Y-35643742D01*
X99558285Y-35822314D01*
X99344000Y-35108028D02*
X99344000Y-34750885D01*
X99558285Y-35179457D02*
X98808285Y-34929457D01*
X99558285Y-34679457D01*
X99558285Y-38665885D02*
X99201142Y-38915885D01*
X99558285Y-39094457D02*
X98808285Y-39094457D01*
X98808285Y-38808742D01*
X98844000Y-38737314D01*
X98879714Y-38701600D01*
X98951142Y-38665885D01*
X99058285Y-38665885D01*
X99129714Y-38701600D01*
X99165428Y-38737314D01*
X99201142Y-38808742D01*
X99201142Y-39094457D01*
X99165428Y-38344457D02*
X99165428Y-38094457D01*
X99558285Y-37987314D02*
X99558285Y-38344457D01*
X98808285Y-38344457D01*
X98808285Y-37987314D01*
X99522571Y-37701600D02*
X99558285Y-37594457D01*
X99558285Y-37415885D01*
X99522571Y-37344457D01*
X99486857Y-37308742D01*
X99415428Y-37273028D01*
X99344000Y-37273028D01*
X99272571Y-37308742D01*
X99236857Y-37344457D01*
X99201142Y-37415885D01*
X99165428Y-37558742D01*
X99129714Y-37630171D01*
X99094000Y-37665885D01*
X99022571Y-37701600D01*
X98951142Y-37701600D01*
X98879714Y-37665885D01*
X98844000Y-37630171D01*
X98808285Y-37558742D01*
X98808285Y-37380171D01*
X98844000Y-37273028D01*
X99558285Y-41313028D02*
X98808285Y-41313028D01*
X98808285Y-41134457D01*
X98844000Y-41027314D01*
X98915428Y-40955885D01*
X98986857Y-40920171D01*
X99129714Y-40884457D01*
X99236857Y-40884457D01*
X99379714Y-40920171D01*
X99451142Y-40955885D01*
X99522571Y-41027314D01*
X99558285Y-41134457D01*
X99558285Y-41313028D01*
X99486857Y-40134457D02*
X99522571Y-40170171D01*
X99558285Y-40277314D01*
X99558285Y-40348742D01*
X99522571Y-40455885D01*
X99451142Y-40527314D01*
X99379714Y-40563028D01*
X99236857Y-40598742D01*
X99129714Y-40598742D01*
X98986857Y-40563028D01*
X98915428Y-40527314D01*
X98844000Y-40455885D01*
X98808285Y-40348742D01*
X98808285Y-40277314D01*
X98844000Y-40170171D01*
X98879714Y-40134457D01*
X99165428Y-43906600D02*
X99201142Y-43799457D01*
X99236857Y-43763742D01*
X99308285Y-43728028D01*
X99415428Y-43728028D01*
X99486857Y-43763742D01*
X99522571Y-43799457D01*
X99558285Y-43870885D01*
X99558285Y-44156600D01*
X98808285Y-44156600D01*
X98808285Y-43906600D01*
X98844000Y-43835171D01*
X98879714Y-43799457D01*
X98951142Y-43763742D01*
X99022571Y-43763742D01*
X99094000Y-43799457D01*
X99129714Y-43835171D01*
X99165428Y-43906600D01*
X99165428Y-44156600D01*
X99558285Y-43049457D02*
X99558285Y-43406600D01*
X98808285Y-43406600D01*
X99558285Y-42799457D02*
X98808285Y-42799457D01*
X99558285Y-42370885D02*
X99129714Y-42692314D01*
X98808285Y-42370885D02*
X99236857Y-42799457D01*
%TO.C,U1*%
%TO.C,ENC1*%
X103163525Y-94891706D02*
X103399227Y-95127408D01*
X103129853Y-95598813D02*
X102793136Y-95262095D01*
X103500243Y-94554988D01*
X103836960Y-94891706D01*
X103432899Y-95901858D02*
X104140006Y-95194752D01*
X103836960Y-96305919D01*
X104544067Y-95598813D01*
X104645082Y-96979354D02*
X104577739Y-96979354D01*
X104443052Y-96912011D01*
X104375708Y-96844667D01*
X104308365Y-96709980D01*
X104308365Y-96575293D01*
X104342036Y-96474278D01*
X104443052Y-96305919D01*
X104544067Y-96204904D01*
X104712426Y-96103889D01*
X104813441Y-96070217D01*
X104948128Y-96070217D01*
X105082815Y-96137561D01*
X105150158Y-96204904D01*
X105217502Y-96339591D01*
X105217502Y-96406935D01*
X105251174Y-97720133D02*
X104847113Y-97316072D01*
X105049143Y-97518102D02*
X105756250Y-96810996D01*
X105587891Y-96844667D01*
X105453204Y-96844667D01*
X105352189Y-96810996D01*
%TO.C,SW_BTN1*%
X107513380Y-33075380D02*
X107037190Y-33408714D01*
X107513380Y-33646809D02*
X106513380Y-33646809D01*
X106513380Y-33265857D01*
X106561000Y-33170619D01*
X106608619Y-33123000D01*
X106703857Y-33075380D01*
X106846714Y-33075380D01*
X106941952Y-33123000D01*
X106989571Y-33170619D01*
X107037190Y-33265857D01*
X107037190Y-33646809D01*
X106989571Y-32646809D02*
X106989571Y-32313476D01*
X107513380Y-32170619D02*
X107513380Y-32646809D01*
X106513380Y-32646809D01*
X106513380Y-32170619D01*
X107465761Y-31789666D02*
X107513380Y-31646809D01*
X107513380Y-31408714D01*
X107465761Y-31313476D01*
X107418142Y-31265857D01*
X107322904Y-31218238D01*
X107227666Y-31218238D01*
X107132428Y-31265857D01*
X107084809Y-31313476D01*
X107037190Y-31408714D01*
X106989571Y-31599190D01*
X106941952Y-31694428D01*
X106894333Y-31742047D01*
X106799095Y-31789666D01*
X106703857Y-31789666D01*
X106608619Y-31742047D01*
X106561000Y-31694428D01*
X106513380Y-31599190D01*
X106513380Y-31361095D01*
X106561000Y-31218238D01*
X106989571Y-30789666D02*
X106989571Y-30456333D01*
X107513380Y-30313476D02*
X107513380Y-30789666D01*
X106513380Y-30789666D01*
X106513380Y-30313476D01*
X106513380Y-30027761D02*
X106513380Y-29456333D01*
X107513380Y-29742047D02*
X106513380Y-29742047D01*
%TO.C,SW_BTN2*%
X107513380Y-42917880D02*
X107037190Y-43251214D01*
X107513380Y-43489309D02*
X106513380Y-43489309D01*
X106513380Y-43108357D01*
X106561000Y-43013119D01*
X106608619Y-42965500D01*
X106703857Y-42917880D01*
X106846714Y-42917880D01*
X106941952Y-42965500D01*
X106989571Y-43013119D01*
X107037190Y-43108357D01*
X107037190Y-43489309D01*
X106989571Y-42489309D02*
X106989571Y-42155976D01*
X107513380Y-42013119D02*
X107513380Y-42489309D01*
X106513380Y-42489309D01*
X106513380Y-42013119D01*
X107465761Y-41632166D02*
X107513380Y-41489309D01*
X107513380Y-41251214D01*
X107465761Y-41155976D01*
X107418142Y-41108357D01*
X107322904Y-41060738D01*
X107227666Y-41060738D01*
X107132428Y-41108357D01*
X107084809Y-41155976D01*
X107037190Y-41251214D01*
X106989571Y-41441690D01*
X106941952Y-41536928D01*
X106894333Y-41584547D01*
X106799095Y-41632166D01*
X106703857Y-41632166D01*
X106608619Y-41584547D01*
X106561000Y-41536928D01*
X106513380Y-41441690D01*
X106513380Y-41203595D01*
X106561000Y-41060738D01*
X106989571Y-40632166D02*
X106989571Y-40298833D01*
X107513380Y-40155976D02*
X107513380Y-40632166D01*
X106513380Y-40632166D01*
X106513380Y-40155976D01*
X106513380Y-39870261D02*
X106513380Y-39298833D01*
X107513380Y-39584547D02*
X106513380Y-39584547D01*
%TD*%
M02*
