%TF.GenerationSoftware,KiCad,Pcbnew,5.1.7-a382d34a8~88~ubuntu20.04.1*%
%TF.CreationDate,2021-03-20T14:17:19+01:00*%
%TF.ProjectId,WiFiDuck32,57694669-4475-4636-9b33-322e6b696361,2*%
%TF.SameCoordinates,Original*%
%TF.FileFunction,Legend,Top*%
%TF.FilePolarity,Positive*%
%FSLAX46Y46*%
G04 Gerber Fmt 4.6, Leading zero omitted, Abs format (unit mm)*
G04 Created by KiCad (PCBNEW 5.1.7-a382d34a8~88~ubuntu20.04.1) date 2021-03-20 14:17:19*
%MOMM*%
%LPD*%
G01*
G04 APERTURE LIST*
%ADD10C,0.010000*%
G04 APERTURE END LIST*
D10*
%TO.C,G\u002A\u002A\u002A*%
G36*
X52053381Y-29831889D02*
G01*
X52193037Y-29915359D01*
X52269437Y-30046782D01*
X52281666Y-30141511D01*
X52259218Y-30285699D01*
X52201967Y-30421286D01*
X52125050Y-30517047D01*
X52089270Y-30538370D01*
X51936507Y-30566677D01*
X51773321Y-30551627D01*
X51638447Y-30498263D01*
X51609722Y-30475935D01*
X51489292Y-30322108D01*
X51441433Y-30161333D01*
X51467981Y-30008373D01*
X51538909Y-29906576D01*
X51626524Y-29839435D01*
X51734422Y-29808696D01*
X51858333Y-29802667D01*
X52053381Y-29831889D01*
G37*
X52053381Y-29831889D02*
X52193037Y-29915359D01*
X52269437Y-30046782D01*
X52281666Y-30141511D01*
X52259218Y-30285699D01*
X52201967Y-30421286D01*
X52125050Y-30517047D01*
X52089270Y-30538370D01*
X51936507Y-30566677D01*
X51773321Y-30551627D01*
X51638447Y-30498263D01*
X51609722Y-30475935D01*
X51489292Y-30322108D01*
X51441433Y-30161333D01*
X51467981Y-30008373D01*
X51538909Y-29906576D01*
X51626524Y-29839435D01*
X51734422Y-29808696D01*
X51858333Y-29802667D01*
X52053381Y-29831889D01*
G36*
X48455048Y-29831889D02*
G01*
X48594704Y-29915359D01*
X48671103Y-30046782D01*
X48683333Y-30141511D01*
X48660885Y-30285699D01*
X48603634Y-30421286D01*
X48526717Y-30517047D01*
X48490936Y-30538370D01*
X48338173Y-30566677D01*
X48174988Y-30551627D01*
X48040113Y-30498263D01*
X48011389Y-30475935D01*
X47890959Y-30322108D01*
X47843100Y-30161333D01*
X47869648Y-30008373D01*
X47940575Y-29906576D01*
X48028191Y-29839435D01*
X48136089Y-29808696D01*
X48260000Y-29802667D01*
X48455048Y-29831889D01*
G37*
X48455048Y-29831889D02*
X48594704Y-29915359D01*
X48671103Y-30046782D01*
X48683333Y-30141511D01*
X48660885Y-30285699D01*
X48603634Y-30421286D01*
X48526717Y-30517047D01*
X48490936Y-30538370D01*
X48338173Y-30566677D01*
X48174988Y-30551627D01*
X48040113Y-30498263D01*
X48011389Y-30475935D01*
X47890959Y-30322108D01*
X47843100Y-30161333D01*
X47869648Y-30008373D01*
X47940575Y-29906576D01*
X48028191Y-29839435D01*
X48136089Y-29808696D01*
X48260000Y-29802667D01*
X48455048Y-29831889D01*
G36*
X51799579Y-30682197D02*
G01*
X51896251Y-30693750D01*
X52053599Y-30721657D01*
X52159042Y-30772300D01*
X52224334Y-30834520D01*
X52259730Y-30878924D01*
X52285571Y-30926430D01*
X52303358Y-30990333D01*
X52314593Y-31083927D01*
X52320777Y-31220508D01*
X52323411Y-31413371D01*
X52323996Y-31675810D01*
X52324000Y-31717277D01*
X52324951Y-31996434D01*
X52328502Y-32203336D01*
X52335701Y-32350382D01*
X52347593Y-32449969D01*
X52365226Y-32514495D01*
X52389646Y-32556360D01*
X52395413Y-32563077D01*
X52440493Y-32623973D01*
X52430020Y-32673492D01*
X52376762Y-32732052D01*
X52263864Y-32798455D01*
X52106611Y-32836981D01*
X51939406Y-32844363D01*
X51796651Y-32817333D01*
X51747750Y-32791786D01*
X51692316Y-32742205D01*
X51649022Y-32676235D01*
X51616094Y-32583150D01*
X51591762Y-32452220D01*
X51574251Y-32272717D01*
X51561789Y-32033912D01*
X51552605Y-31725078D01*
X51549730Y-31593223D01*
X51542986Y-31287001D01*
X51539462Y-31055541D01*
X51542973Y-30888938D01*
X51557334Y-30777291D01*
X51586360Y-30710697D01*
X51633866Y-30679252D01*
X51703667Y-30673053D01*
X51799579Y-30682197D01*
G37*
X51799579Y-30682197D02*
X51896251Y-30693750D01*
X52053599Y-30721657D01*
X52159042Y-30772300D01*
X52224334Y-30834520D01*
X52259730Y-30878924D01*
X52285571Y-30926430D01*
X52303358Y-30990333D01*
X52314593Y-31083927D01*
X52320777Y-31220508D01*
X52323411Y-31413371D01*
X52323996Y-31675810D01*
X52324000Y-31717277D01*
X52324951Y-31996434D01*
X52328502Y-32203336D01*
X52335701Y-32350382D01*
X52347593Y-32449969D01*
X52365226Y-32514495D01*
X52389646Y-32556360D01*
X52395413Y-32563077D01*
X52440493Y-32623973D01*
X52430020Y-32673492D01*
X52376762Y-32732052D01*
X52263864Y-32798455D01*
X52106611Y-32836981D01*
X51939406Y-32844363D01*
X51796651Y-32817333D01*
X51747750Y-32791786D01*
X51692316Y-32742205D01*
X51649022Y-32676235D01*
X51616094Y-32583150D01*
X51591762Y-32452220D01*
X51574251Y-32272717D01*
X51561789Y-32033912D01*
X51552605Y-31725078D01*
X51549730Y-31593223D01*
X51542986Y-31287001D01*
X51539462Y-31055541D01*
X51542973Y-30888938D01*
X51557334Y-30777291D01*
X51586360Y-30710697D01*
X51633866Y-30679252D01*
X51703667Y-30673053D01*
X51799579Y-30682197D01*
G36*
X51227158Y-29986126D02*
G01*
X51251502Y-30175515D01*
X51220776Y-30334922D01*
X51139186Y-30445128D01*
X51124404Y-30455252D01*
X51042575Y-30483240D01*
X50900798Y-30510036D01*
X50723740Y-30531435D01*
X50636723Y-30538344D01*
X50388293Y-30560522D01*
X50212645Y-30592414D01*
X50098024Y-30639006D01*
X50032677Y-30705287D01*
X50004851Y-30796241D01*
X50003676Y-30806925D01*
X50005091Y-30905077D01*
X50047582Y-30952867D01*
X50100468Y-30970357D01*
X50212370Y-30981513D01*
X50376189Y-30978457D01*
X50560763Y-30963295D01*
X50734930Y-30938129D01*
X50807837Y-30922586D01*
X50883758Y-30912068D01*
X50923237Y-30943921D01*
X50948404Y-31038038D01*
X50950898Y-31051173D01*
X50959193Y-31253813D01*
X50910189Y-31429338D01*
X50811202Y-31558956D01*
X50735177Y-31605114D01*
X50599285Y-31646967D01*
X50469024Y-31665299D01*
X50464684Y-31665333D01*
X50271220Y-31699932D01*
X50114846Y-31796168D01*
X50057070Y-31864973D01*
X50005051Y-32002215D01*
X49989811Y-32171539D01*
X50013435Y-32328535D01*
X50033097Y-32375840D01*
X50076913Y-32513564D01*
X50044431Y-32636918D01*
X49961600Y-32736913D01*
X49823369Y-32822331D01*
X49659293Y-32856540D01*
X49498762Y-32838477D01*
X49371165Y-32767078D01*
X49362842Y-32758583D01*
X49329006Y-32718931D01*
X49301505Y-32673920D01*
X49279270Y-32614162D01*
X49261233Y-32530269D01*
X49246324Y-32412852D01*
X49233475Y-32252524D01*
X49221617Y-32039895D01*
X49209679Y-31765579D01*
X49196595Y-31420186D01*
X49190152Y-31242000D01*
X49178252Y-30929909D01*
X49165885Y-30640056D01*
X49153686Y-30384867D01*
X49142287Y-30176770D01*
X49132324Y-30028191D01*
X49124429Y-29951556D01*
X49124295Y-29950833D01*
X49100234Y-29823833D01*
X51183479Y-29823833D01*
X51227158Y-29986126D01*
G37*
X51227158Y-29986126D02*
X51251502Y-30175515D01*
X51220776Y-30334922D01*
X51139186Y-30445128D01*
X51124404Y-30455252D01*
X51042575Y-30483240D01*
X50900798Y-30510036D01*
X50723740Y-30531435D01*
X50636723Y-30538344D01*
X50388293Y-30560522D01*
X50212645Y-30592414D01*
X50098024Y-30639006D01*
X50032677Y-30705287D01*
X50004851Y-30796241D01*
X50003676Y-30806925D01*
X50005091Y-30905077D01*
X50047582Y-30952867D01*
X50100468Y-30970357D01*
X50212370Y-30981513D01*
X50376189Y-30978457D01*
X50560763Y-30963295D01*
X50734930Y-30938129D01*
X50807837Y-30922586D01*
X50883758Y-30912068D01*
X50923237Y-30943921D01*
X50948404Y-31038038D01*
X50950898Y-31051173D01*
X50959193Y-31253813D01*
X50910189Y-31429338D01*
X50811202Y-31558956D01*
X50735177Y-31605114D01*
X50599285Y-31646967D01*
X50469024Y-31665299D01*
X50464684Y-31665333D01*
X50271220Y-31699932D01*
X50114846Y-31796168D01*
X50057070Y-31864973D01*
X50005051Y-32002215D01*
X49989811Y-32171539D01*
X50013435Y-32328535D01*
X50033097Y-32375840D01*
X50076913Y-32513564D01*
X50044431Y-32636918D01*
X49961600Y-32736913D01*
X49823369Y-32822331D01*
X49659293Y-32856540D01*
X49498762Y-32838477D01*
X49371165Y-32767078D01*
X49362842Y-32758583D01*
X49329006Y-32718931D01*
X49301505Y-32673920D01*
X49279270Y-32614162D01*
X49261233Y-32530269D01*
X49246324Y-32412852D01*
X49233475Y-32252524D01*
X49221617Y-32039895D01*
X49209679Y-31765579D01*
X49196595Y-31420186D01*
X49190152Y-31242000D01*
X49178252Y-30929909D01*
X49165885Y-30640056D01*
X49153686Y-30384867D01*
X49142287Y-30176770D01*
X49132324Y-30028191D01*
X49124429Y-29951556D01*
X49124295Y-29950833D01*
X49100234Y-29823833D01*
X51183479Y-29823833D01*
X51227158Y-29986126D01*
G36*
X48201245Y-30682197D02*
G01*
X48297918Y-30693750D01*
X48455266Y-30721657D01*
X48560709Y-30772300D01*
X48626001Y-30834520D01*
X48661396Y-30878924D01*
X48687237Y-30926430D01*
X48705025Y-30990333D01*
X48716260Y-31083927D01*
X48722444Y-31220508D01*
X48725078Y-31413371D01*
X48725662Y-31675810D01*
X48725666Y-31717277D01*
X48726617Y-31996434D01*
X48730169Y-32203336D01*
X48737367Y-32350382D01*
X48749260Y-32449969D01*
X48766893Y-32514495D01*
X48791313Y-32556360D01*
X48797079Y-32563077D01*
X48842160Y-32623973D01*
X48831687Y-32673492D01*
X48778428Y-32732052D01*
X48665531Y-32798455D01*
X48508278Y-32836981D01*
X48341073Y-32844363D01*
X48198318Y-32817333D01*
X48149417Y-32791786D01*
X48093983Y-32742205D01*
X48050689Y-32676235D01*
X48017761Y-32583150D01*
X47993428Y-32452220D01*
X47975917Y-32272717D01*
X47963456Y-32033912D01*
X47954272Y-31725078D01*
X47951396Y-31593223D01*
X47944653Y-31287001D01*
X47941129Y-31055541D01*
X47944640Y-30888938D01*
X47959001Y-30777291D01*
X47988026Y-30710697D01*
X48035532Y-30679252D01*
X48105334Y-30673053D01*
X48201245Y-30682197D01*
G37*
X48201245Y-30682197D02*
X48297918Y-30693750D01*
X48455266Y-30721657D01*
X48560709Y-30772300D01*
X48626001Y-30834520D01*
X48661396Y-30878924D01*
X48687237Y-30926430D01*
X48705025Y-30990333D01*
X48716260Y-31083927D01*
X48722444Y-31220508D01*
X48725078Y-31413371D01*
X48725662Y-31675810D01*
X48725666Y-31717277D01*
X48726617Y-31996434D01*
X48730169Y-32203336D01*
X48737367Y-32350382D01*
X48749260Y-32449969D01*
X48766893Y-32514495D01*
X48791313Y-32556360D01*
X48797079Y-32563077D01*
X48842160Y-32623973D01*
X48831687Y-32673492D01*
X48778428Y-32732052D01*
X48665531Y-32798455D01*
X48508278Y-32836981D01*
X48341073Y-32844363D01*
X48198318Y-32817333D01*
X48149417Y-32791786D01*
X48093983Y-32742205D01*
X48050689Y-32676235D01*
X48017761Y-32583150D01*
X47993428Y-32452220D01*
X47975917Y-32272717D01*
X47963456Y-32033912D01*
X47954272Y-31725078D01*
X47951396Y-31593223D01*
X47944653Y-31287001D01*
X47941129Y-31055541D01*
X47944640Y-30888938D01*
X47959001Y-30777291D01*
X47988026Y-30710697D01*
X48035532Y-30679252D01*
X48105334Y-30673053D01*
X48201245Y-30682197D01*
G36*
X47151876Y-29788127D02*
G01*
X47290550Y-29853530D01*
X47425997Y-29939068D01*
X47525275Y-30026338D01*
X47531964Y-30034476D01*
X47587701Y-30112296D01*
X47626070Y-30190197D01*
X47645839Y-30278964D01*
X47645774Y-30389380D01*
X47624643Y-30532232D01*
X47581211Y-30718303D01*
X47514247Y-30958378D01*
X47422517Y-31263243D01*
X47373162Y-31423370D01*
X47284789Y-31704583D01*
X47200494Y-31964740D01*
X47124667Y-32190916D01*
X47061699Y-32370183D01*
X47015979Y-32489614D01*
X46997762Y-32528741D01*
X46863351Y-32694595D01*
X46699417Y-32793923D01*
X46520958Y-32820987D01*
X46353162Y-32775309D01*
X46240961Y-32693691D01*
X46179184Y-32597585D01*
X46178930Y-32596667D01*
X46110284Y-32350150D01*
X46056772Y-32172695D01*
X46013888Y-32051009D01*
X45977126Y-31971796D01*
X45955993Y-31938939D01*
X45888865Y-31883544D01*
X45821704Y-31902167D01*
X45752117Y-31997618D01*
X45677710Y-32172707D01*
X45627372Y-32324873D01*
X45568539Y-32496826D01*
X45508587Y-32640441D01*
X45457003Y-32734146D01*
X45438276Y-32754862D01*
X45311326Y-32801076D01*
X45145232Y-32797751D01*
X44967835Y-32747129D01*
X44894500Y-32711088D01*
X44781779Y-32634552D01*
X44723992Y-32550360D01*
X44699086Y-32447201D01*
X44678416Y-32365230D01*
X44632665Y-32215274D01*
X44565683Y-32008917D01*
X44481321Y-31757744D01*
X44383429Y-31473342D01*
X44275856Y-31167294D01*
X44244003Y-31077837D01*
X44136629Y-30776658D01*
X44039085Y-30502084D01*
X43954857Y-30264005D01*
X43887430Y-30072311D01*
X43840289Y-29936889D01*
X43816922Y-29867630D01*
X43815000Y-29860754D01*
X43853322Y-29845154D01*
X43953629Y-29839079D01*
X44093935Y-29841241D01*
X44252251Y-29850353D01*
X44406589Y-29865127D01*
X44534962Y-29884275D01*
X44615381Y-29906511D01*
X44617909Y-29907764D01*
X44672010Y-29939959D01*
X44715163Y-29982045D01*
X44753432Y-30047836D01*
X44792883Y-30151144D01*
X44839582Y-30305780D01*
X44899593Y-30525559D01*
X44915666Y-30585833D01*
X44979417Y-30822425D01*
X45027354Y-30989103D01*
X45064535Y-31098007D01*
X45096015Y-31161276D01*
X45126850Y-31191052D01*
X45162097Y-31199474D01*
X45171318Y-31199667D01*
X45237319Y-31168424D01*
X45285271Y-31066783D01*
X45292471Y-31040917D01*
X45387486Y-30664443D01*
X45465917Y-30328699D01*
X45507923Y-30130750D01*
X45556669Y-29887333D01*
X45725784Y-29887333D01*
X45835743Y-29891393D01*
X45920689Y-29911079D01*
X45989092Y-29957654D01*
X46049423Y-30042380D01*
X46110152Y-30176520D01*
X46179748Y-30371334D01*
X46248952Y-30582939D01*
X46321644Y-30800025D01*
X46390489Y-30989991D01*
X46449469Y-31137341D01*
X46492566Y-31226578D01*
X46505730Y-31244127D01*
X46592075Y-31276877D01*
X46668184Y-31228933D01*
X46728522Y-31104139D01*
X46734042Y-31085590D01*
X46780674Y-30909717D01*
X46830937Y-30701707D01*
X46880623Y-30481348D01*
X46925526Y-30268431D01*
X46961438Y-30082744D01*
X46984151Y-29944078D01*
X46990000Y-29881644D01*
X47006131Y-29793018D01*
X47042916Y-29761263D01*
X47151876Y-29788127D01*
G37*
X47151876Y-29788127D02*
X47290550Y-29853530D01*
X47425997Y-29939068D01*
X47525275Y-30026338D01*
X47531964Y-30034476D01*
X47587701Y-30112296D01*
X47626070Y-30190197D01*
X47645839Y-30278964D01*
X47645774Y-30389380D01*
X47624643Y-30532232D01*
X47581211Y-30718303D01*
X47514247Y-30958378D01*
X47422517Y-31263243D01*
X47373162Y-31423370D01*
X47284789Y-31704583D01*
X47200494Y-31964740D01*
X47124667Y-32190916D01*
X47061699Y-32370183D01*
X47015979Y-32489614D01*
X46997762Y-32528741D01*
X46863351Y-32694595D01*
X46699417Y-32793923D01*
X46520958Y-32820987D01*
X46353162Y-32775309D01*
X46240961Y-32693691D01*
X46179184Y-32597585D01*
X46178930Y-32596667D01*
X46110284Y-32350150D01*
X46056772Y-32172695D01*
X46013888Y-32051009D01*
X45977126Y-31971796D01*
X45955993Y-31938939D01*
X45888865Y-31883544D01*
X45821704Y-31902167D01*
X45752117Y-31997618D01*
X45677710Y-32172707D01*
X45627372Y-32324873D01*
X45568539Y-32496826D01*
X45508587Y-32640441D01*
X45457003Y-32734146D01*
X45438276Y-32754862D01*
X45311326Y-32801076D01*
X45145232Y-32797751D01*
X44967835Y-32747129D01*
X44894500Y-32711088D01*
X44781779Y-32634552D01*
X44723992Y-32550360D01*
X44699086Y-32447201D01*
X44678416Y-32365230D01*
X44632665Y-32215274D01*
X44565683Y-32008917D01*
X44481321Y-31757744D01*
X44383429Y-31473342D01*
X44275856Y-31167294D01*
X44244003Y-31077837D01*
X44136629Y-30776658D01*
X44039085Y-30502084D01*
X43954857Y-30264005D01*
X43887430Y-30072311D01*
X43840289Y-29936889D01*
X43816922Y-29867630D01*
X43815000Y-29860754D01*
X43853322Y-29845154D01*
X43953629Y-29839079D01*
X44093935Y-29841241D01*
X44252251Y-29850353D01*
X44406589Y-29865127D01*
X44534962Y-29884275D01*
X44615381Y-29906511D01*
X44617909Y-29907764D01*
X44672010Y-29939959D01*
X44715163Y-29982045D01*
X44753432Y-30047836D01*
X44792883Y-30151144D01*
X44839582Y-30305780D01*
X44899593Y-30525559D01*
X44915666Y-30585833D01*
X44979417Y-30822425D01*
X45027354Y-30989103D01*
X45064535Y-31098007D01*
X45096015Y-31161276D01*
X45126850Y-31191052D01*
X45162097Y-31199474D01*
X45171318Y-31199667D01*
X45237319Y-31168424D01*
X45285271Y-31066783D01*
X45292471Y-31040917D01*
X45387486Y-30664443D01*
X45465917Y-30328699D01*
X45507923Y-30130750D01*
X45556669Y-29887333D01*
X45725784Y-29887333D01*
X45835743Y-29891393D01*
X45920689Y-29911079D01*
X45989092Y-29957654D01*
X46049423Y-30042380D01*
X46110152Y-30176520D01*
X46179748Y-30371334D01*
X46248952Y-30582939D01*
X46321644Y-30800025D01*
X46390489Y-30989991D01*
X46449469Y-31137341D01*
X46492566Y-31226578D01*
X46505730Y-31244127D01*
X46592075Y-31276877D01*
X46668184Y-31228933D01*
X46728522Y-31104139D01*
X46734042Y-31085590D01*
X46780674Y-30909717D01*
X46830937Y-30701707D01*
X46880623Y-30481348D01*
X46925526Y-30268431D01*
X46961438Y-30082744D01*
X46984151Y-29944078D01*
X46990000Y-29881644D01*
X47006131Y-29793018D01*
X47042916Y-29761263D01*
X47151876Y-29788127D01*
G36*
X53692648Y-33503182D02*
G01*
X53871427Y-33549891D01*
X54015760Y-33617036D01*
X54101120Y-33695861D01*
X54103235Y-33699641D01*
X54121798Y-33775262D01*
X54135999Y-33911040D01*
X54143622Y-34082491D01*
X54144333Y-34153656D01*
X54147002Y-34341714D01*
X54157414Y-34464862D01*
X54179174Y-34542758D01*
X54215887Y-34595056D01*
X54227294Y-34605956D01*
X54296893Y-34649679D01*
X54380954Y-34657213D01*
X54493162Y-34624813D01*
X54647201Y-34548736D01*
X54831616Y-34440618D01*
X54974877Y-34358317D01*
X55091783Y-34300505D01*
X55163314Y-34276240D01*
X55174238Y-34277427D01*
X55225284Y-34340984D01*
X55282154Y-34456713D01*
X55332835Y-34594018D01*
X55365313Y-34722307D01*
X55371070Y-34778665D01*
X55355719Y-34868011D01*
X55299643Y-34961391D01*
X55189844Y-35079072D01*
X55160333Y-35107271D01*
X55045178Y-35222016D01*
X54981133Y-35308484D01*
X54953796Y-35392034D01*
X54948666Y-35479972D01*
X54954404Y-35567959D01*
X54979242Y-35644881D01*
X55034617Y-35729684D01*
X55131965Y-35841313D01*
X55227268Y-35941480D01*
X55356911Y-36078586D01*
X55434909Y-36171578D01*
X55470278Y-36235408D01*
X55472034Y-36285025D01*
X55456694Y-36321948D01*
X55354925Y-36429620D01*
X55200061Y-36498936D01*
X55017020Y-36524435D01*
X54830719Y-36500660D01*
X54758166Y-36474962D01*
X54667356Y-36415130D01*
X54549558Y-36310629D01*
X54429708Y-36183661D01*
X54425576Y-36178842D01*
X54315617Y-36055456D01*
X54242492Y-35990205D01*
X54192415Y-35973359D01*
X54157758Y-35989758D01*
X54115020Y-36073039D01*
X54121100Y-36177709D01*
X54126628Y-36285054D01*
X54080513Y-36362441D01*
X54033960Y-36402674D01*
X53873921Y-36479341D01*
X53701815Y-36479740D01*
X53541033Y-36404483D01*
X53522277Y-36389255D01*
X53403500Y-36287177D01*
X53380109Y-34960505D01*
X53373281Y-34630814D01*
X53365035Y-34326275D01*
X53355817Y-34057781D01*
X53346074Y-33836221D01*
X53336253Y-33672485D01*
X53326801Y-33577465D01*
X53322663Y-33559750D01*
X53312366Y-33516106D01*
X53344907Y-33493914D01*
X53437268Y-33486236D01*
X53503947Y-33485667D01*
X53692648Y-33503182D01*
G37*
X53692648Y-33503182D02*
X53871427Y-33549891D01*
X54015760Y-33617036D01*
X54101120Y-33695861D01*
X54103235Y-33699641D01*
X54121798Y-33775262D01*
X54135999Y-33911040D01*
X54143622Y-34082491D01*
X54144333Y-34153656D01*
X54147002Y-34341714D01*
X54157414Y-34464862D01*
X54179174Y-34542758D01*
X54215887Y-34595056D01*
X54227294Y-34605956D01*
X54296893Y-34649679D01*
X54380954Y-34657213D01*
X54493162Y-34624813D01*
X54647201Y-34548736D01*
X54831616Y-34440618D01*
X54974877Y-34358317D01*
X55091783Y-34300505D01*
X55163314Y-34276240D01*
X55174238Y-34277427D01*
X55225284Y-34340984D01*
X55282154Y-34456713D01*
X55332835Y-34594018D01*
X55365313Y-34722307D01*
X55371070Y-34778665D01*
X55355719Y-34868011D01*
X55299643Y-34961391D01*
X55189844Y-35079072D01*
X55160333Y-35107271D01*
X55045178Y-35222016D01*
X54981133Y-35308484D01*
X54953796Y-35392034D01*
X54948666Y-35479972D01*
X54954404Y-35567959D01*
X54979242Y-35644881D01*
X55034617Y-35729684D01*
X55131965Y-35841313D01*
X55227268Y-35941480D01*
X55356911Y-36078586D01*
X55434909Y-36171578D01*
X55470278Y-36235408D01*
X55472034Y-36285025D01*
X55456694Y-36321948D01*
X55354925Y-36429620D01*
X55200061Y-36498936D01*
X55017020Y-36524435D01*
X54830719Y-36500660D01*
X54758166Y-36474962D01*
X54667356Y-36415130D01*
X54549558Y-36310629D01*
X54429708Y-36183661D01*
X54425576Y-36178842D01*
X54315617Y-36055456D01*
X54242492Y-35990205D01*
X54192415Y-35973359D01*
X54157758Y-35989758D01*
X54115020Y-36073039D01*
X54121100Y-36177709D01*
X54126628Y-36285054D01*
X54080513Y-36362441D01*
X54033960Y-36402674D01*
X53873921Y-36479341D01*
X53701815Y-36479740D01*
X53541033Y-36404483D01*
X53522277Y-36389255D01*
X53403500Y-36287177D01*
X53380109Y-34960505D01*
X53373281Y-34630814D01*
X53365035Y-34326275D01*
X53355817Y-34057781D01*
X53346074Y-33836221D01*
X53336253Y-33672485D01*
X53326801Y-33577465D01*
X53322663Y-33559750D01*
X53312366Y-33516106D01*
X53344907Y-33493914D01*
X53437268Y-33486236D01*
X53503947Y-33485667D01*
X53692648Y-33503182D01*
G36*
X52486230Y-34325526D02*
G01*
X52687390Y-34409309D01*
X52833151Y-34533912D01*
X52904810Y-34679821D01*
X52912305Y-34833222D01*
X52863821Y-34973689D01*
X52767543Y-35080800D01*
X52631659Y-35134130D01*
X52591564Y-35136667D01*
X52491993Y-35128329D01*
X52460939Y-35098324D01*
X52466061Y-35073812D01*
X52455101Y-35007423D01*
X52384718Y-34957810D01*
X52280035Y-34937239D01*
X52203640Y-34945705D01*
X52041795Y-35026122D01*
X51919698Y-35164772D01*
X51848146Y-35340322D01*
X51837939Y-35531439D01*
X51859199Y-35626124D01*
X51943696Y-35780833D01*
X52077275Y-35870043D01*
X52267163Y-35898667D01*
X52450176Y-35883667D01*
X52603619Y-35829878D01*
X52758660Y-35724112D01*
X52834333Y-35658689D01*
X52935526Y-35570022D01*
X52995301Y-35532339D01*
X53034319Y-35539051D01*
X53072603Y-35582717D01*
X53118926Y-35710383D01*
X53105755Y-35870314D01*
X53041475Y-36044164D01*
X52934469Y-36213588D01*
X52793119Y-36360239D01*
X52682072Y-36437361D01*
X52514499Y-36498239D01*
X52298586Y-36529470D01*
X52065749Y-36529827D01*
X51847402Y-36498083D01*
X51762997Y-36473267D01*
X51505261Y-36341944D01*
X51310986Y-36154576D01*
X51180173Y-35911162D01*
X51112822Y-35611703D01*
X51110379Y-35587526D01*
X51118947Y-35268864D01*
X51201474Y-34974702D01*
X51351563Y-34716555D01*
X51562818Y-34505934D01*
X51785015Y-34373184D01*
X52013176Y-34304110D01*
X52254203Y-34289342D01*
X52486230Y-34325526D01*
G37*
X52486230Y-34325526D02*
X52687390Y-34409309D01*
X52833151Y-34533912D01*
X52904810Y-34679821D01*
X52912305Y-34833222D01*
X52863821Y-34973689D01*
X52767543Y-35080800D01*
X52631659Y-35134130D01*
X52591564Y-35136667D01*
X52491993Y-35128329D01*
X52460939Y-35098324D01*
X52466061Y-35073812D01*
X52455101Y-35007423D01*
X52384718Y-34957810D01*
X52280035Y-34937239D01*
X52203640Y-34945705D01*
X52041795Y-35026122D01*
X51919698Y-35164772D01*
X51848146Y-35340322D01*
X51837939Y-35531439D01*
X51859199Y-35626124D01*
X51943696Y-35780833D01*
X52077275Y-35870043D01*
X52267163Y-35898667D01*
X52450176Y-35883667D01*
X52603619Y-35829878D01*
X52758660Y-35724112D01*
X52834333Y-35658689D01*
X52935526Y-35570022D01*
X52995301Y-35532339D01*
X53034319Y-35539051D01*
X53072603Y-35582717D01*
X53118926Y-35710383D01*
X53105755Y-35870314D01*
X53041475Y-36044164D01*
X52934469Y-36213588D01*
X52793119Y-36360239D01*
X52682072Y-36437361D01*
X52514499Y-36498239D01*
X52298586Y-36529470D01*
X52065749Y-36529827D01*
X51847402Y-36498083D01*
X51762997Y-36473267D01*
X51505261Y-36341944D01*
X51310986Y-36154576D01*
X51180173Y-35911162D01*
X51112822Y-35611703D01*
X51110379Y-35587526D01*
X51118947Y-35268864D01*
X51201474Y-34974702D01*
X51351563Y-34716555D01*
X51562818Y-34505934D01*
X51785015Y-34373184D01*
X52013176Y-34304110D01*
X52254203Y-34289342D01*
X52486230Y-34325526D01*
G36*
X46400077Y-33509504D02*
G01*
X46577250Y-33514024D01*
X46886186Y-33526073D01*
X47159727Y-33545156D01*
X47380928Y-33569807D01*
X47521821Y-33595687D01*
X47803359Y-33703454D01*
X48048627Y-33870154D01*
X48239297Y-34081944D01*
X48299871Y-34183307D01*
X48344776Y-34277012D01*
X48375184Y-34364524D01*
X48393834Y-34465346D01*
X48403467Y-34598978D01*
X48406822Y-34784921D01*
X48406929Y-34945307D01*
X48398813Y-35267295D01*
X48373380Y-35522276D01*
X48326567Y-35726867D01*
X48254312Y-35897684D01*
X48152553Y-36051343D01*
X48129550Y-36079966D01*
X47986298Y-36231398D01*
X47832571Y-36341040D01*
X47650039Y-36416455D01*
X47420372Y-36465203D01*
X47125241Y-36494846D01*
X47123642Y-36494954D01*
X46888103Y-36509149D01*
X46646169Y-36520897D01*
X46431682Y-36528687D01*
X46318312Y-36530955D01*
X46159149Y-36531152D01*
X46068604Y-36524736D01*
X46030636Y-36506388D01*
X46029207Y-36470784D01*
X46039391Y-36438417D01*
X46048988Y-36371317D01*
X46058863Y-36232021D01*
X46068487Y-36032995D01*
X46077333Y-35786707D01*
X46084871Y-35505623D01*
X46089876Y-35247363D01*
X46093545Y-35018290D01*
X46867386Y-35018290D01*
X46870362Y-35136667D01*
X46879978Y-35394684D01*
X46893818Y-35577215D01*
X46917359Y-35693432D01*
X46956084Y-35752503D01*
X47015471Y-35763602D01*
X47101001Y-35735898D01*
X47199788Y-35687958D01*
X47392154Y-35544917D01*
X47526484Y-35348204D01*
X47597729Y-35110184D01*
X47600838Y-34843221D01*
X47584853Y-34745032D01*
X47506035Y-34517179D01*
X47379507Y-34357368D01*
X47207490Y-34267676D01*
X47052375Y-34247667D01*
X46977640Y-34274553D01*
X46922982Y-34359151D01*
X46887194Y-34507368D01*
X46869065Y-34725112D01*
X46867386Y-35018290D01*
X46093545Y-35018290D01*
X46107428Y-34151560D01*
X45998381Y-33908570D01*
X45932566Y-33761139D01*
X45893136Y-33653857D01*
X45888899Y-33580717D01*
X45928665Y-33535717D01*
X46021244Y-33512851D01*
X46175445Y-33506115D01*
X46400077Y-33509504D01*
G37*
X46400077Y-33509504D02*
X46577250Y-33514024D01*
X46886186Y-33526073D01*
X47159727Y-33545156D01*
X47380928Y-33569807D01*
X47521821Y-33595687D01*
X47803359Y-33703454D01*
X48048627Y-33870154D01*
X48239297Y-34081944D01*
X48299871Y-34183307D01*
X48344776Y-34277012D01*
X48375184Y-34364524D01*
X48393834Y-34465346D01*
X48403467Y-34598978D01*
X48406822Y-34784921D01*
X48406929Y-34945307D01*
X48398813Y-35267295D01*
X48373380Y-35522276D01*
X48326567Y-35726867D01*
X48254312Y-35897684D01*
X48152553Y-36051343D01*
X48129550Y-36079966D01*
X47986298Y-36231398D01*
X47832571Y-36341040D01*
X47650039Y-36416455D01*
X47420372Y-36465203D01*
X47125241Y-36494846D01*
X47123642Y-36494954D01*
X46888103Y-36509149D01*
X46646169Y-36520897D01*
X46431682Y-36528687D01*
X46318312Y-36530955D01*
X46159149Y-36531152D01*
X46068604Y-36524736D01*
X46030636Y-36506388D01*
X46029207Y-36470784D01*
X46039391Y-36438417D01*
X46048988Y-36371317D01*
X46058863Y-36232021D01*
X46068487Y-36032995D01*
X46077333Y-35786707D01*
X46084871Y-35505623D01*
X46089876Y-35247363D01*
X46093545Y-35018290D01*
X46867386Y-35018290D01*
X46870362Y-35136667D01*
X46879978Y-35394684D01*
X46893818Y-35577215D01*
X46917359Y-35693432D01*
X46956084Y-35752503D01*
X47015471Y-35763602D01*
X47101001Y-35735898D01*
X47199788Y-35687958D01*
X47392154Y-35544917D01*
X47526484Y-35348204D01*
X47597729Y-35110184D01*
X47600838Y-34843221D01*
X47584853Y-34745032D01*
X47506035Y-34517179D01*
X47379507Y-34357368D01*
X47207490Y-34267676D01*
X47052375Y-34247667D01*
X46977640Y-34274553D01*
X46922982Y-34359151D01*
X46887194Y-34507368D01*
X46869065Y-34725112D01*
X46867386Y-35018290D01*
X46093545Y-35018290D01*
X46107428Y-34151560D01*
X45998381Y-33908570D01*
X45932566Y-33761139D01*
X45893136Y-33653857D01*
X45888899Y-33580717D01*
X45928665Y-33535717D01*
X46021244Y-33512851D01*
X46175445Y-33506115D01*
X46400077Y-33509504D01*
G36*
X50165568Y-34340571D02*
G01*
X50387827Y-34377006D01*
X50535985Y-34445335D01*
X50651833Y-34531685D01*
X50675870Y-35352759D01*
X50686745Y-35640688D01*
X50701022Y-35892277D01*
X50717693Y-36094708D01*
X50735747Y-36235162D01*
X50749954Y-36293006D01*
X50785613Y-36387758D01*
X50800000Y-36444961D01*
X50762435Y-36494138D01*
X50668789Y-36535878D01*
X50547630Y-36564315D01*
X50427530Y-36573577D01*
X50337058Y-36557799D01*
X50316623Y-36544250D01*
X50264796Y-36532711D01*
X50144668Y-36523046D01*
X49972597Y-36516095D01*
X49764942Y-36512699D01*
X49699107Y-36512500D01*
X49427249Y-36509197D01*
X49225146Y-36495594D01*
X49078020Y-36466145D01*
X48971093Y-36415305D01*
X48889588Y-36337531D01*
X48818726Y-36227278D01*
X48789166Y-36171101D01*
X48759478Y-36104174D01*
X48737040Y-36027343D01*
X48720544Y-35927299D01*
X48708681Y-35790733D01*
X48700139Y-35604335D01*
X48693611Y-35354797D01*
X48690014Y-35163419D01*
X48675529Y-34322338D01*
X48975985Y-34339315D01*
X49150565Y-34354724D01*
X49265163Y-34381549D01*
X49344346Y-34426753D01*
X49371470Y-34451405D01*
X49408722Y-34493049D01*
X49434378Y-34540622D01*
X49450255Y-34609159D01*
X49458167Y-34713695D01*
X49459929Y-34869265D01*
X49457356Y-35090906D01*
X49456318Y-35154241D01*
X49454011Y-35418223D01*
X49459486Y-35608614D01*
X49476040Y-35736372D01*
X49506968Y-35812455D01*
X49555564Y-35847820D01*
X49625124Y-35853424D01*
X49665253Y-35849000D01*
X49751983Y-35816598D01*
X49817280Y-35741449D01*
X49863469Y-35614862D01*
X49892873Y-35428147D01*
X49907817Y-35172615D01*
X49910934Y-34930495D01*
X49911000Y-34322157D01*
X50165568Y-34340571D01*
G37*
X50165568Y-34340571D02*
X50387827Y-34377006D01*
X50535985Y-34445335D01*
X50651833Y-34531685D01*
X50675870Y-35352759D01*
X50686745Y-35640688D01*
X50701022Y-35892277D01*
X50717693Y-36094708D01*
X50735747Y-36235162D01*
X50749954Y-36293006D01*
X50785613Y-36387758D01*
X50800000Y-36444961D01*
X50762435Y-36494138D01*
X50668789Y-36535878D01*
X50547630Y-36564315D01*
X50427530Y-36573577D01*
X50337058Y-36557799D01*
X50316623Y-36544250D01*
X50264796Y-36532711D01*
X50144668Y-36523046D01*
X49972597Y-36516095D01*
X49764942Y-36512699D01*
X49699107Y-36512500D01*
X49427249Y-36509197D01*
X49225146Y-36495594D01*
X49078020Y-36466145D01*
X48971093Y-36415305D01*
X48889588Y-36337531D01*
X48818726Y-36227278D01*
X48789166Y-36171101D01*
X48759478Y-36104174D01*
X48737040Y-36027343D01*
X48720544Y-35927299D01*
X48708681Y-35790733D01*
X48700139Y-35604335D01*
X48693611Y-35354797D01*
X48690014Y-35163419D01*
X48675529Y-34322338D01*
X48975985Y-34339315D01*
X49150565Y-34354724D01*
X49265163Y-34381549D01*
X49344346Y-34426753D01*
X49371470Y-34451405D01*
X49408722Y-34493049D01*
X49434378Y-34540622D01*
X49450255Y-34609159D01*
X49458167Y-34713695D01*
X49459929Y-34869265D01*
X49457356Y-35090906D01*
X49456318Y-35154241D01*
X49454011Y-35418223D01*
X49459486Y-35608614D01*
X49476040Y-35736372D01*
X49506968Y-35812455D01*
X49555564Y-35847820D01*
X49625124Y-35853424D01*
X49665253Y-35849000D01*
X49751983Y-35816598D01*
X49817280Y-35741449D01*
X49863469Y-35614862D01*
X49892873Y-35428147D01*
X49907817Y-35172615D01*
X49910934Y-34930495D01*
X49911000Y-34322157D01*
X50165568Y-34340571D01*
G36*
X40871361Y-30350177D02*
G01*
X41218257Y-30397115D01*
X41509926Y-30456651D01*
X41775685Y-30536843D01*
X42044852Y-30645747D01*
X42185166Y-30711210D01*
X42606076Y-30959304D01*
X42970082Y-31268145D01*
X43275030Y-31633895D01*
X43518765Y-32052719D01*
X43699131Y-32520780D01*
X43813974Y-33034240D01*
X43861140Y-33589263D01*
X43862274Y-33697333D01*
X43829099Y-34205989D01*
X43728541Y-34671878D01*
X43557726Y-35100068D01*
X43313778Y-35495631D01*
X42993819Y-35863634D01*
X42594973Y-36209146D01*
X42329191Y-36399339D01*
X42084317Y-36563768D01*
X42896742Y-36590458D01*
X43293992Y-36607657D01*
X43650518Y-36633608D01*
X43982557Y-36671535D01*
X44306344Y-36724663D01*
X44638116Y-36796216D01*
X44994111Y-36889417D01*
X45390564Y-37007492D01*
X45843712Y-37153664D01*
X46006658Y-37208012D01*
X46284947Y-37299174D01*
X46555679Y-37383797D01*
X46801779Y-37456848D01*
X47006167Y-37513293D01*
X47151767Y-37548098D01*
X47175963Y-37552655D01*
X47583840Y-37582156D01*
X47976679Y-37528464D01*
X48352339Y-37392065D01*
X48645839Y-37218998D01*
X48803028Y-37108945D01*
X48901664Y-37045410D01*
X48953908Y-37028347D01*
X48971921Y-37057715D01*
X48967863Y-37133469D01*
X48957970Y-37217880D01*
X48849282Y-37977047D01*
X48702312Y-38678855D01*
X48518796Y-39316074D01*
X48340132Y-39790349D01*
X48033325Y-40424124D01*
X47674308Y-41007704D01*
X47268111Y-41535946D01*
X46819765Y-42003706D01*
X46334303Y-42405843D01*
X45816755Y-42737213D01*
X45272154Y-42992675D01*
X45169666Y-43030908D01*
X45032065Y-43079246D01*
X44904781Y-43120421D01*
X44779909Y-43154989D01*
X44649540Y-43183506D01*
X44505769Y-43206526D01*
X44340689Y-43224607D01*
X44146392Y-43238303D01*
X43914973Y-43248170D01*
X43638524Y-43254764D01*
X43309139Y-43258640D01*
X42918911Y-43260355D01*
X42459933Y-43260463D01*
X41924298Y-43259521D01*
X41916859Y-43259504D01*
X41473252Y-43257855D01*
X41048260Y-43255010D01*
X40650707Y-43251116D01*
X40289417Y-43246315D01*
X39973214Y-43240752D01*
X39710924Y-43234573D01*
X39511369Y-43227921D01*
X39383375Y-43220940D01*
X39349686Y-43217478D01*
X38772413Y-43099772D01*
X38254159Y-42922779D01*
X37792265Y-42685219D01*
X37384074Y-42385808D01*
X37141313Y-42152109D01*
X36904856Y-41871218D01*
X36720988Y-41582664D01*
X36571217Y-41255217D01*
X36509215Y-41084500D01*
X36437822Y-40806732D01*
X36389272Y-40476183D01*
X36364875Y-40121363D01*
X36365313Y-39976853D01*
X39021835Y-39976853D01*
X39080622Y-40291940D01*
X39206492Y-40599920D01*
X39397041Y-40893338D01*
X39649863Y-41164740D01*
X39962551Y-41406672D01*
X40332702Y-41611679D01*
X40428333Y-41653930D01*
X40670375Y-41745229D01*
X40914841Y-41812780D01*
X41178479Y-41858858D01*
X41478034Y-41885737D01*
X41830255Y-41895690D01*
X42185166Y-41892508D01*
X42517278Y-41881751D01*
X42827624Y-41864521D01*
X43096962Y-41842203D01*
X43306049Y-41816180D01*
X43349333Y-41808763D01*
X43609317Y-41758261D01*
X43847020Y-41708007D01*
X44049643Y-41661088D01*
X44204388Y-41620593D01*
X44298457Y-41589610D01*
X44321490Y-41574176D01*
X44287983Y-41542454D01*
X44197763Y-41473591D01*
X44064434Y-41377605D01*
X43901597Y-41264518D01*
X43895014Y-41260020D01*
X43717361Y-41137146D01*
X43601538Y-41051492D01*
X43538420Y-40994080D01*
X43518885Y-40955935D01*
X43533809Y-40928080D01*
X43547273Y-40917883D01*
X43610577Y-40880215D01*
X43733409Y-40811151D01*
X43900574Y-40719098D01*
X44096871Y-40612460D01*
X44196000Y-40559088D01*
X44396212Y-40450777D01*
X44570007Y-40355192D01*
X44703634Y-40280018D01*
X44783340Y-40232940D01*
X44798861Y-40222165D01*
X44775492Y-40193255D01*
X44688964Y-40136235D01*
X44552687Y-40059129D01*
X44380069Y-39969961D01*
X44364944Y-39962475D01*
X44186594Y-39872148D01*
X44039855Y-39793398D01*
X43939372Y-39734403D01*
X43899786Y-39703343D01*
X43899666Y-39702595D01*
X43934757Y-39673489D01*
X44032785Y-39609527D01*
X44182885Y-39517346D01*
X44374191Y-39403582D01*
X44595838Y-39274871D01*
X44662558Y-39236657D01*
X44929561Y-39082357D01*
X45127137Y-38963641D01*
X45260834Y-38876754D01*
X45336197Y-38817942D01*
X45358773Y-38783452D01*
X45348355Y-38772509D01*
X45227582Y-38738741D01*
X45034692Y-38698250D01*
X44781813Y-38652731D01*
X44481077Y-38603881D01*
X44144614Y-38553393D01*
X43784551Y-38502964D01*
X43413021Y-38454288D01*
X43042152Y-38409061D01*
X42684074Y-38368977D01*
X42350917Y-38335732D01*
X42054811Y-38311021D01*
X42037000Y-38309741D01*
X41498705Y-38282767D01*
X41032764Y-38284830D01*
X40631475Y-38317406D01*
X40287136Y-38381969D01*
X39992045Y-38479994D01*
X39738501Y-38612957D01*
X39518802Y-38782331D01*
X39505634Y-38794520D01*
X39272032Y-39063492D01*
X39115135Y-39355174D01*
X39032538Y-39662113D01*
X39021835Y-39976853D01*
X36365313Y-39976853D01*
X36365939Y-39770780D01*
X36393770Y-39452944D01*
X36426389Y-39279244D01*
X36553998Y-38861545D01*
X36734820Y-38449421D01*
X36975336Y-38030983D01*
X37282029Y-37594340D01*
X37484638Y-37338000D01*
X37733503Y-37031572D01*
X37928821Y-36785294D01*
X38073074Y-36595840D01*
X38168746Y-36459887D01*
X38218319Y-36374109D01*
X38227000Y-36344050D01*
X38205023Y-36286279D01*
X38146404Y-36178172D01*
X38062106Y-36039407D01*
X38025916Y-35983182D01*
X37824833Y-35675617D01*
X37380333Y-35682901D01*
X36901244Y-35659815D01*
X36473833Y-35572423D01*
X36092150Y-35418451D01*
X35750244Y-35195621D01*
X35498089Y-34962789D01*
X35301688Y-34724584D01*
X35135289Y-34463931D01*
X35002868Y-34193698D01*
X34908400Y-33926754D01*
X34855862Y-33675965D01*
X34851615Y-33534001D01*
X35253323Y-33534001D01*
X35274904Y-33694896D01*
X35344109Y-33952073D01*
X35476743Y-34223835D01*
X35658381Y-34491500D01*
X35874595Y-34736384D01*
X36110958Y-34939803D01*
X36343482Y-35078756D01*
X36639954Y-35185643D01*
X36965454Y-35254227D01*
X37296342Y-35282825D01*
X37608980Y-35269753D01*
X37879728Y-35213330D01*
X37938029Y-35192281D01*
X38039022Y-35143131D01*
X38095607Y-35098630D01*
X38100000Y-35087678D01*
X38076527Y-35039287D01*
X38012823Y-34938169D01*
X37918958Y-34799701D01*
X37818824Y-34658358D01*
X37618082Y-34364936D01*
X37472776Y-34114431D01*
X37376019Y-33892451D01*
X37320924Y-33684604D01*
X37307736Y-33590385D01*
X37289251Y-33458332D01*
X37267102Y-33365005D01*
X37252325Y-33336877D01*
X37204188Y-33349777D01*
X37116027Y-33404089D01*
X37057292Y-33448162D01*
X36916404Y-33550177D01*
X36764941Y-33645199D01*
X36724166Y-33667683D01*
X36522252Y-33733891D01*
X36266591Y-33755154D01*
X35974920Y-33731890D01*
X35664979Y-33664519D01*
X35586578Y-33640788D01*
X35253323Y-33534001D01*
X34851615Y-33534001D01*
X34849227Y-33454199D01*
X34892474Y-33274324D01*
X34949140Y-33186047D01*
X35031538Y-33129279D01*
X35150666Y-33108776D01*
X35317197Y-33125174D01*
X35541809Y-33179109D01*
X35714877Y-33231667D01*
X35980983Y-33309235D01*
X36191024Y-33347277D01*
X36365245Y-33342944D01*
X36523891Y-33293386D01*
X36687207Y-33195756D01*
X36845073Y-33072632D01*
X36884241Y-33043526D01*
X38730957Y-33043526D01*
X38752449Y-33251038D01*
X38845235Y-33442529D01*
X38867716Y-33471388D01*
X39005463Y-33576440D01*
X39185055Y-33630587D01*
X39378886Y-33631351D01*
X39559349Y-33576254D01*
X39620334Y-33538952D01*
X39711868Y-33447149D01*
X39796254Y-33324006D01*
X39808282Y-33301177D01*
X39865080Y-33110489D01*
X39840163Y-32926554D01*
X39732381Y-32744366D01*
X39662580Y-32667619D01*
X39562330Y-32572799D01*
X39483685Y-32525799D01*
X39390381Y-32513385D01*
X39261014Y-32521085D01*
X39102699Y-32543855D01*
X38992056Y-32589787D01*
X38898511Y-32667616D01*
X38779922Y-32841787D01*
X38730957Y-33043526D01*
X36884241Y-33043526D01*
X36973093Y-32977500D01*
X37093932Y-32906249D01*
X37164435Y-32879029D01*
X37234873Y-32853062D01*
X37281626Y-32795202D01*
X37319900Y-32683101D01*
X37333061Y-32631219D01*
X37374786Y-32498517D01*
X37444323Y-32317247D01*
X37530933Y-32114221D01*
X37599027Y-31967145D01*
X37710126Y-31747256D01*
X37813393Y-31575379D01*
X37930191Y-31421289D01*
X38081881Y-31254758D01*
X38156161Y-31178852D01*
X38341818Y-30999431D01*
X38502039Y-30866511D01*
X38663821Y-30760112D01*
X38854158Y-30660256D01*
X38862000Y-30656475D01*
X39349160Y-30467108D01*
X39863024Y-30355640D01*
X40407067Y-30321543D01*
X40871361Y-30350177D01*
G37*
X40871361Y-30350177D02*
X41218257Y-30397115D01*
X41509926Y-30456651D01*
X41775685Y-30536843D01*
X42044852Y-30645747D01*
X42185166Y-30711210D01*
X42606076Y-30959304D01*
X42970082Y-31268145D01*
X43275030Y-31633895D01*
X43518765Y-32052719D01*
X43699131Y-32520780D01*
X43813974Y-33034240D01*
X43861140Y-33589263D01*
X43862274Y-33697333D01*
X43829099Y-34205989D01*
X43728541Y-34671878D01*
X43557726Y-35100068D01*
X43313778Y-35495631D01*
X42993819Y-35863634D01*
X42594973Y-36209146D01*
X42329191Y-36399339D01*
X42084317Y-36563768D01*
X42896742Y-36590458D01*
X43293992Y-36607657D01*
X43650518Y-36633608D01*
X43982557Y-36671535D01*
X44306344Y-36724663D01*
X44638116Y-36796216D01*
X44994111Y-36889417D01*
X45390564Y-37007492D01*
X45843712Y-37153664D01*
X46006658Y-37208012D01*
X46284947Y-37299174D01*
X46555679Y-37383797D01*
X46801779Y-37456848D01*
X47006167Y-37513293D01*
X47151767Y-37548098D01*
X47175963Y-37552655D01*
X47583840Y-37582156D01*
X47976679Y-37528464D01*
X48352339Y-37392065D01*
X48645839Y-37218998D01*
X48803028Y-37108945D01*
X48901664Y-37045410D01*
X48953908Y-37028347D01*
X48971921Y-37057715D01*
X48967863Y-37133469D01*
X48957970Y-37217880D01*
X48849282Y-37977047D01*
X48702312Y-38678855D01*
X48518796Y-39316074D01*
X48340132Y-39790349D01*
X48033325Y-40424124D01*
X47674308Y-41007704D01*
X47268111Y-41535946D01*
X46819765Y-42003706D01*
X46334303Y-42405843D01*
X45816755Y-42737213D01*
X45272154Y-42992675D01*
X45169666Y-43030908D01*
X45032065Y-43079246D01*
X44904781Y-43120421D01*
X44779909Y-43154989D01*
X44649540Y-43183506D01*
X44505769Y-43206526D01*
X44340689Y-43224607D01*
X44146392Y-43238303D01*
X43914973Y-43248170D01*
X43638524Y-43254764D01*
X43309139Y-43258640D01*
X42918911Y-43260355D01*
X42459933Y-43260463D01*
X41924298Y-43259521D01*
X41916859Y-43259504D01*
X41473252Y-43257855D01*
X41048260Y-43255010D01*
X40650707Y-43251116D01*
X40289417Y-43246315D01*
X39973214Y-43240752D01*
X39710924Y-43234573D01*
X39511369Y-43227921D01*
X39383375Y-43220940D01*
X39349686Y-43217478D01*
X38772413Y-43099772D01*
X38254159Y-42922779D01*
X37792265Y-42685219D01*
X37384074Y-42385808D01*
X37141313Y-42152109D01*
X36904856Y-41871218D01*
X36720988Y-41582664D01*
X36571217Y-41255217D01*
X36509215Y-41084500D01*
X36437822Y-40806732D01*
X36389272Y-40476183D01*
X36364875Y-40121363D01*
X36365313Y-39976853D01*
X39021835Y-39976853D01*
X39080622Y-40291940D01*
X39206492Y-40599920D01*
X39397041Y-40893338D01*
X39649863Y-41164740D01*
X39962551Y-41406672D01*
X40332702Y-41611679D01*
X40428333Y-41653930D01*
X40670375Y-41745229D01*
X40914841Y-41812780D01*
X41178479Y-41858858D01*
X41478034Y-41885737D01*
X41830255Y-41895690D01*
X42185166Y-41892508D01*
X42517278Y-41881751D01*
X42827624Y-41864521D01*
X43096962Y-41842203D01*
X43306049Y-41816180D01*
X43349333Y-41808763D01*
X43609317Y-41758261D01*
X43847020Y-41708007D01*
X44049643Y-41661088D01*
X44204388Y-41620593D01*
X44298457Y-41589610D01*
X44321490Y-41574176D01*
X44287983Y-41542454D01*
X44197763Y-41473591D01*
X44064434Y-41377605D01*
X43901597Y-41264518D01*
X43895014Y-41260020D01*
X43717361Y-41137146D01*
X43601538Y-41051492D01*
X43538420Y-40994080D01*
X43518885Y-40955935D01*
X43533809Y-40928080D01*
X43547273Y-40917883D01*
X43610577Y-40880215D01*
X43733409Y-40811151D01*
X43900574Y-40719098D01*
X44096871Y-40612460D01*
X44196000Y-40559088D01*
X44396212Y-40450777D01*
X44570007Y-40355192D01*
X44703634Y-40280018D01*
X44783340Y-40232940D01*
X44798861Y-40222165D01*
X44775492Y-40193255D01*
X44688964Y-40136235D01*
X44552687Y-40059129D01*
X44380069Y-39969961D01*
X44364944Y-39962475D01*
X44186594Y-39872148D01*
X44039855Y-39793398D01*
X43939372Y-39734403D01*
X43899786Y-39703343D01*
X43899666Y-39702595D01*
X43934757Y-39673489D01*
X44032785Y-39609527D01*
X44182885Y-39517346D01*
X44374191Y-39403582D01*
X44595838Y-39274871D01*
X44662558Y-39236657D01*
X44929561Y-39082357D01*
X45127137Y-38963641D01*
X45260834Y-38876754D01*
X45336197Y-38817942D01*
X45358773Y-38783452D01*
X45348355Y-38772509D01*
X45227582Y-38738741D01*
X45034692Y-38698250D01*
X44781813Y-38652731D01*
X44481077Y-38603881D01*
X44144614Y-38553393D01*
X43784551Y-38502964D01*
X43413021Y-38454288D01*
X43042152Y-38409061D01*
X42684074Y-38368977D01*
X42350917Y-38335732D01*
X42054811Y-38311021D01*
X42037000Y-38309741D01*
X41498705Y-38282767D01*
X41032764Y-38284830D01*
X40631475Y-38317406D01*
X40287136Y-38381969D01*
X39992045Y-38479994D01*
X39738501Y-38612957D01*
X39518802Y-38782331D01*
X39505634Y-38794520D01*
X39272032Y-39063492D01*
X39115135Y-39355174D01*
X39032538Y-39662113D01*
X39021835Y-39976853D01*
X36365313Y-39976853D01*
X36365939Y-39770780D01*
X36393770Y-39452944D01*
X36426389Y-39279244D01*
X36553998Y-38861545D01*
X36734820Y-38449421D01*
X36975336Y-38030983D01*
X37282029Y-37594340D01*
X37484638Y-37338000D01*
X37733503Y-37031572D01*
X37928821Y-36785294D01*
X38073074Y-36595840D01*
X38168746Y-36459887D01*
X38218319Y-36374109D01*
X38227000Y-36344050D01*
X38205023Y-36286279D01*
X38146404Y-36178172D01*
X38062106Y-36039407D01*
X38025916Y-35983182D01*
X37824833Y-35675617D01*
X37380333Y-35682901D01*
X36901244Y-35659815D01*
X36473833Y-35572423D01*
X36092150Y-35418451D01*
X35750244Y-35195621D01*
X35498089Y-34962789D01*
X35301688Y-34724584D01*
X35135289Y-34463931D01*
X35002868Y-34193698D01*
X34908400Y-33926754D01*
X34855862Y-33675965D01*
X34851615Y-33534001D01*
X35253323Y-33534001D01*
X35274904Y-33694896D01*
X35344109Y-33952073D01*
X35476743Y-34223835D01*
X35658381Y-34491500D01*
X35874595Y-34736384D01*
X36110958Y-34939803D01*
X36343482Y-35078756D01*
X36639954Y-35185643D01*
X36965454Y-35254227D01*
X37296342Y-35282825D01*
X37608980Y-35269753D01*
X37879728Y-35213330D01*
X37938029Y-35192281D01*
X38039022Y-35143131D01*
X38095607Y-35098630D01*
X38100000Y-35087678D01*
X38076527Y-35039287D01*
X38012823Y-34938169D01*
X37918958Y-34799701D01*
X37818824Y-34658358D01*
X37618082Y-34364936D01*
X37472776Y-34114431D01*
X37376019Y-33892451D01*
X37320924Y-33684604D01*
X37307736Y-33590385D01*
X37289251Y-33458332D01*
X37267102Y-33365005D01*
X37252325Y-33336877D01*
X37204188Y-33349777D01*
X37116027Y-33404089D01*
X37057292Y-33448162D01*
X36916404Y-33550177D01*
X36764941Y-33645199D01*
X36724166Y-33667683D01*
X36522252Y-33733891D01*
X36266591Y-33755154D01*
X35974920Y-33731890D01*
X35664979Y-33664519D01*
X35586578Y-33640788D01*
X35253323Y-33534001D01*
X34851615Y-33534001D01*
X34849227Y-33454199D01*
X34892474Y-33274324D01*
X34949140Y-33186047D01*
X35031538Y-33129279D01*
X35150666Y-33108776D01*
X35317197Y-33125174D01*
X35541809Y-33179109D01*
X35714877Y-33231667D01*
X35980983Y-33309235D01*
X36191024Y-33347277D01*
X36365245Y-33342944D01*
X36523891Y-33293386D01*
X36687207Y-33195756D01*
X36845073Y-33072632D01*
X36884241Y-33043526D01*
X38730957Y-33043526D01*
X38752449Y-33251038D01*
X38845235Y-33442529D01*
X38867716Y-33471388D01*
X39005463Y-33576440D01*
X39185055Y-33630587D01*
X39378886Y-33631351D01*
X39559349Y-33576254D01*
X39620334Y-33538952D01*
X39711868Y-33447149D01*
X39796254Y-33324006D01*
X39808282Y-33301177D01*
X39865080Y-33110489D01*
X39840163Y-32926554D01*
X39732381Y-32744366D01*
X39662580Y-32667619D01*
X39562330Y-32572799D01*
X39483685Y-32525799D01*
X39390381Y-32513385D01*
X39261014Y-32521085D01*
X39102699Y-32543855D01*
X38992056Y-32589787D01*
X38898511Y-32667616D01*
X38779922Y-32841787D01*
X38730957Y-33043526D01*
X36884241Y-33043526D01*
X36973093Y-32977500D01*
X37093932Y-32906249D01*
X37164435Y-32879029D01*
X37234873Y-32853062D01*
X37281626Y-32795202D01*
X37319900Y-32683101D01*
X37333061Y-32631219D01*
X37374786Y-32498517D01*
X37444323Y-32317247D01*
X37530933Y-32114221D01*
X37599027Y-31967145D01*
X37710126Y-31747256D01*
X37813393Y-31575379D01*
X37930191Y-31421289D01*
X38081881Y-31254758D01*
X38156161Y-31178852D01*
X38341818Y-30999431D01*
X38502039Y-30866511D01*
X38663821Y-30760112D01*
X38854158Y-30660256D01*
X38862000Y-30656475D01*
X39349160Y-30467108D01*
X39863024Y-30355640D01*
X40407067Y-30321543D01*
X40871361Y-30350177D01*
%TD*%
M02*
